<svg width="24" height="19" viewBox="0 0 24 19" fill="none" xmlns="http://www.w3.org/2000/svg">
<path d="M3.70898 6.09116C3.70898 6.53036 4.06359 6.88486 4.50129 6.88486C4.93949 6.88486 5.29508 6.53036 5.29508 6.09116C5.29508 5.65266 4.93949 5.29736 4.50129 5.29736C4.06359 5.29736 3.70898 5.65266 3.70898 6.09116Z" fill="#A5A5A5"/>
<path d="M21.3045 2.806L19.2122 2.8043L19.1364 2.7725L16.4334 0H9.90061L7.05021 2.7806L6.9874 2.806H1.76352C0.793716 2.806 0 3.5998 0 4.5699V14.6946C0 15.6648 0.793716 16.4585 1.76352 16.4585H6.98561C6.65471 16.0765 6.3605 15.6634 6.1065 15.2238H1.76352C1.47702 15.2238 1.23471 14.9811 1.23471 14.6946V4.5699C1.23471 4.2831 1.47702 4.0408 1.76352 4.0408L6.9765 4.0453C7.325 4.0453 7.65311 3.8742 7.90041 3.6269L10.3684 1.2298L10.4422 1.1995H15.8936L15.9695 1.2316L18.2893 3.6217C18.5356 3.8682 18.8633 4.039 19.2122 4.039H19.2464L19.2478 4.0408H21.3045C21.5913 4.0408 21.8337 4.2831 21.8337 4.5699V14.6946C21.8337 14.9811 21.5913 15.2238 21.3045 15.2238H19.946C19.6916 15.6634 19.3971 16.0765 19.0669 16.4585H21.3045C22.2747 16.4585 23.0684 15.6648 23.0684 14.6946V4.5699C23.0684 3.5998 22.2747 2.806 21.3045 2.806Z" fill="#A5A5A5"/>
<path d="M3.68576 1.84749H5.53006C5.87086 1.84749 6.14746 1.57129 6.14746 1.23009C6.14746 0.889293 5.87086 0.612793 5.53006 0.612793H3.68576C3.34566 0.612793 3.06836 0.889293 3.06836 1.23009C3.06836 1.57129 3.34566 1.84749 3.68576 1.84749Z" fill="#A5A5A5"/>
<path d="M13.0257 16.9529C9.87332 16.9529 7.30891 14.3833 7.30891 11.2249C7.30891 8.07284 9.87332 5.50814 13.0257 5.50814C16.1778 5.50814 18.7421 8.07284 18.7421 11.2249C18.7421 14.3833 16.1778 16.9529 13.0257 16.9529ZM13.0257 4.27344C9.19282 4.27344 6.07422 7.39194 6.07422 11.2249C6.07422 15.0642 9.19282 18.1877 13.0257 18.1877C16.8583 18.1877 19.9768 15.0642 19.9768 11.2249C19.9768 7.39194 16.8583 4.27344 13.0257 4.27344Z" fill="#A5A5A5"/>
<path d="M13.0258 14.5386C11.2065 14.5386 9.7259 13.0531 9.7259 11.2271C9.7259 9.40711 11.2065 7.92611 13.0258 7.92611C14.8458 7.92611 16.326 9.40711 16.326 11.2271C16.326 13.0531 14.8458 14.5386 13.0258 14.5386ZM13.0258 6.69141C10.5257 6.69141 8.49121 8.72621 8.49121 11.2271C8.49121 13.7339 10.5257 15.7733 13.0258 15.7733C15.5266 15.7733 17.5608 13.7339 17.5608 11.2271C17.5608 8.72621 15.5266 6.69141 13.0258 6.69141Z" fill="#A5A5A5"/>
</svg>
