<svg width="19" height="16" viewBox="0 0 19 16" fill="none" xmlns="http://www.w3.org/2000/svg">
<path d="M6.58616 14.7877L6.58605 14.7876L6.58349 14.7905C5.92577 15.5279 4.93813 15.95 3.95023 15.95C2.9594 15.95 1.97112 15.6328 1.20303 14.8946C-0.334344 13.4172 -0.334344 11.0975 1.20303 9.62011L9.54855 1.60018C11.6441 -0.413523 15.1742 -0.519252 17.3797 1.60018C19.4728 3.61164 19.4742 7.00108 17.3792 9.12077C17.3791 9.12091 17.379 9.12106 17.3788 9.12121L11.371 14.8946C11.1678 15.0899 10.8645 15.0899 10.6613 14.8946C10.4593 14.7005 10.4593 14.4124 10.6613 14.2182L16.6701 8.44388C18.4709 6.71328 18.4709 4.00721 16.6701 2.27661C14.8703 0.547092 12.0579 0.547092 10.2582 2.27661L1.91267 10.2966C0.780945 11.3842 0.777685 13.1288 1.91361 14.1122C3.04434 15.1979 4.8554 15.2006 5.87747 14.1104L13.4432 6.83994L13.4085 6.80389L13.4432 6.83994C13.9087 6.3925 13.9087 5.71814 13.4432 5.27076L13.4085 5.30681L13.4432 5.27076C12.9787 4.82447 12.2805 4.82446 11.816 5.27076L6.58616 10.2966C6.38298 10.4919 6.0797 10.4919 5.87652 10.2966C5.67446 10.1024 5.67446 9.81435 5.87652 9.62018L11.1064 4.59433C11.9772 3.75746 13.2819 3.75746 14.1528 4.59433C15.0225 5.43012 15.0225 6.68052 14.1528 7.51631L6.58616 14.7877Z" fill="#A5A5A5" stroke="#A5A5A5" stroke-width="0.1"/>
</svg>
