<svg width="26" height="26" viewBox="0 0 26 26" fill="none" xmlns="http://www.w3.org/2000/svg">
<path d="M11.2842 3.77234L6.55174 2.84901C6.34633 2.80876 6.13862 2.90356 6.03372 3.08437C5.96296 3.20644 4.29177 6.11851 3.56509 9.8431C3.39744 10.7025 3.32363 11.5557 3.34079 12.3669C3.3488 13.0022 3.42528 13.6417 3.56814 14.2606C3.60877 14.4361 3.65607 14.6102 3.70986 14.7821C4.11363 16.0712 4.80713 16.952 5.68983 17.3159L4.6677 22.8248L2.46648 22.3953C1.90898 22.2866 1.33392 22.5967 1.12183 23.1241C1.08597 23.2135 1.06423 23.306 1.04592 23.4002C1.02837 23.4895 1.00911 23.5784 1.00281 23.6694C0.982787 23.9576 1.07033 24.2461 1.24447 24.4763C1.42204 24.7111 1.68315 24.8733 1.97192 24.9297L7.34137 25.9774C7.80694 26.0682 8.30055 25.8612 8.56758 25.4701C8.63738 25.3676 8.69079 25.2541 8.72436 25.1347C8.76556 24.9886 8.79893 24.8303 8.80637 24.6787C8.8201 24.3999 8.7318 24.1197 8.56376 23.8971C8.38695 23.6631 8.12375 23.4994 7.83574 23.4432L5.62994 23.0127L6.65245 17.5023C7.55384 17.4941 8.47183 16.9955 9.29388 16.0602C9.36121 15.9839 9.42548 15.9055 9.489 15.8259C10.0925 15.0731 10.5975 14.1248 10.9683 13.0613C11.1596 12.5116 11.311 11.9474 11.4224 11.3762C12.1493 7.6518 11.6954 4.32507 11.6757 4.18527C11.6465 3.97832 11.4894 3.81239 11.2842 3.77234ZM7.7894 24.499C7.82678 24.5545 7.82926 24.6215 7.81991 24.6858C7.81133 24.7449 7.80065 24.8109 7.7789 24.8668C7.73923 24.9698 7.64082 25.0369 7.52905 25.0152L2.15979 23.9675C2.09513 23.9549 2.03848 23.9125 2.0072 23.8548C1.96448 23.7762 1.98775 23.6945 2.00339 23.6121C2.0175 23.5381 2.02818 23.4651 2.08693 23.4119C2.13823 23.3653 2.21052 23.3444 2.27861 23.3577L7.64806 24.4054C7.72626 24.4207 7.77013 24.4706 7.7894 24.499ZM6.71673 3.8801L10.744 4.66591C10.8373 5.5982 11.0246 8.29609 10.4604 11.1885C10.4154 11.4191 10.3631 11.6459 10.3057 11.8689H4.32134C4.33736 11.273 4.40564 10.6549 4.52733 10.0308C5.09075 7.14407 6.27995 4.70978 6.71673 3.8801ZM9.58455 13.8399C9.33489 14.3489 9.03582 14.837 8.67477 15.2751C8.14835 15.9144 7.59294 16.3188 7.05813 16.4626C6.78863 16.5341 6.5054 16.5431 6.2357 16.4683C5.781 16.3417 5.3839 15.99 5.07072 15.4676C4.70871 14.8595 4.51665 14.155 4.41289 13.4595C4.38256 13.2572 4.36044 13.0533 4.34499 12.8492H10.0034C9.88171 13.1866 9.74305 13.5181 9.58455 13.8399Z" fill="#037486"/>
<path d="M9.6 9.50756C9.61526 9.5089 9.63032 9.50966 9.6452 9.50966C9.89582 9.50966 10.1096 9.31836 10.1329 9.06392C10.2248 8.05572 10.2506 7.01376 10.2092 5.96703C10.1983 5.69638 9.97269 5.48562 9.69994 5.4965C9.42929 5.50718 9.21873 5.7351 9.22941 6.00575C9.26927 7.00994 9.24466 8.0088 9.15636 8.97485C9.13175 9.24455 9.33049 9.48296 9.6 9.50756Z" fill="#037486"/>
<path d="M23.4388 23.5198C23.4039 23.3403 23.3654 23.1587 23.2784 22.996C23.204 22.8566 23.0976 22.7336 22.974 22.6354C22.6997 22.4172 22.3394 22.3281 21.995 22.3954L19.7913 22.8253L18.7159 17.314C20.6057 16.5285 21.5307 13.3983 20.8371 9.84304C20.1104 6.11845 18.439 3.20637 18.3684 3.08431C18.2635 2.90349 18.0554 2.80889 17.8504 2.84895L13.1178 3.77227C12.9128 3.81233 12.7554 3.97826 12.7262 4.1852C12.7066 4.32501 12.2528 7.65174 12.9795 11.3761C13.6732 14.9314 15.7074 17.4843 17.7537 17.5018L18.829 23.0132L16.6255 23.4431C16.1666 23.5326 15.7899 23.9001 15.6839 24.3546C15.6211 24.6245 15.6627 24.9134 15.7482 25.1738C15.8313 25.4273 16.0009 25.6499 16.2229 25.7975C16.4844 25.9714 16.8115 26.0374 17.1199 25.9773L22.4894 24.9297C23.1319 24.8042 23.5645 24.1633 23.4388 23.5198ZM13.6583 4.66585L17.6854 3.88004C18.1224 4.7101 19.3116 7.1442 19.8748 10.0307C19.8998 10.1587 19.9221 10.2863 19.9425 10.4135H13.8073C13.4117 7.82912 13.5738 5.51517 13.6583 4.66585ZM22.4428 23.8738C22.4237 23.9022 22.3801 23.952 22.3017 23.9672L16.9324 25.0151C16.8647 25.0283 16.7918 25.0075 16.7409 24.9611C16.6827 24.9087 16.6709 24.8331 16.657 24.7601C16.6425 24.6853 16.6215 24.6062 16.6538 24.5329C16.6824 24.4679 16.7436 24.4189 16.8134 24.4053L22.1827 23.3575C22.2929 23.3359 22.3927 23.405 22.4325 23.5058C22.4735 23.6092 22.5096 23.7746 22.4428 23.8738ZM17.6801 16.5192C17.2572 16.4938 16.8617 16.3002 16.525 16.0527C16.1884 15.8051 15.8979 15.4984 15.641 15.17C15.4853 14.9708 15.3423 14.762 15.2097 14.5468C14.9578 14.1383 14.727 13.6784 14.5263 13.1793C14.2935 12.6018 14.1149 12.0025 13.9841 11.3939H20.0554C20.118 12.2859 20.0787 13.1984 19.8716 14.0708C19.8125 14.3197 19.7386 14.5653 19.6473 14.8043C19.3032 15.7038 18.7867 16.2871 18.1828 16.4637C18.02 16.5108 17.8496 16.5291 17.6801 16.5192Z" fill="#037486"/>
<path d="M12.619 1.49018C12.619 1.21953 12.3995 1 12.1288 1C11.858 1 11.6387 1.21953 11.6387 1.49018V3.08297C11.6387 3.35362 11.858 3.57315 12.1288 3.57315C12.3995 3.57315 12.619 3.35362 12.619 3.08297V1.49018Z" fill="#037486"/>
<path d="M10.1402 2.8566C10.2325 3.00861 10.3941 3.09253 10.5598 3.09253C10.6464 3.09253 10.7343 3.06946 10.8137 3.0212C11.045 2.88063 11.1188 2.57909 10.9783 2.34773L10.374 1.35288C10.2335 1.12171 9.93212 1.0479 9.70058 1.18847C9.46922 1.32904 9.3956 1.63058 9.53617 1.86194L10.1402 2.8566Z" fill="#037486"/>
<path d="M13.5386 3.02124C13.6179 3.0695 13.7058 3.09258 13.7924 3.09258C13.9582 3.09258 14.1197 3.00866 14.212 2.85664L14.8161 1.86198C14.9567 1.63063 14.883 1.32908 14.6517 1.18851C14.4201 1.04794 14.1188 1.12157 13.9782 1.35292L13.3741 2.34777C13.2334 2.57913 13.3072 2.88068 13.5386 3.02124Z" fill="#037486"/>
<path d="M17.3437 7.10258C17.5302 7.61373 17.6988 8.13176 17.8464 8.65551C17.9048 8.86264 17.9368 9.08064 18.1365 9.20081C18.3122 9.30628 18.542 9.28969 18.7003 9.15942C18.8489 9.03735 18.9096 8.83918 18.8626 8.65398C18.7984 8.39974 18.7221 8.14778 18.6448 7.89697C18.5651 7.63739 18.4804 7.37914 18.3913 7.1226C18.3473 6.99558 18.3074 6.86454 18.2544 6.74095C18.2183 6.65646 18.1583 6.58322 18.0827 6.53115C17.9101 6.41213 17.6744 6.41728 17.5071 6.54412C17.3381 6.67286 17.2706 6.90307 17.3437 7.10258Z" fill="#037486"/>
<path d="M9.86151 10.961C9.86151 11.2328 9.64102 11.4533 9.36923 11.4533C9.09725 11.4533 8.87695 11.2328 8.87695 10.961C8.87695 10.689 9.09725 10.4688 9.36923 10.4688C9.64102 10.4688 9.86151 10.689 9.86151 10.961Z" fill="#037486"/>
<path d="M17.5588 5.12899C17.5588 5.40079 17.3383 5.62127 17.0665 5.62127C16.7947 5.62127 16.5742 5.40079 16.5742 5.12899C16.5742 4.85701 16.7947 4.63672 17.0665 4.63672C17.3383 4.63672 17.5588 4.85701 17.5588 5.12899Z" fill="#037486"/>
<line x1="0.282843" y1="0.717157" x2="25.0316" y2="25.4659" stroke="#1C8292" stroke-width="0.8"/>
</svg>
