<svg width="250" height="250" viewBox="0 0 250 250" fill="none" xmlns="http://www.w3.org/2000/svg">
<path d="M53.6002 221C62.6002 214.7 64.6502 203.05 64.3002 192.55C64.2502 190.8 64.4502 188.95 63.6002 187.4C62.7502 185.85 60.8002 184.8 59.2502 185.55C57.9502 186.15 57.4002 187.65 56.6502 188.95C55.7002 190.6 54.2502 192 52.5502 192.85C51.4502 193.45 50.0502 193.8 48.9502 193.2C47.4502 192.35 47.2502 190.3 47.2502 188.55C47.2502 185.3 47.3002 182.05 47.3002 178.8C47.3002 177.05 47.3002 175.3 46.7502 173.65C46.2002 172 45.0002 170.45 43.3502 170C41.7002 169.55 39.6502 170.5 39.3002 172.2C39.1502 172.9 39.3002 173.65 39.2502 174.35C39.2002 175.05 38.8502 175.85 38.2002 176.05C37.5002 176.25 36.8002 175.75 36.3002 175.25C34.5002 173.5 33.3002 171.25 32.1502 168.95C31.0002 166.7 29.9002 164.4 28.2502 162.45C26.6002 160.5 24.3502 159 21.8502 158.85C19.3502 158.7 16.7002 160.25 16.0502 162.7C15.4002 165.15 16.8502 167.65 18.4002 169.65C20.7002 172.6 23.4502 175.2 26.5002 177.35C27.0502 177.75 27.6502 178.15 27.8502 178.8C28.2502 179.95 27.1502 181.1 26.0002 181.5C24.7002 181.95 23.3002 181.8 21.9502 181.95C20.6002 182.1 19.1002 182.7 18.6002 184C17.9002 185.8 19.4002 187.65 20.8502 188.85C23.8002 191.3 27.1502 193.25 30.7002 194.55C32.0002 195 33.3502 195.45 34.3502 196.35C35.4002 197.25 36.0002 198.8 35.4002 200.05C34.8002 201.3 33.1502 201.65 31.8502 201.4C30.5002 201.15 29.3002 200.4 28.0502 199.95C25.6502 199.05 22.5502 199.2 21.0502 201.3C20.0502 202.65 19.9502 204.55 20.4502 206.15C20.9502 207.75 22.0002 209.15 23.1002 210.45C26.9502 214.95 31.8502 218.55 37.4002 220.5C42.9002 222.5 48.0502 223.05 53.6002 221Z" fill="#F5F5F5"/>
<path d="M53.7003 228.8C53.3003 224.65 52.4003 219.75 50.8503 214.45C49.3003 209.15 47.1503 203.5 44.6503 197.65C44.0503 196.2 43.4003 194.75 42.8003 193.35C42.2003 191.95 41.6003 190.55 40.9003 189.2C39.5503 186.5 38.0503 184.05 36.5503 181.75C35.0503 179.45 33.5503 177.3 32.1503 175.3C30.7503 173.3 29.3503 171.5 28.0503 169.9C25.4503 166.65 23.0503 164.3 21.3003 162.75C20.4503 161.95 19.7503 161.4 19.3003 161C19.0503 160.8 18.9003 160.65 18.7503 160.55C18.6503 160.45 18.5503 160.4 18.5503 160.4C18.5503 160.4 18.6003 160.45 18.7003 160.55C18.8503 160.65 19.0003 160.8 19.2003 161C19.6503 161.4 20.3503 162 21.1503 162.8C22.8503 164.35 25.2003 166.75 27.8003 170C29.1003 171.6 30.4503 173.45 31.8503 175.45C33.2503 177.45 34.7503 179.6 36.2503 181.9C37.7503 184.2 39.2003 186.65 40.5503 189.35C41.2003 190.7 41.8003 192.05 42.4503 193.5C43.0503 194.9 43.6503 196.35 44.3003 197.8C46.7503 203.65 48.9503 209.3 50.5003 214.55C52.0503 219.8 53.0003 224.7 53.4003 228.85" fill="#E0E0E0"/>
<path d="M40.8504 189.149C40.8504 189.149 40.9504 188.899 41.0004 188.399C41.1004 187.899 41.2004 187.199 41.3004 186.349C41.5504 184.599 41.8004 182.199 42.1004 179.549C42.3504 176.899 42.6504 174.499 42.9504 172.749C43.1004 171.899 43.2004 171.199 43.3004 170.699C43.4004 170.199 43.4004 169.949 43.4004 169.949C43.4004 169.949 43.3004 170.199 43.2004 170.699C43.1004 171.149 42.9504 171.849 42.7504 172.749C42.4004 174.449 42.1004 176.849 41.8004 179.549C41.5504 182.149 41.3004 184.549 41.1004 186.349C41.0004 187.149 40.9504 187.849 40.9004 188.399C40.8504 188.849 40.8004 189.149 40.8504 189.149Z" fill="#E0E0E0"/>
<path d="M18.4501 184.95C18.4501 184.95 18.7501 185 19.3501 185.05C19.9001 185.1 20.7501 185.15 21.8001 185.3C23.8501 185.5 26.6501 185.95 29.7501 186.5C32.8501 187.1 35.6001 187.75 37.6001 188.25C38.6001 188.5 39.4001 188.75 39.9501 188.9C40.5001 189.05 40.8001 189.15 40.8001 189.1C40.8001 189.1 40.5001 188.95 39.9501 188.75C39.4001 188.55 38.6001 188.3 37.6001 188C35.6001 187.4 32.8501 186.7 29.7501 186.15C26.6501 185.55 23.8001 185.2 21.7501 185.05C20.7001 184.95 19.9001 184.9 19.3001 184.9C18.7501 184.95 18.4501 184.95 18.4501 184.95Z" fill="#E0E0E0"/>
<path d="M50.6003 213.999C50.6003 213.999 50.6503 213.899 50.7503 213.749C50.8503 213.549 51.0003 213.249 51.1503 212.949C51.5003 212.249 51.9503 211.199 52.4503 209.949C53.5503 207.399 54.9003 203.799 56.4003 199.799C57.8503 195.799 59.2003 192.199 60.2503 189.649C60.7503 188.399 61.1503 187.349 61.4503 186.599C61.6003 186.249 61.7003 185.999 61.8003 185.749C61.8503 185.549 61.9003 185.449 61.9003 185.449C61.9003 185.449 61.8503 185.549 61.7503 185.699C61.6503 185.899 61.5003 186.199 61.3503 186.499C61.0003 187.199 60.5503 188.249 60.0503 189.499C58.9503 192.049 57.6003 195.649 56.1003 199.649C54.6503 203.649 53.3003 207.249 52.2503 209.799C51.7503 211.049 51.3503 212.099 51.0503 212.849C50.9003 213.199 50.8003 213.449 50.7003 213.699C50.6003 213.899 50.6003 213.999 50.6003 213.999Z" fill="#E0E0E0"/>
<path d="M20.8502 204.45C20.8502 204.45 20.9502 204.5 21.1502 204.55C21.4002 204.65 21.6502 204.7 22.0002 204.85C22.8002 205.1 23.9002 205.45 25.2002 205.9C27.9002 206.75 31.6002 208 35.7002 209.4C39.8002 210.8 43.5002 212 46.2002 212.8C47.5502 213.2 48.6502 213.55 49.4002 213.75C49.7502 213.85 50.0502 213.9 50.3002 214C50.5002 214.05 50.6002 214.05 50.6002 214.05C50.6002 214.05 50.5002 214 50.3002 213.95C50.0502 213.85 49.8002 213.8 49.4502 213.65C48.6502 213.4 47.5502 213.05 46.2502 212.6C43.5502 211.75 39.8502 210.5 35.7502 209.1C31.6502 207.7 27.9502 206.5 25.2502 205.7C23.9002 205.3 22.8002 204.95 22.0502 204.75C21.7002 204.65 21.4002 204.6 21.1502 204.5C20.9502 204.45 20.8502 204.4 20.8502 204.45Z" fill="#E0E0E0"/>
<path d="M215.05 207.651C213.5 208.951 211.5 207.851 210.75 206.601C210 205.351 209.95 203.851 209.95 202.401C209.9 199.101 209.85 195.651 211.35 192.751C211.8 191.851 212.4 191.051 213.25 190.501C214.1 190.001 215.2 189.851 216.05 190.351C217.05 190.951 217.45 192.201 217.65 193.301C218.3 196.651 218.15 200.151 217.3 203.501C216.85 205.051 216.25 206.651 215.05 207.651Z" fill="#F5C974" fill-opacity="0.65"/>
<path d="M208.7 214.552C207.15 213.152 205.05 212.452 202.95 212.202C201.8 212.102 200.6 212.102 199.65 212.702C198.7 213.302 198.15 214.702 198.85 215.652C199.25 216.202 199.95 216.452 200.6 216.602C202.2 217.002 204 217.202 205 218.502C205.55 219.252 205.8 220.252 206.6 220.752C207.35 221.252 208.45 221.002 209.1 220.352C209.75 219.702 210 218.752 210.05 217.852C210 217.952 210.3 216.002 208.7 214.552Z" fill="#F5C974"/>
<path d="M217.5 210.753C216.7 209.003 217 206.853 218.05 205.203C219.05 203.553 220.7 202.353 222.4 201.503C224.45 200.503 226.65 199.853 228.9 199.703C229.8 199.653 230.7 199.653 231.55 199.953C232.4 200.253 233.15 200.953 233.35 201.803C233.65 203.103 232.7 204.303 231.8 205.253C230.2 206.953 228.45 208.503 226.6 209.902C225.1 211.052 223.45 212.103 221.6 212.303C219.75 212.503 218 211.953 217.4 210.553" fill="#F5C974"/>
<path d="M209.1 228.852C209.25 228.002 209.4 227.002 209.45 225.852C209.5 224.702 209.45 223.452 209.3 222.152C209.15 220.852 208.85 219.652 208.4 218.602C207.95 217.552 207.35 216.752 206.7 216.202C206.05 215.652 205.45 215.302 205 215.152C204.55 215.002 204.3 214.852 204.3 214.852C204.3 214.852 204.55 214.902 205.05 215.052C205.5 215.202 206.15 215.502 206.85 216.052C207.55 216.602 208.2 217.452 208.65 218.502C209.15 219.552 209.45 220.802 209.6 222.152C209.75 223.452 209.8 224.752 209.7 225.902C209.6 227.052 209.45 228.052 209.3 228.902" fill="#E1AF4F"/>
<path d="M209.3 228.75C209.55 227.9 209.85 226.7 210.2 225.25C210.9 222.25 211.75 218.1 212.5 213.5C213.2 208.85 213.65 204.65 213.85 201.6C213.9 200.85 213.95 200.15 213.95 199.55C214 198.95 214 198.4 214 198C214 197.6 214 197.25 214.05 197C214.05 196.75 214.05 196.65 214.1 196.65C214.1 196.65 214.1 196.75 214.15 197C214.15 197.25 214.15 197.6 214.2 198C214.2 198.45 214.2 198.95 214.2 199.55C214.2 200.15 214.2 200.85 214.15 201.65C214 204.75 213.65 208.95 212.9 213.6C212.2 218.25 211.3 222.4 210.5 225.4C210.1 226.9 209.75 228.1 209.5 228.9" fill="#E1AF4F"/>
<path d="M211.05 222.152C211.05 222.152 211.15 221.802 211.35 221.152C211.55 220.502 211.9 219.602 212.4 218.552C212.9 217.452 213.55 216.202 214.35 214.852C215.15 213.502 216.1 212.051 217.25 210.651C219.5 207.801 222.05 205.651 224.1 204.401C224.6 204.051 225.1 203.851 225.5 203.651C225.7 203.551 225.9 203.451 226.1 203.351C226.3 203.301 226.45 203.201 226.6 203.151C227.25 202.951 227.6 202.801 227.6 202.851C227.65 202.951 226.2 203.301 224.2 204.551C222.2 205.801 219.7 207.951 217.45 210.801C216.35 212.201 215.35 213.651 214.55 214.951C213.75 216.301 213.1 217.552 212.55 218.602C212.05 219.652 211.65 220.552 211.45 221.152C211.2 221.802 211.1 222.152 211.05 222.152Z" fill="#E1AF4F"/>
<path d="M210.25 103.3L210.55 102.65L210.95 103.25C211.05 103.4 211.2 103.55 211.4 103.65L212.05 103.95L211.45 104.35C211.3 104.45 211.15 104.6 211.05 104.8L210.75 105.45L210.35 104.85C210.25 104.7 210.1 104.55 209.9 104.45L209.25 104.15L209.85 103.75C210.05 103.6 210.2 103.45 210.25 103.3Z" fill="#FF6E76"/>
<path d="M199.25 41.15L199.55 40.5L199.95 41.1C200.05 41.25 200.2 41.4 200.4 41.5L201.05 41.8L200.45 42.2C200.3 42.3 200.15 42.45 200.05 42.65L199.75 43.3L199.35 42.7C199.25 42.55 199.1 42.4 198.9 42.3L198.25 42L198.85 41.6C199 41.5 199.15 41.3 199.25 41.15Z" fill="#FF6E76"/>
<path d="M173.65 27.6012L173.95 26.9512L174.35 27.5512C174.45 27.7012 174.6 27.8512 174.8 27.9512L175.45 28.2512L174.85 28.6512C174.7 28.7512 174.55 28.9012 174.45 29.1012L174.15 29.7512L173.75 29.1512C173.65 29.0012 173.5 28.8512 173.3 28.7512L172.65 28.4512L173.25 28.0512C173.4 27.9512 173.55 27.8012 173.65 27.6012Z" fill="#F5C974"/>
<path d="M42.2002 53.7008L42.5002 53.0508L42.9002 53.6508C43.0002 53.8008 43.1502 53.9508 43.3502 54.0508L44.0002 54.3508L43.4002 54.7508C43.2502 54.8508 43.1002 55.0008 43.0002 55.2008L42.7002 55.8508L42.3002 55.2508C42.2002 55.1008 42.0502 54.9508 41.8502 54.8508L41.2002 54.5508L41.8002 54.1508C42.0002 54.0508 42.1002 53.9008 42.2002 53.7008Z" fill="#8BDCD5"/>
<path d="M75.3004 19.9508L75.6003 19.3008L76.0004 19.9008C76.1004 20.0508 76.2503 20.2008 76.4503 20.3008L77.1003 20.6008L76.5004 21.0008C76.3504 21.1008 76.2003 21.2508 76.1003 21.4508L75.8004 22.1008L75.4004 21.5008C75.3004 21.3508 75.1503 21.2008 74.9503 21.1008L74.3004 20.8008L74.9004 20.4008C75.1004 20.3008 75.2004 20.1508 75.3004 19.9508Z" fill="#EBEBEB"/>
<path d="M223 63.8L223.5 62.75L224.15 63.75C224.35 64 224.6 64.25 224.9 64.4L225.95 64.9L224.95 65.55C224.7 65.75 224.45 66 224.3 66.3L223.8 67.35L223.15 66.35C222.95 66.1 222.7 65.85 222.4 65.7L221.35 65.2L222.35 64.55C222.65 64.35 222.9 64.1 223 63.8Z" fill="#8BDCD5"/>
<path d="M27.5501 89.4016L28.0501 88.3516L28.7001 89.3516C28.9001 89.6016 29.1501 89.8516 29.4501 90.0016L30.5001 90.5016L29.5001 91.1516C29.2501 91.3516 29.0001 91.6016 28.8501 91.9016L28.3501 92.9516L27.7001 91.9516C27.5001 91.7016 27.2501 91.4516 26.9501 91.3016L25.9001 90.8016L26.9001 90.1516C27.2001 89.9516 27.4501 89.7016 27.5501 89.4016Z" fill="#F5C974"/>
<path d="M221.4 132.351L221.9 131.301L222.55 132.301C222.75 132.551 223 132.801 223.3 132.951L224.35 133.451L223.35 134.101C223.1 134.301 222.85 134.551 222.7 134.851L222.2 135.901L221.55 134.901C221.35 134.651 221.1 134.401 220.8 134.251L219.75 133.751L220.75 133.101C221.05 132.901 221.25 132.651 221.4 132.351Z" fill="#F5C974"/>
<path d="M219.15 28.5012L219.65 27.4512L220.3 28.4512C220.5 28.7012 220.75 28.9512 221.05 29.1012L222.1 29.6012L221.1 30.2512C220.85 30.4512 220.6 30.7012 220.45 31.0012L219.95 32.0512L219.3 31.0512C219.1 30.8012 218.85 30.5512 218.55 30.4012L217.5 29.9012L218.5 29.2512C218.8 29.0512 219 28.8012 219.15 28.5012Z" fill="#E0E0E0"/>
<path d="M29.0003 30.7512L29.5003 29.7012L30.1503 30.7012C30.3503 30.9512 30.6003 31.2012 30.9003 31.3512L31.9503 31.8512L30.9503 32.5012C30.7003 32.7012 30.4503 32.9512 30.3003 33.2512L29.8003 34.3012L29.1503 33.3012C28.9503 33.0512 28.7003 32.8012 28.4003 32.6512L27.3503 32.1512L28.3503 31.5012C28.6503 31.3012 28.8503 31.0512 29.0003 30.7512Z" fill="#FF6E76"/>
<path d="M222.05 228.8C222.05 228.85 178.6 228.95 125 228.95C71.4 228.95 27.95 228.9 27.95 228.8C27.95 228.75 71.4 228.65 125 228.65C178.6 228.65 222.05 228.7 222.05 228.8Z" fill="#263238"/>
<path d="M149.85 202.401C157.1 201.251 166.75 201.851 172 196.801C177.3 191.751 178.3 181.651 172.1 177.751C167.9 175.101 162.45 176.301 157.85 177.951C149.8 180.901 142.15 185.201 133.75 186.901C125.35 188.601 115.5 187.101 110.25 180.301C106.8 175.801 105.65 169.451 100.95 166.201C94.7501 161.951 84.4501 164.751 80.3001 158.501C76.2001 152.301 82.6501 144.051 81.0501 136.751C78.8501 126.651 63.4501 124.901 59.7001 115.251C57.2001 108.851 61.0001 101.751 65.2001 96.3008C69.4001 90.8008 74.3001 85.1008 74.4001 78.2509C74.5001 72.0009 70.5001 66.4509 69.7001 60.2509C68.3501 49.6509 76.5501 40.2509 85.0001 33.7009C93.3001 27.2509 103 21.7509 113.5 21.3509C124 20.9509 135.3 26.9508 138.2 37.1008C139.6 42.0508 138.9 47.3509 139.6 52.4509C140.3 57.5508 143.15 63.0509 148.2 64.0509C154.45 65.3009 159.45 59.3009 163.2 54.1509C166.9 49.0009 172.8 43.4508 178.7 45.8008C185.35 48.4508 185.6 59.0009 192.1 62.0009C194.65 63.2009 197.7 62.9508 200.25 64.1008C205.85 66.7008 206.4 74.6508 204.3 80.4508C201.5 88.3508 195.4 95.0508 187.75 98.5508C182.6 100.901 176.8 101.951 172.35 105.451C169 108.051 166.8 111.801 164.65 115.451C162.9 118.451 161.1 121.551 160.4 124.951C159.75 128.351 160.35 132.251 162.9 134.651C165.95 137.551 170.8 137.451 174.9 136.401C179 135.351 182.9 133.451 187.1 133.301C195.4 133.001 202.25 139.251 208.15 145.101C211.2 148.151 214.3 151.251 216.35 155.051C218.4 158.851 219.25 163.551 217.55 167.551C215.8 171.751 211.6 174.451 209.4 178.401C207.35 182.051 207.15 186.401 205.7 190.301C202.7 198.501 194.55 203.951 186 205.801C177.6 207.751 156.85 209.351 149.85 202.401Z" fill="#E8505B"/>
<path opacity="0.9" d="M149.85 202.401C157.1 201.251 166.75 201.851 172 196.801C177.3 191.751 178.3 181.651 172.1 177.751C167.9 175.101 162.45 176.301 157.85 177.951C149.8 180.901 142.15 185.201 133.75 186.901C125.35 188.601 115.5 187.101 110.25 180.301C106.8 175.801 105.65 169.451 100.95 166.201C94.7501 161.951 84.4501 164.751 80.3001 158.501C76.2001 152.301 82.6501 144.051 81.0501 136.751C78.8501 126.651 63.4501 124.901 59.7001 115.251C57.2001 108.851 61.0001 101.751 65.2001 96.3008C69.4001 90.8008 74.3001 85.1008 74.4001 78.2509C74.5001 72.0009 70.5001 66.4509 69.7001 60.2509C68.3501 49.6509 76.5501 40.2509 85.0001 33.7009C93.3001 27.2509 103 21.7509 113.5 21.3509C124 20.9509 135.3 26.9508 138.2 37.1008C139.6 42.0508 138.9 47.3509 139.6 52.4509C140.3 57.5508 143.15 63.0509 148.2 64.0509C154.45 65.3009 159.45 59.3009 163.2 54.1509C166.9 49.0009 172.8 43.4508 178.7 45.8008C185.35 48.4508 185.6 59.0009 192.1 62.0009C194.65 63.2009 197.7 62.9508 200.25 64.1008C205.85 66.7008 206.4 74.6508 204.3 80.4508C201.5 88.3508 195.4 95.0508 187.75 98.5508C182.6 100.901 176.8 101.951 172.35 105.451C169 108.051 166.8 111.801 164.65 115.451C162.9 118.451 161.1 121.551 160.4 124.951C159.75 128.351 160.35 132.251 162.9 134.651C165.95 137.551 170.8 137.451 174.9 136.401C179 135.351 182.9 133.451 187.1 133.301C195.4 133.001 202.25 139.251 208.15 145.101C211.2 148.151 214.3 151.251 216.35 155.051C218.4 158.851 219.25 163.551 217.55 167.551C215.8 171.751 211.6 174.451 209.4 178.401C207.35 182.051 207.15 186.401 205.7 190.301C202.7 198.501 194.55 203.951 186 205.801C177.6 207.751 156.85 209.351 149.85 202.401Z" fill="white"/>
<path d="M95.05 123.25C92.9 137.65 94.9 153.9 105.85 163.45C116.8 173 136.4 175.5 150.3 171.35C156.5 169.5 162.2 166.3 168.45 164.6C174.7 162.9 181.9 162.9 186.95 166.95C192.8 171.7 193.7 180.9 190.2 187.6C186.7 194.25 179.65 198.55 172.35 200.5C165.05 202.45 157.4 202.3 149.85 202.2C160.45 206 172.45 206.6 182.95 202.5C193.45 198.4 202.2 189.35 204.6 178.3C207 167.3 202.25 154.7 192.45 149.1C186.5 145.7 181.9 142.75 173.85 141.65C167.05 140.75 160.6 141.4 153.8 141.45C145.05 141.5 138.9 141.8 132.65 132.35L128.15 122.5L95.05 123.25Z" fill="#E8505B"/>
<g opacity="0.3">
<path opacity="0.3" d="M95.05 123.25C92.9 137.65 94.9 153.9 105.85 163.45C116.8 173 136.4 175.5 150.3 171.35C156.5 169.5 162.2 166.3 168.45 164.6C174.7 162.9 181.9 162.9 186.95 166.95C192.8 171.7 193.7 180.9 190.2 187.6C186.7 194.25 179.65 198.55 172.35 200.5C165.05 202.45 157.4 202.3 149.85 202.2C160.45 206 172.45 206.6 182.95 202.5C193.45 198.4 202.2 189.35 204.6 178.3C207 167.3 202.25 154.7 192.45 149.1C186.5 145.7 181.9 142.75 173.85 141.65C167.05 140.75 160.6 141.4 153.8 141.45C145.05 141.5 138.9 141.8 132.65 132.35L128.15 122.5L95.05 123.25Z" fill="black"/>
</g>
<path d="M178.75 161C178.75 161.05 178.15 161 177.15 161C176.15 161 174.8 161 173.25 161.05C171.75 161.15 170.35 161.3 169.35 161.4C168.35 161.55 167.75 161.65 167.75 161.6C167.75 161.55 168.35 161.4 169.35 161.25C170.35 161.05 171.7 160.9 173.25 160.8C174.8 160.7 176.15 160.75 177.15 160.8C178.15 160.85 178.75 160.95 178.75 161Z" fill="white"/>
<path d="M189.45 165.4C189.4 165.45 189.15 164.65 188.45 164.1C187.75 163.55 186.95 163.5 187 163.4C187 163.35 187.2 163.35 187.5 163.35C187.8 163.4 188.25 163.55 188.6 163.85C189 164.15 189.25 164.55 189.35 164.85C189.5 165.2 189.5 165.4 189.45 165.4Z" fill="white"/>
<path d="M87.4502 78.5508L72.1502 99.9008C69.9002 103.001 70.4502 107.301 73.3502 109.801L88.1502 122.451L92.7502 116.251L83.3002 103.551L92.7502 93.5008L87.4502 78.5508Z" fill="#B78876"/>
<path d="M83.0499 118.301L89.3999 111.801L92.7499 116.251L88.1499 122.451L83.0499 118.301Z" fill="#FF6E76"/>
<path d="M114.5 71.7004C115 71.7504 115.65 71.8504 116.5 71.9504C116.55 71.9504 116.6 71.9504 116.65 71.9504C123.2 72.7504 127.95 78.6004 127.55 85.2004L126.9 95.5004C126.9 95.5004 126.2 113.25 126.1 113.2L128.75 125.4L94.6501 126.45L95.5501 114.1L91.3001 107.35L91.5001 94.7004L86.5001 81.0004C87.5501 77.5004 91.3001 73.6504 96.5501 72.6504C98.2001 72.3504 99.8501 71.7504 101.8 71.6504C105.5 74.5504 110.7 74.5504 114.45 71.7504L114.5 71.7004Z" fill="#B78876"/>
<path d="M94.9003 113.599L95.2003 115.449L107.05 115.899L101.75 82.6992L94.9003 113.599Z" fill="#AA6550"/>
<path d="M101.2 71.5L105.25 114.05L91.2503 113.45V95.4C91.2503 95.4 96.8503 83.4 87.4003 78.9C87.4003 78.9 88.8003 74.65 92.0503 73.8C95.3503 72.95 101.2 71.5 101.2 71.5Z" fill="#FF6E76"/>
<path d="M115.7 80.4004C115.65 80.1004 118.55 113.6 118.55 113.6C118.6 113.9 118.65 114.2 118.95 114.35C119.1 114.45 119.3 114.45 119.5 114.45C121.6 114.35 123.7 114.25 125.85 114.15C125.9 113.35 125.95 112.5 126 111.7C125.15 111.6 124.35 111 123.85 110.3C123.35 109.6 123 108.75 122.7 107.95C119.75 100.3 116.8 92.4504 116.95 84.2504" fill="#AA6550"/>
<path d="M114.5 71.7003L120.15 112.15H129.9L124.45 76.1003C124.45 76.0503 121.8 71.3503 114.5 71.7003Z" fill="#FF6E76"/>
<path d="M94.6501 126.5L129.4 125.1L126.9 116.5H95.0001L94.6501 126.5Z" fill="#E8505B"/>
<path d="M92.7499 116.249L98.0499 114.149C98.4499 114.099 98.8499 114.199 99.1499 114.449C100.3 115.399 103.05 117.799 103.95 119.199C104.85 120.549 103.55 121.449 103.05 120.899C97.6999 115.199 97.8999 118.499 97.8999 118.499C97.8999 118.499 102.55 122.249 102 122.899C101.45 123.549 101.25 123.799 100.3 123.099C99.2499 122.299 96.4498 120.349 96.4498 120.349C96.4498 120.349 99.7998 122.999 100.2 123.849C100.55 124.599 99.7998 125.249 99.0998 125.049C98.3998 124.799 94.1998 121.599 94.1998 121.599C94.1998 121.599 92.1999 123.999 90.9999 124.599C89.7999 125.199 88.0999 122.449 88.0999 122.449L92.7499 116.249Z" fill="#B78876"/>
<path d="M92.8998 116.25C92.8998 116.25 92.9498 116.25 92.9998 116.2C93.0998 116.15 93.1998 116.1 93.3498 116.05C93.6498 115.9 94.0998 115.75 94.6998 115.5C95.2998 115.25 95.9998 115 96.7998 114.65C97.1998 114.5 97.6498 114.3 98.1498 114.15C98.3998 114.05 98.7498 114.1 98.9498 114.3C99.1498 114.45 99.3498 114.65 99.5498 114.85C100.4 115.6 101.3 116.4 102.3 117.25C102.8 117.7 103.3 118.1 103.8 118.6C104.05 118.85 104.3 119.15 104.4 119.55C104.5 119.9 104.5 120.35 104.3 120.7C104.2 120.9 104.05 121.05 103.8 121.1C103.55 121.2 103.35 121.1 103.15 121C102.8 120.8 102.5 120.55 102.2 120.3C101.6 119.8 101.1 119.2 100.5 118.65C100.2 118.4 99.8998 118.15 99.4998 118C99.2998 117.9 99.1498 117.85 98.9498 117.8C98.8498 117.75 98.7998 117.75 98.6998 117.75C98.5998 117.75 98.4998 117.75 98.4498 117.8C98.2998 117.85 98.0998 117.95 98.0498 118.1C97.9998 118.25 98.0498 118.4 98.1498 118.55C98.3998 118.85 98.6998 119.15 98.9998 119.4C99.8498 120.1 100.75 120.65 101.45 121.5C101.6 121.7 101.8 121.9 101.9 122.15C102.05 122.4 102.15 122.7 102.05 123C101.95 123.3 101.7 123.5 101.4 123.55C101.1 123.6 100.85 123.6 100.6 123.55H100.55C99.0998 122.45 97.6998 121.4 96.4498 120.45L96.5998 120.25C97.3498 120.9 98.0498 121.55 98.6998 122.15C99.0498 122.45 99.3498 122.75 99.6498 123.05C99.9498 123.35 100.25 123.65 100.4 124.05C100.45 124.25 100.45 124.5 100.3 124.7C100.15 124.9 99.9498 125 99.7498 125.05C99.3498 125.15 98.9498 125.05 98.6498 124.85C97.9998 124.55 97.5498 124.1 97.0498 123.75C96.7998 123.6 96.5998 123.45 96.3498 123.3C96.0998 123.15 95.9498 123 95.7498 122.85C95.3998 122.55 95.0998 122.3 94.8998 122.1C94.6498 121.9 94.4498 121.75 94.3498 121.7C94.1998 121.6 94.1498 121.55 94.1498 121.55C94.1498 121.55 94.2498 121.6 94.3498 121.65C94.4998 121.75 94.6998 121.85 94.9498 122.05C95.1998 122.25 95.4998 122.5 95.8498 122.75C95.9998 122.9 96.1998 123.05 96.4498 123.15C96.6998 123.25 96.8998 123.4 97.1498 123.6C97.6498 123.9 98.0998 124.35 98.7498 124.65C99.0498 124.8 99.3998 124.9 99.7498 124.8C99.8998 124.75 100.05 124.65 100.15 124.55C100.25 124.4 100.25 124.25 100.2 124.05C100.1 123.7 99.7498 123.4 99.4498 123.1C99.1498 122.8 98.8498 122.5 98.4998 122.2C97.8498 121.6 97.1498 120.95 96.3998 120.3L96.5498 120.1C97.8498 121.05 99.1998 122.1 100.7 123.2H100.65C100.9 123.25 101.1 123.3 101.35 123.2C101.55 123.15 101.75 123 101.8 122.8C101.95 122.4 101.55 121.95 101.25 121.55C100.55 120.75 99.6498 120.2 98.7998 119.5C98.4498 119.2 98.1498 118.95 97.8998 118.6C97.7998 118.4 97.6498 118.15 97.7498 117.9C97.8498 117.65 98.0998 117.55 98.2998 117.45C98.3998 117.4 98.4998 117.4 98.6498 117.4C98.7498 117.4 98.8998 117.45 98.9998 117.45C99.1998 117.5 99.3998 117.6 99.5998 117.7C99.9998 117.9 100.35 118.15 100.65 118.4C101.25 118.95 101.75 119.55 102.35 120.05C102.65 120.3 102.9 120.55 103.25 120.75C103.4 120.85 103.55 120.9 103.7 120.85C103.85 120.8 103.95 120.7 104.05 120.55C104.2 120.25 104.25 119.9 104.15 119.6C104.05 119.3 103.85 119 103.6 118.75C103.1 118.25 102.6 117.85 102.1 117.4C101.15 116.5 100.2 115.7 99.3998 114.95C99.1998 114.75 98.9998 114.55 98.7998 114.4C98.5998 114.25 98.3498 114.2 98.1498 114.25C97.6998 114.4 97.2498 114.6 96.8498 114.75C96.0498 115.05 95.2998 115.35 94.7498 115.55C94.1998 115.75 93.7498 115.95 93.3998 116.05C93.2498 116.1 93.1498 116.15 93.0498 116.15C92.9498 116.25 92.8998 116.25 92.8998 116.25Z" fill="#AA6550"/>
<path d="M88.0264 121.083C88.084 121.024 87.4385 120.307 86.5846 119.481C85.7307 118.656 84.9919 118.036 84.9343 118.095C84.8767 118.155 85.5223 118.872 86.3761 119.697C87.23 120.522 87.9689 121.143 88.0264 121.083Z" fill="white"/>
<path d="M164.05 77.6494C166.6 73.8494 168.55 70.5994 169.7 66.1994C169.8 65.7994 169.9 65.3994 170.15 65.1494C170.4 64.8494 170.9 64.6994 171.2 64.9494C171.55 65.1994 171.5 65.7494 171.4 66.1994C171.1 67.6494 170.6 69.1994 170.25 70.6494C170.8 69.3994 171.75 66.9994 172.3 65.7494C172.45 65.3994 172.6 65.0494 172.9 64.7994C173.2 64.5494 173.65 64.4494 173.95 64.6494C174.45 64.9494 174.3 65.6994 174.15 66.2494C173.75 67.3994 172.8 69.9994 172.4 71.1494C172.95 70.0994 173.7 68.3994 174.2 67.3494C174.5 66.7994 174.95 66.1994 175.5 66.3494C175.9 66.4494 176.15 66.8994 176.15 67.2994C176.15 67.6994 175.95 68.0994 175.75 68.4994C175.35 69.2494 175.4 69.2994 175 70.0494C174.85 70.3494 174.05 71.9494 174.05 71.9494C174.05 71.9494 175 71.1494 175.65 71.8494C175.95 72.1994 175.75 72.7494 175.55 73.1994C175.55 73.1994 174.7 75.9494 173.95 77.2994C172.85 79.3994 171.3 80.2494 171.25 80.0994L169.8 82.3494L164.05 77.6494Z" fill="#B78876"/>
<path d="M174.25 71.9004C173.8 72.8504 173.3 73.8004 172.85 74.7004C172.75 74.9504 172.6 75.1504 172.6 75.4504C172.55 75.7004 172.65 76.0004 172.85 76.1504C173.05 76.3004 173.35 76.3504 173.6 76.2504C173.85 76.1504 174.05 75.9504 174.25 75.7504C174.45 75.5004 175.4 73.6004 175.5 73.3504" fill="#B78876"/>
<path d="M175.5 73.3504C175.55 73.3504 175.35 73.8504 175 74.6004C174.8 74.9504 174.65 75.4004 174.3 75.9004C174.1 76.1504 173.9 76.3504 173.55 76.4504C173.4 76.5004 173.2 76.5004 173.05 76.4504C172.85 76.4004 172.7 76.3004 172.6 76.1504C172.4 75.8004 172.45 75.4504 172.55 75.1504C172.65 74.8504 172.8 74.6004 172.95 74.3504C173.2 73.9004 173.4 73.4504 173.6 73.0504C174 72.3504 174.25 71.9004 174.3 71.9004C174.35 71.9004 174.15 72.4004 173.8 73.1504C173.6 73.5504 173.4 74.0004 173.2 74.4504C173.1 74.7004 172.95 74.9504 172.85 75.2004C172.75 75.4504 172.75 75.7504 172.85 75.9504C173 76.1504 173.25 76.2004 173.5 76.1504C173.75 76.0504 173.95 75.9004 174.15 75.7004C174.45 75.3004 174.65 74.8004 174.85 74.4504C175.2 73.8004 175.45 73.3504 175.5 73.3504Z" fill="#AA6550"/>
<path d="M164.85 77.4996C165.3 77.9496 166.05 77.8496 166.6 77.5496C167.15 77.2496 167.55 76.7496 168.1 76.3996C169.65 75.3496 171.85 75.6496 173.35 74.4996C173.55 74.3496 173.75 74.0996 173.65 73.8496C173.55 73.6496 173.25 73.5996 173 73.5996C170.95 73.5996 168.85 73.6496 166.8 73.6496" fill="#B78876"/>
<path d="M166.8 73.5996C166.8 73.5996 167.05 73.5496 167.45 73.5496C167.9 73.5496 168.5 73.4996 169.3 73.4996C170.1 73.4996 171 73.4496 172 73.4496C172.25 73.4496 172.5 73.4496 172.8 73.4496C173.05 73.4496 173.4 73.3496 173.7 73.6496C173.85 73.7996 173.9 74.0496 173.8 74.2496C173.7 74.3996 173.6 74.5496 173.5 74.6496C173.25 74.8496 173 74.9996 172.7 75.0996C171.55 75.5996 170.45 75.6496 169.45 75.9496C168.95 76.0996 168.55 76.2496 168.15 76.4996C167.8 76.7496 167.5 77.0496 167.15 77.2496C166.55 77.7496 165.85 77.9496 165.4 77.8496C164.95 77.7496 164.8 77.4996 164.8 77.4996C164.8 77.4496 165 77.6496 165.4 77.6996C165.8 77.7496 166.4 77.5496 167 77.0496C167.3 76.7996 167.6 76.4996 168 76.2496C168.4 75.9996 168.85 75.7996 169.35 75.5996C170.35 75.2996 171.5 75.1996 172.55 74.6996C172.8 74.5996 173.05 74.4496 173.25 74.2996C173.45 74.1496 173.55 73.8996 173.45 73.8496C173.35 73.7496 173.05 73.7496 172.8 73.7496C172.55 73.7496 172.25 73.7496 172 73.7496C171 73.7496 170.1 73.7496 169.3 73.7496C168.55 73.7496 167.9 73.7496 167.45 73.6996C167.05 73.6496 166.8 73.6496 166.8 73.5996Z" fill="#AA6550"/>
<path d="M124.45 75.75L145.6 90.85L164.1 77.6L170.15 82.1C170.15 82.1 154.6 103 146.5 105.3C146.5 105.3 144.65 105.55 142.65 104.9C140.7 104.2 126.85 96.45 126.85 96.45L124.45 75.75Z" fill="#B78876"/>
<path d="M164.15 77.5996L170.2 82.0996L167.45 85.5996L160.25 80.3996L164.15 77.5996Z" fill="#FF6E76"/>
<path d="M164.2 77.999C164.25 78.049 163.6 78.749 162.75 79.499C162.3 79.899 161.9 80.199 161.6 80.449C161.45 80.549 161.3 80.649 161.2 80.699C161.15 80.699 161.1 80.749 161.05 80.749C161 80.749 161 80.699 161 80.699C161 80.749 161.7 80.099 162.55 79.299C163.4 78.549 164.15 77.949 164.2 77.999Z" fill="white"/>
<path d="M168.731 64.5979C168.768 64.5234 167.226 63.6999 165.289 62.7587C163.351 61.8174 161.752 61.1148 161.715 61.1893C161.679 61.2638 163.22 62.0873 165.158 63.0285C167.095 63.9698 168.695 64.6724 168.731 64.5979Z" fill="#263238"/>
<path d="M171.631 62.8949C171.706 62.8596 170.651 60.4617 169.274 57.539C167.897 54.6164 166.72 52.2758 166.645 52.3111C166.57 52.3464 167.626 54.7443 169.003 57.6669C170.379 60.5895 171.556 62.9302 171.631 62.8949Z" fill="#263238"/>
<path d="M175.588 57.6763C176.221 55.4448 176.67 53.6175 176.59 53.5949C176.51 53.5723 175.933 55.3629 175.299 57.5944C174.666 59.8258 174.217 61.6531 174.297 61.6757C174.377 61.6983 174.955 59.9077 175.588 57.6763Z" fill="#263238"/>
<path d="M180.35 61.2483C180.4 61.2983 179.65 61.8483 178.85 62.5483C178.05 63.2983 177.45 63.9483 177.35 63.8983C177.3 63.8483 177.8 63.0983 178.65 62.3483C179.5 61.5983 180.35 61.1983 180.35 61.2483Z" fill="#263238"/>
<path d="M99.6999 55.6503C97.9999 56.0503 96.0999 55.3003 94.8999 53.9503C93.6999 52.6003 93.0499 50.8003 92.8999 48.9503C92.4999 45.0503 93.9999 41.1003 96.5999 38.3003C99.1499 35.4503 102.7 33.7003 106.4 32.9503C109.25 32.3503 112.25 32.4003 115 33.3003C117.75 34.2003 120.3 36.1003 121.75 38.7003C122.95 40.8003 123.45 43.2503 123.4 45.7003C123.35 47.9003 122.9 50.1003 121.65 51.8503C120.4 53.6003 118.3 54.8003 116.25 54.4503" fill="#FF6E76"/>
<path d="M101.95 77.0493L114.75 76.4493L114.1 66.4993C114.1 66.4993 119.05 65.7493 119.1 60.7993C119.15 55.8493 118.3 44.5493 118.3 44.5493C112.6 42.0993 106 42.8993 101.1 46.6993L100.35 47.2493L101.95 77.0493Z" fill="#B78876"/>
<path d="M114.1 66.4496C114.1 66.4496 111 66.6996 107.65 64.5996C107.65 64.5996 109.15 68.1496 114.1 67.6996V66.4496Z" fill="#AA6550"/>
<path d="M100.95 52.4C100.85 52.35 97.5497 51.4 97.6497 54.75C97.7497 58.1 101.1 57.3 101.1 57.2C101.15 57.15 100.95 52.4 100.95 52.4Z" fill="#B78876"/>
<path d="M100.05 56.0008C100.05 56.0008 99.9996 56.0508 99.8996 56.1008C99.7996 56.1508 99.6496 56.2008 99.4496 56.1008C99.0996 56.0008 98.7496 55.4008 98.7496 54.8008C98.7496 54.5008 98.7996 54.2008 98.8996 53.9508C98.9996 53.7008 99.1496 53.5008 99.3496 53.5008C99.5496 53.4508 99.6496 53.5508 99.6996 53.6508C99.7496 53.7508 99.7496 53.8008 99.7496 53.8008C99.7496 53.8008 99.7996 53.7508 99.7996 53.6008C99.7996 53.5508 99.7496 53.4508 99.6496 53.4008C99.5496 53.3508 99.4496 53.3008 99.2996 53.3008C99.0496 53.3508 98.7996 53.5508 98.6996 53.8508C98.5496 54.1008 98.4996 54.4508 98.5496 54.8008C98.5996 55.5008 98.9496 56.1008 99.4496 56.2508C99.6996 56.3008 99.8996 56.2508 99.9996 56.1508C100.05 56.1008 100.1 56.0008 100.05 56.0008Z" fill="#AA6550"/>
<path d="M116.5 52.2008C116.5 52.5508 116.2 52.9008 115.8 52.9008C115.4 52.9008 115.1 52.6508 115.05 52.2508C115.05 51.9008 115.35 51.5508 115.75 51.5508C116.15 51.5508 116.5 51.8508 116.5 52.2008Z" fill="#263238"/>
<path d="M117.35 51.5C117.25 51.6 116.75 51.2 115.95 51.2C115.2 51.2 114.65 51.6 114.55 51.5C114.5 51.45 114.6 51.3 114.85 51.1C115.1 50.9 115.5 50.75 115.95 50.75C116.4 50.75 116.8 50.95 117.05 51.1C117.3 51.3 117.4 51.45 117.35 51.5Z" fill="#263238"/>
<path d="M109.1 52.3004C109.1 52.6504 108.8 53.0004 108.4 53.0004C108 53.0004 107.7 52.7504 107.65 52.3504C107.65 52.0004 107.95 51.6504 108.35 51.6504C108.75 51.6504 109.05 51.9504 109.1 52.3004Z" fill="#263238"/>
<path d="M109.9 51.6504C109.8 51.7504 109.3 51.3504 108.5 51.3504C107.75 51.3504 107.2 51.7504 107.1 51.6504C107.05 51.6004 107.15 51.4504 107.4 51.2504C107.65 51.0504 108.05 50.9004 108.5 50.9004C108.95 50.9004 109.35 51.1004 109.6 51.2504C109.85 51.4504 109.95 51.6004 109.9 51.6504Z" fill="#263238"/>
<path d="M112.65 57.2999C112.65 57.2499 113.1 57.1999 113.9 57.0999C114.1 57.0999 114.3 57.0499 114.3 56.8999C114.35 56.7499 114.25 56.5499 114.15 56.3499C113.95 55.8999 113.8 55.3999 113.6 54.8999C112.8 52.7999 112.25 51.0999 112.3 51.0499C112.4 50.9999 113.1 52.6999 113.9 54.7999C114.1 55.2999 114.25 55.7999 114.45 56.2999C114.5 56.4999 114.65 56.7499 114.55 57.0499C114.5 57.1999 114.35 57.2999 114.25 57.3499C114.15 57.3999 114 57.3999 113.9 57.3999C113.15 57.2999 112.65 57.2999 112.65 57.2999Z" fill="#263238"/>
<path d="M110.45 57.8008C110.55 57.8008 110.55 58.6008 111.3 59.2008C112 59.8008 112.9 59.7008 112.9 59.8008C112.9 59.8508 112.7 59.9508 112.35 59.9508C112 59.9508 111.45 59.8508 111.05 59.5008C110.6 59.1508 110.45 58.6508 110.4 58.3508C110.3 58.0008 110.35 57.8008 110.45 57.8008Z" fill="#263238"/>
<path d="M110.25 49.6992C110.2 49.8992 109.4 49.7992 108.55 49.8992C107.65 49.9992 106.95 50.2492 106.8 50.0492C106.75 49.9492 106.85 49.7492 107.15 49.5492C107.45 49.3492 107.9 49.1492 108.45 49.0992C109 49.0492 109.45 49.1492 109.8 49.2492C110.1 49.4492 110.3 49.5992 110.25 49.6992Z" fill="#263238"/>
<path d="M117.25 50C117.1 50.15 116.6 50 115.95 50C115.3 49.95 114.8 50.1 114.65 49.95C114.6 49.85 114.7 49.7 114.9 49.55C115.15 49.4 115.5 49.25 115.95 49.25C116.4 49.25 116.75 49.4 116.95 49.6C117.25 49.75 117.3 49.9 117.25 50Z" fill="#263238"/>
<path d="M100.55 52.3511C105 49.9511 108.5 46.4511 112.2 43.0011C114.4 45.5011 117 47.6011 119.85 49.3011C119.75 47.6511 119.6 45.9511 118.75 44.5511C117.8 43.0511 116.05 42.2011 114.3 41.9511C112.55 41.7011 110.75 41.9011 109 42.2011C106.5 42.6011 103.9 43.1011 101.7 44.4011C100.65 45.0011 99.6997 45.8011 99.2497 46.9511C98.5497 48.7011 98.9997 50.6011 99.7497 52.3511" fill="#E8505B"/>
<path d="M112.85 40.6503C113.1 39.3503 113.15 38.0003 112.8 36.7003C112.45 35.4003 111.75 34.2003 110.7 33.4003C109.6 32.6003 108.2 32.2503 106.85 32.1503C105.5 32.1003 104.1 32.3003 102.8 32.5503C103.3 34.3003 104.5 35.8503 106.1 36.7503C107.7 37.6503 109.65 37.9003 111.4 37.4003C111.8 37.3003 112.25 37.1503 112.55 37.4503C112.75 37.6003 112.8 37.9003 112.8 38.1503C112.9 39.0003 112.75 39.9003 112.5 40.7003" fill="#455A64"/>
<path d="M113.875 42.095C114.06 41.2026 113.486 40.3297 112.593 40.1452C111.701 39.9608 110.828 40.5347 110.644 41.4271C110.459 42.3195 111.033 43.1925 111.925 43.3769C112.818 43.5614 113.691 42.9874 113.875 42.095Z" fill="#263238"/>
<path d="M111.6 42.6502C111.6 42.7002 111.4 42.6502 111.2 42.4502C111 42.2502 110.8 41.9002 110.9 41.4502C110.95 41.0002 111.25 40.7002 111.5 40.6002C111.75 40.4502 111.9 40.5002 111.9 40.5002C111.9 40.5502 111.75 40.6002 111.6 40.7502C111.4 40.9002 111.2 41.1502 111.15 41.5002C111.1 41.8502 111.2 42.1502 111.35 42.3502C111.5 42.5502 111.65 42.6502 111.6 42.6502Z" fill="white"/>
<path d="M102.75 32.5996C102.75 32.5996 102.9 32.5996 103.2 32.6496C103.5 32.6996 103.95 32.7496 104.45 32.8496C105.5 33.0496 106.95 33.4496 108.5 34.0996C109.25 34.3996 110 34.7496 110.6 35.0996C111.25 35.4496 111.75 35.8496 112.15 36.2996C112.5 36.6996 112.75 37.0996 112.85 37.3996C112.95 37.6996 112.95 37.8496 112.95 37.8496C112.9 37.8496 112.8 37.1496 112.05 36.3996C111.3 35.5996 109.95 34.9496 108.45 34.3496C106.95 33.6996 105.5 33.2996 104.45 33.0496C103.4 32.7496 102.7 32.6496 102.75 32.5996Z" fill="#263238"/>
<path d="M94.6 53.55C94.6 53.55 94.55 53.5 94.5 53.35C94.45 53.2 94.35 53 94.3 52.75C94.2 52.2 94.1 51.35 94.4 50.35C94.55 49.85 94.75 49.35 95.1 48.85C95.45 48.35 95.9 47.9 96.4 47.45C97.45 46.6 98.8 45.9 100.2 45.35C103.05 44.2 105.7 43.35 107.65 42.8C108.6 42.55 109.4 42.35 109.95 42.2C110.2 42.15 110.45 42.1 110.6 42.05C110.75 42 110.8 42 110.85 42C110.85 42 110.55 42.1 110 42.25C109.4 42.4 108.65 42.65 107.7 42.9C105.75 43.5 103.15 44.35 100.3 45.5C98.9 46.1 97.55 46.75 96.55 47.55C96.05 47.95 95.6 48.4 95.25 48.9C94.9 49.35 94.7 49.85 94.55 50.35C94.25 51.3 94.3 52.15 94.4 52.65C94.5 53.25 94.6 53.55 94.6 53.55Z" fill="#263238"/>
<path d="M95.5999 40.2508C95.5999 40.2508 95.5999 40.2008 95.6999 40.1008C95.7499 40.0008 95.8499 39.9008 95.9999 39.7508C96.2999 39.4508 96.7999 39.1008 97.5499 38.8508C98.2499 38.6008 99.1999 38.5008 100.15 38.6008C101.15 38.7008 102.2 38.9508 103.3 39.1508C105.5 39.6008 107.55 40.0508 109 40.4008C109.7 40.5508 110.25 40.7008 110.7 40.8008C111.1 40.9008 111.3 40.9508 111.3 41.0008C111.3 41.0008 111.05 41.0008 110.65 40.9008C110.2 40.8008 109.6 40.7008 108.9 40.6008C107.45 40.3008 105.45 39.9008 103.2 39.4508C102.1 39.2008 101.05 38.9508 100.05 38.8508C99.0999 38.7508 98.1999 38.8008 97.4999 39.0508C96.7999 39.2508 96.2999 39.6008 95.9999 39.8508C95.7499 40.1008 95.5999 40.3008 95.5999 40.2508Z" fill="#263238"/>
<path d="M121.75 38.6504C121.75 38.6504 121.65 38.5504 121.45 38.4004C121.25 38.2504 120.95 38.0504 120.55 37.9004C120.15 37.7504 119.6 37.7004 119.05 37.8504C118.5 38.0004 117.9 38.2504 117.3 38.5504C116.1 39.2004 115.05 39.9004 114.2 40.2504C113.8 40.4504 113.4 40.5504 113.15 40.6004C112.9 40.6504 112.75 40.6504 112.75 40.6504C112.75 40.6004 113.3 40.5004 114.1 40.1004C114.9 39.7004 115.95 39.0004 117.15 38.3504C117.75 38.0504 118.4 37.8004 119 37.6504C119.6 37.5004 120.2 37.6004 120.6 37.7504C121.05 37.9504 121.3 38.2004 121.5 38.3504C121.65 38.5504 121.75 38.6504 121.75 38.6504Z" fill="#263238"/>
<path d="M122.8 49.5004C122.75 49.5004 122.9 48.7504 122.7 47.5504C122.6 46.9504 122.35 46.2504 121.9 45.6004C121.45 44.9504 120.85 44.3004 120.05 43.8504C118.45 42.9004 116.75 42.5504 115.55 42.3004C114.35 42.0504 113.6 41.9004 113.6 41.9004C113.6 41.9004 113.8 41.9004 114.15 41.9504C114.5 42.0004 115 42.0504 115.6 42.1504C116.8 42.3504 118.55 42.7004 120.2 43.7004C121.05 44.2004 121.7 44.8504 122.15 45.5504C122.6 46.2504 122.85 47.0004 122.9 47.6004C123 48.2004 123 48.7504 122.95 49.1004C122.85 49.3004 122.8 49.5004 122.8 49.5004Z" fill="#263238"/>
<path d="M95.1497 52.2504C95.1497 52.2504 95.0997 52.2004 95.0497 52.1004C94.9997 52.0004 94.8997 51.8004 94.7997 51.6004C94.5997 51.1504 94.3497 50.4504 94.1497 49.5504C93.9497 48.6504 93.8497 47.6004 93.8497 46.3504C93.8497 45.1504 94.0497 43.8004 94.4997 42.5004C94.9497 41.1504 95.6497 40.0004 96.3997 39.1004C97.1497 38.1504 97.9997 37.4504 98.7497 36.9504C99.4997 36.4504 100.15 36.1004 100.65 35.9004C100.9 35.8004 101.05 35.7504 101.2 35.7004C101.35 35.6504 101.4 35.6504 101.4 35.6504C101.45 35.7004 100.35 36.0504 98.8497 37.1004C98.0997 37.6004 97.2997 38.3504 96.5997 39.2504C95.8497 40.1504 95.1997 41.3004 94.7497 42.6004C94.2997 43.9004 94.1497 45.2004 94.0997 46.4004C94.0497 47.6004 94.1497 48.6504 94.3497 49.5504C94.4997 50.4504 94.7497 51.1504 94.8997 51.6004C95.0497 52.0004 95.1997 52.2504 95.1497 52.2504Z" fill="white"/>
<path d="M100.05 56.5994C100.05 56.5494 100.3 56.4994 100.55 56.7494C100.7 56.8494 100.85 57.0494 100.85 57.2994C100.9 57.5494 100.8 57.8494 100.6 57.9994C100.4 58.1994 100.1 58.2994 99.85 58.1994C99.6 58.1494 99.45 57.9494 99.35 57.7994C99.2 57.4494 99.3 57.2494 99.35 57.2494C99.4 57.2494 99.35 57.4494 99.55 57.6994C99.65 57.7994 99.75 57.8994 99.95 57.9494C100.1 57.9994 100.3 57.8994 100.45 57.7994C100.6 57.6494 100.65 57.4494 100.65 57.2994C100.65 57.1494 100.55 56.9994 100.45 56.8494C100.25 56.6494 100.05 56.6494 100.05 56.5994Z" fill="#263238"/>
<path d="M58.7502 216.249C59.2002 214.499 58.0501 212.749 56.7502 211.449C55.4502 210.199 53.9002 209.049 53.2002 207.349C52.1002 204.599 53.5502 201.049 51.6502 198.799C50.5502 197.449 48.6001 197.049 47.6001 195.599C47.1001 194.849 46.9002 193.949 46.7002 193.049C45.6502 188.549 43.3502 184.299 40.1502 180.949C39.9502 184.999 40.8501 189.049 42.7501 192.599C43.5001 194.049 44.4502 195.399 44.7002 197.049C45.1002 199.649 43.7001 202.349 44.3501 204.899C45.1001 207.799 48.4002 209.749 48.5501 212.749C48.7001 215.299 46.5002 217.549 46.6502 220.049C46.7502 221.149 47.2501 222.149 47.8001 223.049C49.8001 226.299 52.7001 228.549 57.0501 228.449L62.4002 228.599L58.7502 216.249Z" fill="#E8505B"/>
<g opacity="0.3">
<g opacity="0.3">
<path opacity="0.3" d="M58.7502 216.249C59.2002 214.499 58.0501 212.749 56.7502 211.449C55.4502 210.199 53.9002 209.049 53.2002 207.349C52.1002 204.599 53.5502 201.049 51.6502 198.799C50.5502 197.449 48.6001 197.049 47.6001 195.599C47.1001 194.849 46.9002 193.949 46.7002 193.049C45.6502 188.549 43.3502 184.299 40.1502 180.949C39.9502 184.999 40.8501 189.049 42.7501 192.599C43.5001 194.049 44.4502 195.399 44.7002 197.049C45.1002 199.649 43.7001 202.349 44.3501 204.899C45.1001 207.799 48.4002 209.749 48.5501 212.749C48.7001 215.299 46.5002 217.549 46.6502 220.049C46.7502 221.149 47.2501 222.149 47.8001 223.049C49.8001 226.299 52.7001 228.549 57.0501 228.449L62.4002 228.599L58.7502 216.249Z" fill="black"/>
</g>
</g>
<path d="M63.6001 228.649C63.6001 228.649 64.1001 228.749 65.1001 228.599C65.6001 228.549 66.1501 228.399 66.8501 228.149C67.5001 227.899 68.2501 227.549 69.0001 226.949C69.3501 226.649 69.7001 226.249 69.9001 225.749C70.1001 225.249 70.1001 224.699 70.1501 224.149C70.2001 223.599 70.1501 222.999 70.2501 222.399C70.3501 221.799 70.5501 221.249 70.9001 220.649C71.5501 219.549 72.5501 218.499 72.9001 216.949C73.2501 215.449 73.0001 213.849 72.7501 212.249C72.5001 210.649 72.2501 208.899 72.8501 207.199C73.4001 205.499 74.6001 203.999 75.1501 202.099C75.7001 200.199 75.4501 198.149 75.5501 196.099C75.6001 195.099 75.8001 194.049 76.2501 193.099C76.7001 192.149 77.2501 191.249 77.7501 190.249C78.7001 188.249 78.8501 185.949 79.1001 183.699C79.2001 182.549 79.3501 181.449 79.4501 180.249C79.5501 179.099 79.6501 177.949 80.0501 176.799C80.3501 175.649 80.8501 174.599 81.3001 173.499C81.5501 172.949 81.7501 172.399 81.9001 171.749C82.0001 171.099 82.0501 170.549 82.0501 169.899C82.1001 168.649 82.0501 167.449 81.9001 166.199C81.7501 164.949 81.5001 163.749 81.4001 162.499C81.4001 162.449 81.4001 162.349 81.3501 162.299L81.3001 162.049L81.1001 162.149C79.9501 162.749 79.0001 163.599 78.2501 164.599C77.5001 165.599 76.9501 166.749 76.5001 167.899C75.6001 170.199 75.3001 172.599 74.8501 174.949C74.4001 177.249 73.8501 179.499 72.7001 181.449C72.1001 182.399 71.4001 183.299 70.8001 184.199C70.2001 185.149 69.6501 186.149 69.5001 187.249C69.2001 189.499 70.4501 191.499 70.2001 193.499C70.1001 194.499 69.7001 195.449 69.2501 196.299C68.7501 197.149 68.2001 197.949 67.6501 198.749C67.1001 199.549 66.6001 200.349 66.2501 201.249C65.8501 202.099 65.6501 203.049 65.6001 203.949C65.5001 205.749 65.7501 207.449 65.6001 209.099C65.5001 210.699 64.9501 212.199 64.3001 213.499C63.6501 214.799 62.9501 215.999 62.3501 217.199C62.0501 217.799 61.7501 218.349 61.5501 218.899C61.3001 219.449 61.2001 220.049 61.1001 220.599C60.9501 221.699 60.9501 222.749 61.1001 223.649C61.3501 225.499 62.0501 226.799 62.6501 227.549C62.8001 227.749 62.9501 227.899 63.1001 227.999C63.2501 228.149 63.3501 228.249 63.4501 228.299C63.5001 228.599 63.6001 228.649 63.6001 228.649C63.6001 228.599 63.1501 228.399 62.5501 227.649C61.9501 226.899 61.3001 225.599 61.0501 223.799C60.9501 222.899 60.9501 221.899 61.1001 220.799C61.2001 220.249 61.3501 219.699 61.5501 219.149C61.7501 218.599 62.0501 218.049 62.3501 217.449C62.9501 216.299 63.6501 215.099 64.3501 213.799C65.0001 212.499 65.6001 210.949 65.7001 209.299C65.8501 207.649 65.5501 205.949 65.7001 204.149C65.7501 203.249 65.9501 202.399 66.3501 201.549C66.7001 200.699 67.2001 199.899 67.7501 199.099C68.3001 198.299 68.8501 197.499 69.3501 196.649C69.8501 195.799 70.2501 194.799 70.3501 193.749C70.6001 191.599 69.3501 189.599 69.6501 187.499C69.8001 186.449 70.3001 185.499 70.9001 184.549C71.5001 183.649 72.2001 182.749 72.8001 181.749C74.0001 179.749 74.6001 177.449 75.0001 175.149C75.4501 172.849 75.7501 170.449 76.6001 168.199C77.0501 167.099 77.5501 165.999 78.3001 164.999C79.0001 164.049 79.9501 163.199 81.0501 162.649L80.8001 162.499C80.8001 162.549 80.8001 162.649 80.8501 162.699C81.0001 163.949 81.2001 165.199 81.3501 166.399C81.5001 167.599 81.5501 168.849 81.5001 170.049C81.4501 170.649 81.4501 171.249 81.3501 171.849C81.2001 172.399 81.0001 172.949 80.7501 173.499C80.3001 174.599 79.8001 175.699 79.5001 176.849C79.1501 177.999 79.0501 179.199 78.9001 180.349C78.8001 181.499 78.6501 182.649 78.5501 183.799C78.3001 186.049 78.1501 188.299 77.2501 190.249C76.8001 191.199 76.2001 192.099 75.7501 193.099C75.3001 194.099 75.1001 195.149 75.0501 196.199C74.9501 198.249 75.2501 200.299 74.7001 202.149C74.1501 203.999 73.0001 205.499 72.4001 207.249C71.8001 208.999 72.0501 210.799 72.3001 212.399C72.5501 213.999 72.8501 215.599 72.5001 216.999C72.2001 218.449 71.2001 219.499 70.5501 220.649C70.2001 221.199 70.0001 221.849 69.9001 222.449C69.8001 223.049 69.8001 223.649 69.8001 224.199C69.8001 224.749 69.7501 225.299 69.6001 225.749C69.4501 226.199 69.1001 226.599 68.7501 226.899C68.0501 227.499 67.3001 227.849 66.6501 228.099C66.0001 228.349 65.4001 228.499 64.9501 228.599C64.5001 228.699 64.1001 228.699 63.8501 228.699C63.7001 228.649 63.6001 228.649 63.6001 228.649Z" fill="#037486"/>
<path d="M80.1502 165.398C80.1502 165.398 80.1502 165.448 80.1002 165.548C80.0502 165.698 80.0502 165.848 80.0002 166.048C79.9002 166.448 79.7502 167.098 79.6002 167.898C79.4002 168.698 78.9002 169.598 78.5002 170.698C78.0502 171.798 77.6502 173.098 77.2502 174.498C76.8502 175.948 76.5002 177.498 76.1502 179.198C75.7502 180.898 75.4002 182.698 74.4502 184.448C74.0002 185.298 73.5502 186.198 73.1502 187.148C72.7502 188.098 72.5502 189.148 72.4002 190.248C72.1502 192.348 71.8002 194.548 71.3002 196.748C70.2502 201.148 69.2502 205.348 68.3502 209.148C67.4002 212.948 66.6002 216.398 65.8502 219.248C65.1501 222.098 64.6001 224.448 64.2001 226.098C64.0001 226.898 63.8502 227.498 63.7502 227.948C63.7002 228.148 63.6502 228.298 63.6502 228.448C63.6502 228.548 63.6002 228.598 63.6502 228.598C63.6502 228.598 63.7002 228.548 63.7002 228.448C63.7502 228.298 63.8001 228.148 63.8501 227.948C63.9501 227.498 64.1501 226.898 64.3501 226.098C64.7501 224.448 65.3501 222.148 66.1002 219.298C66.8502 216.398 67.7002 212.998 68.6502 209.198C69.5502 205.398 70.6002 201.198 71.6502 196.798C72.1502 194.598 72.5502 192.398 72.7502 190.298C72.9002 189.248 73.1002 188.248 73.5002 187.298C73.8502 186.348 74.3502 185.498 74.8002 184.598C75.7502 182.848 76.1002 180.948 76.5002 179.248C76.8502 177.548 77.2002 175.948 77.6002 174.548C78.0002 173.098 78.4002 171.848 78.8002 170.748C79.2002 169.648 79.6502 168.748 79.8502 167.898C80.0502 167.098 80.1502 166.448 80.2002 165.998C80.2502 165.798 80.2502 165.648 80.3002 165.498C80.1502 165.448 80.1502 165.398 80.1502 165.398Z" fill="#037486"/>
<path d="M64.55 228.649C68.05 226.549 69 220.249 67.55 216.449C66.05 212.649 63.5 209.199 63.05 205.149C62.75 202.049 63.75 198.849 63 195.799C62 191.699 57.95 188.549 58 184.299C58 181.949 59.35 179.699 59.25 177.299C59.1 174.399 56.85 172.099 55.45 169.549C53.3 165.649 53.15 160.999 52.4 156.649C51.65 152.249 49.95 147.549 46.05 145.449C45.5 149.199 44.55 151.749 44.85 156.799C44.95 158.599 47.1 162.049 47.4 166.049C47.6 168.449 47.7 170.799 47.9 173.199C48.05 175.499 48.2 177.849 49.05 180.049C49.7 181.699 50.75 183.199 51.2 184.899C52.1 188.099 50.95 191.599 51.7 194.899C52.3 197.649 54.25 200.049 54.65 202.849C55.2 206.799 52.7 210.899 54 214.649C54.65 216.499 56.2 217.999 56.65 219.899C57 221.399 56.65 222.999 56.95 224.499C57.45 226.799 62.05 228.849 64.55 228.649Z" fill="#E8505B"/>
<path d="M47.0001 149.1C47.0001 149.1 47.0001 149.15 47.0001 149.3C47.0001 149.45 47.0501 149.65 47.1001 149.9C47.2001 150.45 47.3001 151.25 47.4501 152.25C47.6501 153.3 48.2001 154.45 48.6001 155.85C49.0501 157.25 49.5001 158.85 49.9001 160.65C50.3001 162.45 50.6501 164.45 51.0001 166.55C51.3501 168.65 51.7501 171 52.8501 173.25C53.3501 174.35 53.9001 175.5 54.3001 176.65C54.7501 177.85 54.9501 179.1 55.0501 180.45C55.2501 183.1 55.6001 185.85 56.1001 188.6C57.2001 194.1 58.2501 199.4 59.2001 204.15C60.2001 208.9 61.1001 213.2 61.9001 216.8C62.6501 220.4 63.3001 223.3 63.7501 225.35C63.9501 226.35 64.1501 227.1 64.2501 227.65C64.3001 227.9 64.3501 228.1 64.4001 228.25C64.4501 228.4 64.4501 228.6 64.4501 228.6C64.4501 228.6 64.4501 228.35 64.4001 228.25C64.3501 228.1 64.3501 227.9 64.3001 227.65C64.2001 227.1 64.0501 226.3 63.8501 225.3C63.4501 223.25 62.8501 220.35 62.1001 216.75C61.3501 213.15 60.4501 208.85 59.5001 204.05C58.5501 199.25 57.5001 194 56.4001 188.5C55.9001 185.75 55.5501 183.05 55.3001 180.4C55.1501 179.1 54.9501 177.75 54.5001 176.55C54.0501 175.35 53.5001 174.2 53.0001 173.1C51.9501 170.9 51.5501 168.6 51.1501 166.5C50.8001 164.35 50.4001 162.35 50.0001 160.6C49.6001 158.8 49.1001 157.2 48.6501 155.8C48.2001 154.4 47.6501 153.25 47.4501 152.25C47.2501 151.25 47.1501 150.45 47.0001 149.9C46.9501 149.65 46.9001 149.45 46.9001 149.3C47.0001 149.2 47.0001 149.1 47.0001 149.1Z" fill="#263238"/>
<path d="M116.35 218.849C116.55 220.149 116.4 221.549 115.6 222.599C113.9 224.949 110.05 224.749 108.35 227.099C108.05 227.499 107.85 227.999 108 228.499C108.2 229.099 108.95 229.349 109.55 229.499C110.8 229.799 112.05 230.099 113.3 230.299C117.1 230.899 120.95 230.749 124.75 230.199C126.45 229.949 128.15 229.699 129.7 229.049C129.85 228.999 130.05 228.899 130.15 228.749C130.25 228.549 130.2 228.349 130.1 228.149C129.65 227.149 128.7 226.499 127.65 226.149C126.65 225.749 125.55 225.549 124.55 225.149C121.95 223.999 120.25 221.049 120.6 218.199" fill="#037486"/>
<path d="M145.15 201.949C143.6 200.399 139.25 200.749 137.5 201.099C135.75 201.499 129.65 202.799 127.4 203.249C125.15 203.699 123.1 201.349 123.1 201.349C123.1 201.349 123.4 200.899 123.55 200.199C123.7 199.499 122.1 197.699 122.1 197.699C122.1 197.699 122.7 196.699 123 195.649C123.3 194.599 120.7 194.299 120.7 194.299C120.7 194.299 120.5 193.399 120 190.849C119.5 188.249 118.2 187.949 116.8 188.649C115.25 189.399 114.95 194.549 114.95 194.549C114.95 194.549 112.95 195.099 112.8 195.399C112.65 195.699 113.65 197.249 114 197.749C114.4 198.299 113.15 198.899 112.45 199.649C111.75 200.399 112.45 200.949 112.45 200.949C112.45 200.949 111.55 202.999 108.4 203.299C105.25 203.599 103.85 203.149 99.0998 199.649C98.4498 199.149 97.8498 198.799 97.3498 198.449C95.2998 197.199 92.7998 196.899 90.5998 197.749C86.2498 199.499 87.1998 204.199 87.1998 204.199C88.1998 209.849 93.8998 209.099 95.1498 208.699C96.3498 208.299 98.6498 205.949 98.6498 205.949C98.6498 205.949 99.0498 207.299 99.9998 207.149C101 206.999 100.9 205.699 100.9 205.699L103.55 209.649C106.9 214.149 112.55 218.599 118.15 218.899C123.7 219.199 133.05 210.649 133.4 210.199C133.8 209.749 138.15 205.749 142.1 204.649C146.05 203.499 148.3 205.849 148.5 204.199C148.95 202.449 145.15 201.949 145.15 201.949ZM98.1498 204.799C98.3998 203.999 97.8998 203.049 97.0998 202.849C96.2998 202.649 95.3998 203.249 95.2498 204.049C95.0998 204.849 95.7998 205.699 96.6498 205.799C95.8498 206.749 94.5498 207.349 93.2998 207.299C91.3998 207.249 89.5998 205.749 89.2498 203.849C88.8998 201.949 90.0998 199.899 91.8998 199.299C93.0498 198.949 94.2998 199.099 95.4498 199.549C97.4998 200.349 99.1498 201.949 99.9998 203.949C99.2498 203.849 98.6498 204.199 98.1498 204.799Z" fill="#037486"/>
<path d="M117.7 185.35C117 185.45 116.2 186.15 116.05 186.85C115.9 187.55 116.3 188.35 116.9 188.7C117.5 189.05 118.4 189 118.95 188.55C119.5 188.1 119.75 187.3 119.55 186.6C119.45 185.9 118.8 185.25 117.7 185.35Z" fill="#037486"/>
<path d="M123.45 217.4C123.45 217.4 123.35 217.5 123.15 217.65C122.95 217.8 122.6 218 122.2 218.2C121.8 218.4 121.25 218.6 120.7 218.75C120.1 218.9 119.45 219 118.75 219.05C118.05 219.05 117.4 219 116.8 218.9C116.2 218.8 115.65 218.65 115.25 218.45C114.8 218.3 114.5 218.1 114.25 218C114.05 217.85 113.9 217.8 113.9 217.75C113.9 217.7 114.4 218 115.25 218.25C116.1 218.55 117.35 218.8 118.7 218.75C120.05 218.7 121.3 218.35 122.1 218C122.95 217.65 123.45 217.35 123.45 217.4Z" fill="#263238"/>
<path d="M129.95 228C129.95 228 129.65 228.1 129.15 228.3C128.9 228.4 128.55 228.5 128.2 228.6C127.8 228.7 127.4 228.85 126.9 228.95C125.95 229.2 124.75 229.4 123.45 229.55C122.15 229.7 120.7 229.8 119.2 229.8C117.7 229.8 116.25 229.65 114.95 229.5C113.65 229.3 112.5 229.1 111.5 228.85C111 228.75 110.6 228.6 110.2 228.5C109.8 228.4 109.5 228.3 109.25 228.2C108.75 228 108.45 227.9 108.45 227.9C108.45 227.9 108.75 227.95 109.3 228.1C109.55 228.2 109.9 228.3 110.25 228.35C110.65 228.45 111.05 228.55 111.55 228.65C112.5 228.9 113.65 229.1 114.95 229.25C116.25 229.4 117.7 229.5 119.2 229.55C120.7 229.55 122.15 229.45 123.45 229.3C124.75 229.15 125.9 228.95 126.85 228.75C127.35 228.65 127.75 228.55 128.15 228.45C128.55 228.35 128.85 228.25 129.15 228.2C129.65 228.05 129.95 228 129.95 228Z" fill="#263238"/>
<path d="M117.1 218.6C117.15 218.6 117.4 219.7 117.25 221.05C117.1 222.4 116.65 223.45 116.6 223.4C116.55 223.35 116.85 222.35 117 221C117.1 219.7 117 218.65 117.1 218.6Z" fill="#263238"/>
<path d="M119.2 223.5C119.15 223.5 118.8 222.5 118.65 221.25C118.5 219.95 118.6 218.9 118.7 218.9C118.8 218.9 118.8 219.95 118.9 221.2C119.05 222.45 119.25 223.5 119.2 223.5Z" fill="#263238"/>
<path d="M120.9 223.549C120.85 223.599 120.3 222.599 120 221.199C119.75 219.849 119.9 218.699 119.95 218.699C120.05 218.699 120 219.799 120.25 221.149C120.5 222.499 120.95 223.499 120.9 223.549Z" fill="#263238"/>
<path d="M121.45 194.5C121.45 194.6 119.95 194.15 118 194.15C116.1 194.15 114.6 194.65 114.6 194.55C114.6 194.5 114.95 194.35 115.55 194.2C116.15 194.05 117.05 193.9 118 193.9C118.95 193.9 119.85 194 120.45 194.15C121.05 194.35 121.45 194.5 121.45 194.5Z" fill="#263238"/>
<path d="M122.15 197.5C122.15 197.55 121.7 197.65 121 197.75C120.3 197.85 119.25 197.95 118.15 198C117.05 198.05 116.05 198.05 115.3 198.05C114.55 198 114.1 197.95 114.1 197.95C114.1 197.9 114.55 197.9 115.3 197.9C116.05 197.9 117.05 197.85 118.15 197.8C119.25 197.75 120.25 197.65 121 197.6C121.65 197.5 122.15 197.5 122.15 197.5Z" fill="#263238"/>
<path d="M119.3 188.5C119.35 188.55 118.9 189 118.15 189.1C117.4 189.2 116.85 188.85 116.9 188.8C116.95 188.75 117.45 188.95 118.15 188.85C118.75 188.75 119.25 188.45 119.3 188.5Z" fill="#263238"/>
<path d="M123.55 200.951C123.55 200.951 123.45 201.051 123.2 201.251C122.95 201.401 122.6 201.651 122.1 201.851C121.15 202.251 119.65 202.551 118.05 202.401C116.45 202.301 115.05 201.851 114.05 201.551C113.05 201.251 112.45 201.001 112.45 200.951C112.45 200.901 113.1 201.101 114.1 201.351C115.1 201.601 116.5 202.001 118.05 202.101C119.6 202.201 121.05 202.001 122 201.601C123 201.301 123.5 200.901 123.55 200.951Z" fill="#263238"/>
<path d="M114.7 201.85C114.7 201.85 114.45 202.3 113.85 202.85C113.25 203.4 112.35 204.05 111.2 204.5C110.05 204.95 108.95 205.1 108.15 205.1C107.35 205.1 106.85 205 106.85 204.95C106.85 204.9 107.35 204.95 108.15 204.9C108.95 204.85 110 204.65 111.15 204.2C112.25 203.75 113.2 203.15 113.8 202.65C114.35 202.2 114.7 201.8 114.7 201.85Z" fill="#263238"/>
<path d="M116.15 202.45C116.2 202.45 116.1 202.85 115.8 203.4C115.55 204 115.1 204.75 114.5 205.55C113.9 206.3 113.25 206.95 112.8 207.35C112.3 207.75 111.95 207.95 111.95 207.95C111.9 207.9 113.15 206.95 114.3 205.4C115.5 203.9 116.05 202.4 116.15 202.45Z" fill="#263238"/>
<path d="M117.75 209.099C117.65 209.099 118.05 207.649 118.3 205.799C118.55 203.949 118.5 202.449 118.6 202.449C118.65 202.449 118.7 202.799 118.7 203.449C118.7 204.049 118.7 204.899 118.6 205.849C118.5 206.799 118.3 207.599 118.15 208.199C117.95 208.749 117.8 209.099 117.75 209.099Z" fill="#263238"/>
<path d="M123.15 208.399C123.1 208.449 122.35 207.099 121.7 205.399C121 203.649 120.65 202.199 120.75 202.199C120.8 202.199 121.3 203.599 121.95 205.299C122.6 206.999 123.2 208.399 123.15 208.399Z" fill="#263238"/>
<path d="M127 205.05C127 205.1 126.65 205.2 126.05 205.15C125.45 205.1 124.6 204.9 123.85 204.35C123.1 203.8 122.6 203.1 122.35 202.55C122.1 202 122.05 201.65 122.1 201.6C122.15 201.6 122.25 201.95 122.5 202.45C122.75 202.95 123.25 203.6 123.95 204.1C124.65 204.6 125.45 204.85 126 204.9C126.65 205.05 127 205 127 205.05Z" fill="#263238"/>
<path d="M145.6 202.751C145.6 202.751 145.55 202.751 145.5 202.751C145.4 202.701 145.3 202.701 145.15 202.651C144.85 202.551 144.4 202.451 143.85 202.401C142.7 202.301 140.95 202.401 139 203.101C137 203.801 134.9 205.151 132.65 206.751C131.5 207.551 130.3 208.351 128.95 209.101C127.6 209.851 126.15 210.451 124.6 210.901C121.5 211.751 118.3 211.801 115.55 211.251C112.8 210.701 110.45 209.651 108.7 208.501C106.9 207.351 105.65 206.151 104.85 205.301C104.45 204.851 104.15 204.501 103.95 204.251C103.85 204.151 103.8 204.051 103.75 203.951C103.7 203.901 103.7 203.851 103.7 203.851C103.7 203.851 103.75 203.901 103.8 203.951C103.85 204.001 103.95 204.101 104.05 204.201C104.25 204.451 104.55 204.751 104.95 205.201C105.75 206.051 107.05 207.201 108.8 208.301C110.55 209.401 112.9 210.451 115.6 210.951C118.3 211.451 121.45 211.401 124.5 210.551C126.05 210.151 127.5 209.551 128.8 208.801C130.1 208.051 131.3 207.251 132.45 206.451C133.6 205.651 134.7 204.901 135.75 204.301C136.8 203.651 137.9 203.201 138.9 202.851C140.9 202.151 142.65 202.051 143.85 202.201C145 202.451 145.6 202.751 145.6 202.751Z" fill="#1A4850"/>
<path d="M114.35 198.699C114.4 198.749 114 199.049 113.7 199.549C113.35 199.999 113.2 200.449 113.1 200.449C113.05 200.449 113.1 199.899 113.5 199.399C113.85 198.849 114.35 198.649 114.35 198.699Z" fill="#8BDCD5"/>
<path d="M114.95 197.1C114.95 197.15 114.4 197 113.95 196.5C113.5 196.05 113.35 195.5 113.4 195.5C113.45 195.45 113.7 195.9 114.1 196.35C114.55 196.75 114.95 197.05 114.95 197.1Z" fill="#8BDCD5"/>
<path d="M115.8 193.85C115.75 193.85 115.6 192.9 115.8 191.7C116 190.5 116.4 189.65 116.45 189.65C116.5 189.7 116.2 190.6 116.05 191.75C115.85 192.9 115.9 193.85 115.8 193.85Z" fill="#8BDCD5"/>
<path d="M117.15 188.049C117.15 188.099 116.95 187.999 116.8 187.799C116.6 187.599 116.45 187.249 116.5 186.799C116.55 186.349 116.8 186.049 117 185.899C117.2 185.749 117.4 185.699 117.4 185.749C117.4 185.799 117.3 185.849 117.1 186.049C116.95 186.199 116.75 186.499 116.75 186.849C116.7 187.199 116.85 187.499 116.95 187.699C117.05 187.949 117.15 188.049 117.15 188.049Z" fill="#8BDCD5"/>
<path d="M112.8 201.799C112.8 201.799 112.75 201.899 112.55 202.099C112.35 202.299 112.1 202.549 111.7 202.799C110.95 203.349 109.8 203.949 108.4 204.099C107 204.299 105.7 204.049 104.85 203.749C104.4 203.599 104.1 203.449 103.85 203.299C103.65 203.149 103.5 203.099 103.5 203.049C103.5 202.999 104 203.299 104.85 203.549C105.7 203.799 106.95 204.049 108.3 203.849C109.65 203.649 110.8 203.099 111.55 202.649C112.35 202.149 112.75 201.749 112.8 201.799Z" fill="#8BDCD5"/>
<path d="M88.2997 205.299C88.2997 205.299 87.9997 204.899 87.8497 204.099C87.6497 203.349 87.6497 202.149 88.0997 200.999C88.5497 199.849 89.3497 198.999 89.9997 198.549C90.6497 198.099 91.1497 197.949 91.1497 197.999C91.1497 198.049 90.6997 198.249 90.0997 198.699C89.4997 199.149 88.7497 199.999 88.3497 201.099C87.9497 202.199 87.9497 203.299 88.0497 204.049C88.1497 204.849 88.3497 205.299 88.2997 205.299Z" fill="#8BDCD5"/>
<path d="M90.4996 207.399C90.4496 207.449 90.0496 207.299 89.5496 206.999C89.0996 206.699 88.7496 206.399 88.7996 206.349C88.8496 206.299 89.2496 206.499 89.6996 206.799C90.1496 207.099 90.4996 207.349 90.4996 207.399Z" fill="#8BDCD5"/>
<path d="M123.1 216.35C123.1 216.35 123.05 216.4 122.9 216.45C122.75 216.5 122.55 216.6 122.25 216.75C121.7 216.95 120.85 217.25 119.75 217.35C118.65 217.5 117.35 217.5 115.9 217.2C114.45 216.95 112.95 216.4 111.45 215.6C108.5 214.05 106.25 211.85 104.95 210.15C104.3 209.3 103.8 208.55 103.5 208C103.35 207.75 103.25 207.5 103.15 207.4C103.1 207.25 103.05 207.2 103.05 207.15C103.05 207.15 103.25 207.45 103.55 207.95C103.9 208.45 104.35 209.2 105.05 210.05C106.4 211.75 108.6 213.85 111.55 215.4C113 216.15 114.5 216.7 115.9 216.95C117.3 217.25 118.6 217.25 119.7 217.15C120.8 217.05 121.65 216.8 122.2 216.6C122.75 216.45 123.1 216.3 123.1 216.35Z" fill="#8BDCD5"/>
<path d="M116.05 222.75C116.05 222.75 116.05 222.85 115.95 223.05C115.85 223.25 115.7 223.5 115.45 223.8C114.95 224.4 114 224.95 112.9 225.4C111.85 225.85 110.85 226.25 110.25 226.65C109.65 227.05 109.35 227.45 109.3 227.4C109.3 227.4 109.5 226.95 110.15 226.5C110.75 226 111.75 225.55 112.8 225.15C113.85 224.7 114.75 224.2 115.3 223.7C115.85 223.15 116 222.7 116.05 222.75Z" fill="#8BDCD5"/>
<path d="M71 136L71.3 135.35L71.7 135.95C71.8 136.1 71.95 136.25 72.15 136.35L72.8 136.65L72.2 137.05C72.05 137.15 71.9 137.3 71.8 137.5L71.5 138.15L71.1 137.55C71 137.4 70.85 137.25 70.65 137.15L70 136.85L70.6 136.45C70.8 136.3 70.95 136.15 71 136Z" fill="#E8505B"/>
<path d="M151.9 124.55L152.2 123.9L152.6 124.5C152.7 124.65 152.85 124.8 153.05 124.9L153.7 125.2L153.1 125.6C152.95 125.7 152.8 125.85 152.7 126.05L152.4 126.7L152 126.1C151.9 125.95 151.75 125.8 151.55 125.7L150.9 125.4L151.5 125C151.65 124.9 151.8 124.7 151.9 124.55Z" fill="#E8505B"/>
<path d="M113.55 17.9996L113.85 17.3496L114.25 17.9496C114.35 18.0996 114.5 18.2496 114.7 18.3496L115.35 18.6496L114.75 19.0496C114.6 19.1496 114.45 19.2996 114.35 19.4996L114.05 20.1496L113.65 19.5496C113.55 19.3996 113.4 19.2496 113.2 19.1496L112.55 18.8496L113.15 18.4496C113.35 18.2996 113.45 18.1496 113.55 17.9996Z" fill="#E8505B"/>
<path d="M84.6501 172.949L84.9501 172.299L85.3501 172.899C85.4501 173.049 85.6001 173.199 85.8001 173.299L86.4501 173.599L85.8501 173.999C85.7001 174.099 85.5501 174.249 85.4501 174.449L85.1501 175.099L84.7501 174.499C84.6501 174.349 84.5001 174.199 84.3001 174.099L83.6501 173.799L84.2501 173.399C84.4501 173.299 84.5501 173.149 84.6501 172.949Z" fill="#E8505B"/>
<path d="M153.05 42L153.15 41.75L153.3 41.95C153.35 42 153.4 42.05 153.45 42.1L153.7 42.2L153.5 42.35C153.45 42.4 153.4 42.45 153.35 42.5L153.25 42.75L153.1 42.55C153.05 42.5 153 42.45 152.95 42.4L152.7 42.3L152.9 42.15C152.95 42.1 153 42.05 153.05 42Z" fill="#E8505B"/>
<path d="M68.0001 117.4L68.1001 117.15L68.2501 117.35C68.3001 117.4 68.3501 117.45 68.4001 117.5L68.6501 117.6L68.4501 117.75C68.4001 117.8 68.3501 117.85 68.3001 117.9L68.2001 118.15L68.0501 117.95C68.0001 117.9 67.9501 117.85 67.9001 117.8L67.6501 117.7L67.8501 117.55C67.9501 117.5 68.0001 117.45 68.0001 117.4Z" fill="#E8505B"/>
<path d="M89.8501 153.5L89.9501 153.25L90.1001 153.45C90.1501 153.5 90.2001 153.55 90.2501 153.6L90.5001 153.7L90.3001 153.85C90.2501 153.9 90.2001 153.95 90.1501 154L90.0501 154.25L89.9001 154.05C89.8501 154 89.8001 153.95 89.7501 153.9L89.5001 153.8L89.7001 153.65C89.8001 153.6 89.8501 153.55 89.8501 153.5Z" fill="#E8505B"/>
<path d="M141 115.449L141.1 115.199L141.25 115.399C141.3 115.449 141.35 115.499 141.4 115.549L141.65 115.649L141.45 115.799C141.4 115.849 141.35 115.899 141.3 115.949L141.2 116.199L141.05 115.999C141 115.949 140.95 115.899 140.9 115.849L140.65 115.749L140.85 115.599C140.95 115.599 141 115.549 141 115.449Z" fill="#E8505B"/>
<path d="M183.1 86.1992L183.2 85.9492L183.35 86.1492C183.4 86.1992 183.45 86.2492 183.5 86.2992L183.75 86.3992L183.55 86.5492C183.5 86.5992 183.45 86.6492 183.4 86.6992L183.3 86.9492L183.15 86.7492C183.1 86.6992 183.05 86.6492 183 86.5992L182.75 86.4992L182.95 86.3492C183 86.2992 183.05 86.2492 183.1 86.1992Z" fill="#E8505B"/>
<path d="M81.2502 56.2988L81.3502 56.0488L81.5002 56.2488C81.5502 56.2988 81.6002 56.3488 81.6502 56.3988L81.9002 56.4988L81.7002 56.6488C81.6502 56.6988 81.6002 56.7488 81.5502 56.7988L81.4502 57.0488L81.3002 56.8488C81.2502 56.7988 81.2002 56.7488 81.1502 56.6988L80.9002 56.5988L81.1002 56.4488C81.2002 56.4488 81.2502 56.3488 81.2502 56.2988Z" fill="#E8505B"/>
<path d="M132.6 65.65L132.9 65L133.3 65.6C133.4 65.75 133.55 65.9 133.75 66L134.4 66.3L133.8 66.7C133.65 66.8 133.5 66.95 133.4 67.15L133.1 67.8L132.7 67.2C132.6 67.05 132.45 66.9 132.25 66.8L131.6 66.5L132.2 66.1C132.4 66 132.5 65.85 132.6 65.65Z" fill="#E8505B"/>
<path d="M153.6 187.15L153.9 186.5L154.3 187.1C154.4 187.25 154.55 187.4 154.75 187.5L155.4 187.8L154.8 188.2C154.65 188.3 154.5 188.45 154.4 188.65L154.1 189.3L153.7 188.7C153.6 188.55 153.45 188.4 153.25 188.3L152.6 188L153.2 187.6C153.35 187.5 153.5 187.35 153.6 187.15Z" fill="#E8505B"/>
<path d="M44.1001 112.9L44.6001 111.85L45.2501 112.85C45.4501 113.1 45.7001 113.35 46.0001 113.5L47.0501 114L46.0501 114.65C45.8001 114.85 45.5501 115.1 45.4001 115.4L44.9001 116.45L44.2501 115.45C44.0501 115.2 43.8001 114.95 43.5001 114.8L42.4501 114.3L43.4501 113.65C43.7501 113.45 43.9501 113.2 44.1001 112.9Z" fill="#E8505B"/>
<path d="M180.35 112.999L180.85 111.949L181.5 112.949C181.7 113.199 181.95 113.449 182.25 113.599L183.3 114.099L182.3 114.749C182.05 114.949 181.8 115.199 181.65 115.499L181.15 116.549L180.5 115.549C180.3 115.299 180.05 115.049 179.75 114.899L178.7 114.399L179.7 113.749C180 113.549 180.2 113.299 180.35 112.999Z" fill="#E8505B"/>
<path d="M60.1999 72.9504L60.6999 71.9004L61.3499 72.9004C61.5499 73.1504 61.7999 73.4004 62.0999 73.5504L63.1499 74.0504L62.1499 74.7004C61.8999 74.9004 61.6499 75.1504 61.4999 75.4504L60.9999 76.5004L60.3499 75.5004C60.1499 75.2504 59.8999 75.0004 59.5999 74.8504L58.5499 74.3504L59.5499 73.7004C59.8499 73.5004 60.0499 73.2504 60.1999 72.9504Z" fill="#E8505B"/>
</svg>
