<svg width="11" height="15" viewBox="0 0 11 15" fill="none" xmlns="http://www.w3.org/2000/svg">
<path d="M0.0850019 9.68369L4.96295 14.9097C5.07535 15.0301 5.25754 15.0301 5.36993 14.9097L10.2477 9.68369C10.3601 9.56327 10.3601 9.36807 10.2477 9.24765L8.94823 7.85519C8.89427 7.79737 8.82116 7.76483 8.74475 7.76483C8.66848 7.76483 8.59523 7.79737 8.54126 7.85519L6.44968 10.0958L6.44968 0.308372C6.44968 0.138151 6.32074 0 6.16186 0H4.17088C4.012 0 3.88306 0.138151 3.88306 0.308372L3.88306 10.0957L1.79177 7.85503C1.68383 7.73939 1.49272 7.73939 1.38479 7.85503L0.0851469 9.24749C0.0311813 9.30531 0.000815392 9.38379 0.000815392 9.46551C0.000671387 9.54723 0.0310364 9.62587 0.0850019 9.68369Z" fill="#037486"/>
</svg>
