<svg width="11" height="18" viewBox="0 0 11 18" fill="none" xmlns="http://www.w3.org/2000/svg">
<path fill-rule="evenodd" clip-rule="evenodd" d="M0.645768 9.19656C0.238408 8.81316 0.248858 8.16254 0.668323 7.79242L1.16454 8.3548M2.11329 8.51788L9.9962 1.56238C10.3068 1.28832 10.3364 0.814375 10.0624 0.503782C9.78831 0.19319 9.31436 0.163567 9.00377 0.43762L0.668323 7.79242M2.11329 8.51788L10.014 15.9538C10.3156 16.2377 10.33 16.7124 10.0461 17.014C9.76224 17.3157 9.28759 17.33 8.98596 17.0461L0.645768 9.19656M1.67438 8.10479L1.67381 8.10426L1.29686 8.50477L1.67381 8.10426C1.674 8.10443 1.67419 8.10461 1.67438 8.10479Z" fill="#727271"/>
</svg>
