<svg width="11" height="15" viewBox="0 0 11 15" fill="none" xmlns="http://www.w3.org/2000/svg">
<path d="M10.247 5.31631L5.36908 0.0903148C5.25668 -0.0301049 5.0745 -0.0301049 4.9621 0.0903148L0.0842949 5.31631C-0.0280983 5.43673 -0.0280983 5.63193 0.0842949 5.75235L1.3838 7.14481C1.43776 7.20263 1.51087 7.23517 1.58728 7.23517C1.66356 7.23517 1.73681 7.20263 1.79077 7.14481L3.88235 4.90417V14.6916C3.88235 14.8618 4.01129 15 4.17017 15H6.16116C6.32003 15 6.44897 14.8618 6.44897 14.6916V4.90433L8.54027 7.14497C8.6482 7.26061 8.83931 7.26061 8.94724 7.14497L10.2469 5.75251C10.3008 5.69469 10.3312 5.61621 10.3312 5.53449C10.3314 5.45277 10.301 5.37413 10.247 5.31631Z" fill="#FF6E76"/>
</svg>
