<svg width="192" height="42" viewBox="0 0 192 42" fill="none" xmlns="http://www.w3.org/2000/svg">
<path d="M21.4597 12.0781L21.6898 13.7273H23.7742L23.7742 12.0781L21.4597 12.0781Z" fill="black"/>
<path d="M21.4598 28.6777L21.7082 30.4575H23.9575L23.9575 28.6777L21.4598 28.6777Z" fill="black"/>
<path d="M124.86 28.6777L125.108 30.4575H127.357L127.357 28.6777L124.86 28.6777Z" fill="black"/>
<path d="M25.8551 12.0761C27.1111 12.0761 28.0874 12.3374 28.7842 12.8599C29.481 13.3825 29.8293 14.1572 29.8293 15.184C29.8293 16.2566 29.4855 17.068 28.7979 17.6181C28.1195 18.159 27.2073 18.4294 26.0613 18.4294H25.03V21.6061H22.7747V12.0761H25.8551ZM25.8688 16.8067C26.4006 16.8067 26.8039 16.683 27.079 16.4354C27.3632 16.1787 27.5053 15.7616 27.5053 15.184C27.5053 14.1847 26.946 13.6851 25.8276 13.6851H25.03V16.8067H25.8688Z" fill="black"/>
<path d="M33.7257 14.0701C34.8442 14.0701 35.7197 14.4139 36.3523 15.1015C36.9849 15.7799 37.3012 16.7334 37.3012 17.9619C37.3012 18.7411 37.1545 19.4241 36.8611 20.0109C36.5769 20.5885 36.1644 21.0377 35.6235 21.3586C35.0917 21.6794 34.4591 21.8399 33.7257 21.8399C32.6164 21.8399 31.7409 21.5007 31.0991 20.8222C30.4665 20.1347 30.1502 19.1766 30.1502 17.9481C30.1502 17.1688 30.2923 16.4904 30.5766 15.9128C30.8699 15.3261 31.2825 14.8723 31.8142 14.5514C32.3551 14.2305 32.9923 14.0701 33.7257 14.0701ZM33.7257 15.6653C33.2857 15.6653 32.9556 15.8533 32.7356 16.2291C32.5156 16.5959 32.4055 17.1688 32.4055 17.9481C32.4055 18.7457 32.511 19.3279 32.7218 19.6946C32.9419 20.0613 33.2765 20.2447 33.7257 20.2447C34.1658 20.2447 34.4958 20.0613 34.7158 19.6946C34.9359 19.3187 35.0459 18.7411 35.0459 17.9619C35.0459 17.1643 34.9359 16.5821 34.7158 16.2154C34.505 15.8487 34.1749 15.6653 33.7257 15.6653Z" fill="black"/>
<path d="M41.7566 14.0701C42.2608 14.0701 42.7146 14.1435 43.118 14.2901C43.5214 14.4368 43.9018 14.6614 44.2594 14.964L43.3243 16.2566C42.8659 15.9083 42.4029 15.7341 41.9353 15.7341C41.4494 15.7341 41.0827 15.9128 40.8352 16.2704C40.5877 16.6279 40.4639 17.2055 40.4639 18.0031C40.4639 18.7732 40.5877 19.3187 40.8352 19.6396C41.0827 19.9605 41.4403 20.1209 41.9078 20.1209C42.1554 20.1209 42.38 20.0842 42.5817 20.0109C42.7834 19.9284 43.0263 19.8 43.3105 19.6258L44.2594 20.9735C43.5351 21.5511 42.7146 21.8399 41.7978 21.8399C41.0552 21.8399 40.4135 21.684 39.8726 21.3723C39.3316 21.0514 38.9145 20.6068 38.6211 20.0384C38.3278 19.4608 38.1811 18.787 38.1811 18.0169C38.1811 17.2468 38.3278 16.5638 38.6211 15.9679C38.9145 15.3719 39.3316 14.909 39.8726 14.5789C40.4135 14.2397 41.0415 14.0701 41.7566 14.0701Z" fill="black"/>
<path d="M48.0684 14.0701C48.5726 14.0701 49.0265 14.1435 49.4298 14.2901C49.8332 14.4368 50.2137 14.6614 50.5712 14.964L49.6361 16.2566C49.1777 15.9083 48.7148 15.7341 48.2472 15.7341C47.7613 15.7341 47.3946 15.9128 47.147 16.2704C46.8995 16.6279 46.7757 17.2055 46.7757 18.0031C46.7757 18.7732 46.8995 19.3187 47.147 19.6396C47.3946 19.9605 47.7521 20.1209 48.2197 20.1209C48.4672 20.1209 48.6918 20.0842 48.8935 20.0109C49.0952 19.9284 49.3382 19.8 49.6224 19.6258L50.5712 20.9735C49.847 21.5511 49.0265 21.8399 48.1097 21.8399C47.3671 21.8399 46.7253 21.684 46.1844 21.3723C45.6435 21.0514 45.2264 20.6068 44.933 20.0384C44.6396 19.4608 44.4929 18.787 44.4929 18.0169C44.4929 17.2468 44.6396 16.5638 44.933 15.9679C45.2264 15.3719 45.6435 14.909 46.1844 14.5789C46.7253 14.2397 47.3533 14.0701 48.0684 14.0701Z" fill="black"/>
<path d="M57.908 21.6061H55.8453V19.007C55.8453 18.4936 55.8728 18.0077 55.9278 17.5493C55.9828 17.0909 56.0516 16.7059 56.1341 16.3942L53.7 21.6061H51.486V14.3039H53.5625V16.9442C53.5625 17.4301 53.5304 17.9069 53.4662 18.3744C53.4112 18.842 53.347 19.227 53.2737 19.5296L55.6803 14.3039H57.908V21.6061Z" fill="black"/>
<path d="M66.0329 21.6061H63.9701V19.007C63.9701 18.4936 63.9976 18.0077 64.0526 17.5493C64.1076 17.0909 64.1764 16.7059 64.2589 16.3942L61.8248 21.6061H59.6108V14.3039H61.6873V16.9442C61.6873 17.4301 61.6552 17.9069 61.5911 18.3744C61.5361 18.842 61.4719 19.227 61.3985 19.5296L63.8051 14.3039H66.0329V21.6061ZM62.815 12.915C62.109 12.915 61.5498 12.7224 61.1372 12.3374C60.7339 11.9523 60.5047 11.4389 60.4497 10.7972L61.6461 10.5771C61.7286 10.8705 61.8615 11.0814 62.0449 11.2097C62.2374 11.3381 62.4941 11.4023 62.815 11.4023C63.1358 11.4023 63.388 11.3381 63.5713 11.2097C63.7638 11.0814 63.9059 10.8705 63.9976 10.5771L65.194 10.7972C65.139 11.4389 64.9052 11.9523 64.4927 12.3374C64.0801 12.7224 63.5209 12.915 62.815 12.915Z" fill="black"/>
<path d="M70.8986 14.0701C71.4028 14.0701 71.8566 14.1435 72.26 14.2901C72.6634 14.4368 73.0438 14.6614 73.4014 14.964L72.4663 16.2566C72.0079 15.9083 71.5449 15.7341 71.0773 15.7341C70.5914 15.7341 70.2247 15.9128 69.9772 16.2704C69.7297 16.6279 69.6059 17.2055 69.6059 18.0031C69.6059 18.7732 69.7297 19.3187 69.9772 19.6396C70.2247 19.9605 70.5823 20.1209 71.0498 20.1209C71.2974 20.1209 71.522 20.0842 71.7237 20.0109C71.9254 19.9284 72.1683 19.8 72.4525 19.6258L73.4014 20.9735C72.6771 21.5511 71.8566 21.8399 70.9398 21.8399C70.1972 21.8399 69.5555 21.684 69.0146 21.3723C68.4737 21.0514 68.0565 20.6068 67.7631 20.0384C67.4698 19.4608 67.3231 18.787 67.3231 18.0169C67.3231 17.2468 67.4698 16.5638 67.7631 15.9679C68.0565 15.3719 68.4737 14.909 69.0146 14.5789C69.5555 14.2397 70.1835 14.0701 70.8986 14.0701Z" fill="black"/>
<path d="M80.8757 14.3039L78.9367 17.6868L81.0407 21.6061H78.7442L77.149 18.4707H76.4889V21.6061H74.3161V14.3039H76.4889V17.1505H77.204L78.7854 14.3039H80.8757Z" fill="black"/>
<path d="M87.4519 19.4883C87.4519 19.7634 87.4885 19.965 87.5619 20.0934C87.6444 20.2217 87.7727 20.318 87.9469 20.3822L87.4931 21.7986C87.0439 21.7619 86.6772 21.6657 86.393 21.5098C86.1088 21.3448 85.8887 21.0881 85.7329 20.7397C85.2562 21.4732 84.5227 21.8399 83.5326 21.8399C82.8083 21.8399 82.2308 21.629 81.7999 21.2073C81.369 20.7856 81.1535 20.2355 81.1535 19.5571C81.1535 18.7595 81.4469 18.1498 82.0336 17.7281C82.6204 17.3064 83.4684 17.0955 84.5777 17.0955H85.3203V16.7792C85.3203 16.3483 85.2287 16.055 85.0453 15.8991C84.8619 15.7341 84.5411 15.6516 84.0827 15.6516C83.8443 15.6516 83.5555 15.6882 83.2163 15.7616C82.8771 15.8258 82.5287 15.9174 82.1712 16.0366L81.6761 14.6064C82.1345 14.4322 82.6021 14.2993 83.0788 14.2076C83.5647 14.1159 84.0139 14.0701 84.4265 14.0701C85.4716 14.0701 86.2371 14.2856 86.723 14.7164C87.2089 15.1473 87.4519 15.7937 87.4519 16.6554V19.4883ZM84.1652 20.2859C84.6602 20.2859 85.0453 20.0521 85.3203 19.5846V18.2919H84.784C84.2889 18.2919 83.9176 18.379 83.6701 18.5532C83.4317 18.7274 83.3126 18.9978 83.3126 19.3646C83.3126 19.6579 83.3859 19.8871 83.5326 20.0521C83.6884 20.208 83.8993 20.2859 84.1652 20.2859Z" fill="black"/>
<path d="M95.1371 14.3039V21.6061H92.9643V19.062H92.0292L90.709 21.6061H88.3849L90.0627 18.5532C89.7051 18.3607 89.4255 18.1086 89.2238 17.7968C89.0313 17.476 88.935 17.1047 88.935 16.6829C88.935 15.9037 89.2238 15.3124 89.8014 14.909C90.3881 14.5056 91.2361 14.3039 92.3455 14.3039H95.1371ZM92.9643 17.7693V15.6928H92.3317C91.9375 15.6928 91.6395 15.7799 91.4378 15.9541C91.2453 16.1283 91.1491 16.3758 91.1491 16.6967C91.1491 17.0359 91.2407 17.3018 91.4241 17.4943C91.6166 17.6777 91.9054 17.7693 92.2905 17.7693H92.9643Z" fill="black"/>
<path d="M105.161 21.6061L104.666 19.5571H101.888L101.407 21.6061H99.0693L101.943 12.0761H104.68L107.554 21.6061H105.161ZM102.274 17.9206H104.281L103.277 13.7126L102.274 17.9206Z" fill="black"/>
<path d="M111.375 14.0701C111.879 14.0701 112.333 14.1435 112.736 14.2901C113.14 14.4368 113.52 14.6614 113.878 14.964L112.943 16.2566C112.484 15.9083 112.021 15.7341 111.554 15.7341C111.068 15.7341 110.701 15.9128 110.454 16.2704C110.206 16.6279 110.082 17.2055 110.082 18.0031C110.082 18.7732 110.206 19.3187 110.454 19.6396C110.701 19.9605 111.059 20.1209 111.526 20.1209C111.774 20.1209 111.998 20.0842 112.2 20.0109C112.402 19.9284 112.645 19.8 112.929 19.6258L113.878 20.9735C113.154 21.5511 112.333 21.8399 111.416 21.8399C110.674 21.8399 110.032 21.684 109.491 21.3723C108.95 21.0514 108.533 20.6068 108.24 20.0384C107.946 19.4608 107.8 18.787 107.8 18.0169C107.8 17.2468 107.946 16.5638 108.24 15.9679C108.533 15.3719 108.95 14.909 109.491 14.5789C110.032 14.2397 110.66 14.0701 111.375 14.0701Z" fill="black"/>
<path d="M117.687 14.0701C118.191 14.0701 118.645 14.1435 119.048 14.2901C119.452 14.4368 119.832 14.6614 120.19 14.964L119.255 16.2566C118.796 15.9083 118.333 15.7341 117.866 15.7341C117.38 15.7341 117.013 15.9128 116.766 16.2704C116.518 16.6279 116.394 17.2055 116.394 18.0031C116.394 18.7732 116.518 19.3187 116.766 19.6396C117.013 19.9605 117.371 20.1209 117.838 20.1209C118.086 20.1209 118.31 20.0842 118.512 20.0109C118.714 19.9284 118.957 19.8 119.241 19.6258L120.19 20.9735C119.465 21.5511 118.645 21.8399 117.728 21.8399C116.986 21.8399 116.344 21.684 115.803 21.3723C115.262 21.0514 114.845 20.6068 114.552 20.0384C114.258 19.4608 114.111 18.787 114.111 18.0169C114.111 17.2468 114.258 16.5638 114.552 15.9679C114.845 15.3719 115.262 14.909 115.803 14.5789C116.344 14.2397 116.972 14.0701 117.687 14.0701Z" fill="black"/>
<path d="M123.999 14.0701C125.117 14.0701 125.993 14.4139 126.625 15.1015C127.258 15.7799 127.574 16.7334 127.574 17.9619C127.574 18.7411 127.428 19.4241 127.134 20.0109C126.85 20.5885 126.437 21.0377 125.897 21.3586C125.365 21.6794 124.732 21.8399 123.999 21.8399C122.889 21.8399 122.014 21.5007 121.372 20.8222C120.74 20.1347 120.423 19.1766 120.423 17.9481C120.423 17.1688 120.565 16.4904 120.85 15.9128C121.143 15.3261 121.556 14.8723 122.087 14.5514C122.628 14.2305 123.265 14.0701 123.999 14.0701ZM123.999 15.6653C123.559 15.6653 123.229 15.8533 123.009 16.2291C122.789 16.5959 122.679 17.1688 122.679 17.9481C122.679 18.7457 122.784 19.3279 122.995 19.6946C123.215 20.0613 123.55 20.2447 123.999 20.2447C124.439 20.2447 124.769 20.0613 124.989 19.6946C125.209 19.3187 125.319 18.7411 125.319 17.9619C125.319 17.1643 125.209 16.5821 124.989 16.2154C124.778 15.8487 124.448 15.6653 123.999 15.6653Z" fill="black"/>
<path d="M135.096 20.0109H136.196V23.8889H134.684L134.436 21.6061H128.867V14.3039H131.039V19.9971H132.923V14.3039H135.096V20.0109Z" fill="black"/>
<path d="M143.454 21.6061H141.391V19.007C141.391 18.4936 141.419 18.0077 141.474 17.5493C141.529 17.0909 141.597 16.7059 141.68 16.3942L139.246 21.6061H137.032V14.3039H139.108V16.9442C139.108 17.4301 139.076 17.9069 139.012 18.3744C138.957 18.842 138.893 19.227 138.82 19.5296L141.226 14.3039H143.454V21.6061Z" fill="black"/>
<path d="M150.96 19.4883C150.96 19.7634 150.997 19.965 151.07 20.0934C151.152 20.2217 151.281 20.318 151.455 20.3822L151.001 21.7986C150.552 21.7619 150.185 21.6657 149.901 21.5098C149.617 21.3448 149.397 21.0881 149.241 20.7397C148.764 21.4732 148.031 21.8399 147.041 21.8399C146.316 21.8399 145.739 21.629 145.308 21.2073C144.877 20.7856 144.662 20.2355 144.662 19.5571C144.662 18.7595 144.955 18.1498 145.542 17.7281C146.128 17.3064 146.977 17.0955 148.086 17.0955H148.828V16.7792C148.828 16.3483 148.737 16.055 148.553 15.8991C148.37 15.7341 148.049 15.6516 147.591 15.6516C147.352 15.6516 147.064 15.6882 146.724 15.7616C146.385 15.8258 146.037 15.9174 145.679 16.0366L145.184 14.6064C145.643 14.4322 146.11 14.2993 146.587 14.2076C147.073 14.1159 147.522 14.0701 147.935 14.0701C148.98 14.0701 149.745 14.2856 150.231 14.7164C150.717 15.1473 150.96 15.7937 150.96 16.6554V19.4883ZM147.673 20.2859C148.168 20.2859 148.553 20.0521 148.828 19.5846V18.2919H148.292C147.797 18.2919 147.426 18.379 147.178 18.5532C146.94 18.7274 146.821 18.9978 146.821 19.3646C146.821 19.6579 146.894 19.8871 147.041 20.0521C147.197 20.208 147.407 20.2859 147.673 20.2859Z" fill="black"/>
<path d="M158.92 20.0109H160.02V23.8889H158.508L158.26 21.6061H152.691V14.3039H154.863V19.9971H156.747V14.3039H158.92V20.0109Z" fill="black"/>
<path d="M167.278 21.6061H165.215V19.007C165.215 18.4936 165.243 18.0077 165.298 17.5493C165.353 17.0909 165.421 16.7059 165.504 16.3942L163.07 21.6061H160.856V14.3039H162.932V16.9442C162.932 17.4301 162.9 17.9069 162.836 18.3744C162.781 18.842 162.717 19.227 162.644 19.5296L165.05 14.3039H167.278V21.6061Z" fill="black"/>
<path d="M174.935 14.3039V21.6061H172.762V19.062H171.827L170.507 21.6061H168.183L169.861 18.5532C169.503 18.3607 169.224 18.1086 169.022 17.7968C168.829 17.476 168.733 17.1047 168.733 16.6829C168.733 15.9037 169.022 15.3124 169.599 14.909C170.186 14.5056 171.034 14.3039 172.144 14.3039H174.935ZM172.762 17.7693V15.6928H172.13C171.736 15.6928 171.438 15.7799 171.236 15.9541C171.043 16.1283 170.947 16.3758 170.947 16.6967C170.947 17.0359 171.039 17.3018 171.222 17.4943C171.415 17.6777 171.703 17.7693 172.089 17.7693H172.762Z" fill="black"/>
<path d="M28.8805 28.6774L28.6329 30.4514H25.03V38.2074H22.7747V28.6774H28.8805Z" fill="black"/>
<path d="M34.7409 34.4119C34.7409 34.7145 34.7271 34.9757 34.6996 35.1958H30.1753C30.2486 35.81 30.4228 36.2409 30.6978 36.4884C30.9729 36.736 31.3533 36.8597 31.8392 36.8597C32.1326 36.8597 32.4168 36.8093 32.6919 36.7085C32.9669 36.5985 33.2648 36.4334 33.5857 36.2134L34.4796 37.4236C33.627 38.102 32.6781 38.4412 31.633 38.4412C30.4503 38.4412 29.5427 38.0928 28.9101 37.3961C28.2775 36.6993 27.9612 35.7642 27.9612 34.5907C27.9612 33.8481 28.0942 33.1834 28.36 32.5967C28.6259 32.0008 29.0155 31.5332 29.5289 31.194C30.0423 30.8456 30.6566 30.6714 31.3717 30.6714C32.426 30.6714 33.2511 31.0015 33.847 31.6616C34.4429 32.3217 34.7409 33.2384 34.7409 34.4119ZM32.6093 33.7931C32.591 32.6746 32.1968 32.1154 31.4267 32.1154C31.0508 32.1154 30.7574 32.2529 30.5466 32.5279C30.3449 32.803 30.2211 33.2568 30.1753 33.8894H32.6093V33.7931Z" fill="black"/>
<path d="M40.087 30.6714C41.0038 30.6714 41.6868 31.0106 42.136 31.6891C42.5852 32.3675 42.8099 33.3164 42.8099 34.5357C42.8099 35.2875 42.6907 35.9613 42.4523 36.5572C42.2231 37.144 41.8885 37.6069 41.4484 37.9461C41.0084 38.2762 40.495 38.4412 39.9082 38.4412C39.1748 38.4412 38.5835 38.1891 38.1342 37.6849V41.0265L35.9615 41.2603V30.9052H37.873L37.983 31.7166C38.2672 31.359 38.5926 31.0977 38.9594 30.9327C39.3261 30.7585 39.7019 30.6714 40.087 30.6714ZM39.2481 36.846C40.1191 36.846 40.5546 36.0851 40.5546 34.5632C40.5546 33.7014 40.4583 33.1055 40.2658 32.7755C40.0732 32.4363 39.7845 32.2666 39.3994 32.2666C39.1519 32.2666 38.9181 32.34 38.6981 32.4867C38.4872 32.6334 38.2993 32.8442 38.1342 33.1193V36.1997C38.4276 36.6306 38.7989 36.846 39.2481 36.846Z" fill="black"/>
<path d="M47.3298 30.6714C48.4483 30.6714 49.3238 31.0152 49.9564 31.7028C50.589 32.3812 50.9053 33.3347 50.9053 34.5632C50.9053 35.3425 50.7586 36.0255 50.4652 36.6122C50.181 37.1898 49.7684 37.639 49.2275 37.9599C48.6958 38.2808 48.0632 38.4412 47.3298 38.4412C46.2205 38.4412 45.3449 38.102 44.7032 37.4236C44.0706 36.736 43.7543 35.7779 43.7543 34.5494C43.7543 33.7702 43.8964 33.0918 44.1806 32.5142C44.474 31.9274 44.8866 31.4736 45.4183 31.1528C45.9592 30.8319 46.5964 30.6714 47.3298 30.6714ZM47.3298 32.2666C46.8897 32.2666 46.5597 32.4546 46.3397 32.8305C46.1196 33.1972 46.0096 33.7702 46.0096 34.5494C46.0096 35.347 46.1151 35.9292 46.3259 36.2959C46.5459 36.6626 46.8806 36.846 47.3298 36.846C47.7699 36.846 48.0999 36.6626 48.3199 36.2959C48.54 35.92 48.65 35.3425 48.65 34.5632C48.65 33.7656 48.54 33.1834 48.3199 32.8167C48.1091 32.45 47.779 32.2666 47.3298 32.2666Z" fill="black"/>
<path d="M56.3783 38.2074V35.3058H54.3705V38.2074H52.1977V30.9052H54.3705V33.6968H56.3783V30.9052H58.551V38.2074H56.3783Z" fill="black"/>
<path d="M65.9762 30.9052L65.7149 32.5142H63.7346V38.2074H61.5618V32.5142H59.4303V30.9052H65.9762Z" fill="black"/>
<path d="M69.5556 30.6714C70.6741 30.6714 71.5496 31.0152 72.1822 31.7028C72.8148 32.3812 73.1311 33.3347 73.1311 34.5632C73.1311 35.3425 72.9844 36.0255 72.691 36.6122C72.4068 37.1898 71.9943 37.639 71.4534 37.9599C70.9216 38.2808 70.289 38.4412 69.5556 38.4412C68.4463 38.4412 67.5708 38.102 66.929 37.4236C66.2964 36.736 65.9801 35.7779 65.9801 34.5494C65.9801 33.7702 66.1222 33.0918 66.4064 32.5142C66.6998 31.9274 67.1124 31.4736 67.6441 31.1528C68.185 30.8319 68.8222 30.6714 69.5556 30.6714ZM69.5556 32.2666C69.1156 32.2666 68.7855 32.4546 68.5655 32.8305C68.3455 33.1972 68.2354 33.7702 68.2354 34.5494C68.2354 35.347 68.3409 35.9292 68.5517 36.2959C68.7718 36.6626 69.1064 36.846 69.5556 36.846C69.9957 36.846 70.3257 36.6626 70.5457 36.2959C70.7658 35.92 70.8758 35.3425 70.8758 34.5632C70.8758 33.7656 70.7658 33.1834 70.5457 32.8167C70.3349 32.45 70.0048 32.2666 69.5556 32.2666Z" fill="black"/>
<path d="M80.4225 30.9052V38.2074H78.2498V32.5004H76.8608L76.7233 34.0544C76.6225 35.127 76.5033 35.9292 76.3658 36.4609C76.2374 36.9835 76.0082 37.3961 75.6782 37.6986C75.3481 38.0011 74.8439 38.2303 74.1655 38.3862L73.6292 36.8047C73.9317 36.6672 74.1426 36.5251 74.2617 36.3784C74.3901 36.2226 74.4863 35.9796 74.5505 35.6496C74.6147 35.3104 74.6743 34.742 74.7293 33.9444L74.9493 30.9052H80.4225Z" fill="black"/>
<path d="M85.295 30.6714C86.4135 30.6714 87.289 31.0152 87.9216 31.7028C88.5542 32.3812 88.8704 33.3347 88.8704 34.5632C88.8704 35.3425 88.7238 36.0255 88.4304 36.6122C88.1462 37.1898 87.7336 37.639 87.1927 37.9599C86.661 38.2808 86.0284 38.4412 85.295 38.4412C84.1857 38.4412 83.3101 38.102 82.6684 37.4236C82.0358 36.736 81.7195 35.7779 81.7195 34.5494C81.7195 33.7702 81.8616 33.0918 82.1458 32.5142C82.4392 31.9274 82.8517 31.4736 83.3835 31.1528C83.9244 30.8319 84.5616 30.6714 85.295 30.6714ZM85.295 32.2666C84.8549 32.2666 84.5249 32.4546 84.3049 32.8305C84.0848 33.1972 83.9748 33.7702 83.9748 34.5494C83.9748 35.347 84.0802 35.9292 84.2911 36.2959C84.5111 36.6626 84.8458 36.846 85.295 36.846C85.735 36.846 86.0651 36.6626 86.2851 36.2959C86.5051 35.92 86.6152 35.3425 86.6152 34.5632C86.6152 33.7656 86.5051 33.1834 86.2851 32.8167C86.0742 32.45 85.7442 32.2666 85.295 32.2666Z" fill="black"/>
<path d="M92.3357 38.2074H90.1629V30.9052H95.3336L95.0723 32.5554H92.3357V38.2074Z" fill="black"/>
<path d="M98.9259 30.6714C100.044 30.6714 100.92 31.0152 101.553 31.7028C102.185 32.3812 102.501 33.3347 102.501 34.5632C102.501 35.3425 102.355 36.0255 102.061 36.6122C101.777 37.1898 101.365 37.639 100.824 37.9599C100.292 38.2808 99.6593 38.4412 98.9259 38.4412C97.8166 38.4412 96.9411 38.102 96.2993 37.4236C95.6667 36.736 95.3504 35.7779 95.3504 34.5494C95.3504 33.7702 95.4925 33.0918 95.7768 32.5142C96.0701 31.9274 96.4827 31.4736 97.0144 31.1528C97.5553 30.8319 98.1925 30.6714 98.9259 30.6714ZM98.9259 32.2666C98.4859 32.2666 98.1558 32.4546 97.9358 32.8305C97.7158 33.1972 97.6058 33.7702 97.6058 34.5494C97.6058 35.347 97.7112 35.9292 97.922 36.2959C98.1421 36.6626 98.4767 36.846 98.9259 36.846C99.366 36.846 99.696 36.6626 99.916 36.2959C100.136 35.92 100.246 35.3425 100.246 34.5632C100.246 33.7656 100.136 33.1834 99.916 32.8167C99.7052 32.45 99.3751 32.2666 98.9259 32.2666Z" fill="black"/>
<path d="M108.291 34.1919C109.528 34.3386 110.147 34.9391 110.147 35.9934C110.147 36.736 109.854 37.2906 109.267 37.6574C108.689 38.0241 107.896 38.2074 106.888 38.2074H103.794V30.974C104.885 30.7723 105.847 30.6714 106.682 30.6714C107.672 30.6714 108.442 30.841 108.992 31.1803C109.551 31.5103 109.831 32.0008 109.831 32.6517C109.831 33.0642 109.698 33.4035 109.432 33.6693C109.175 33.926 108.795 34.1002 108.291 34.1919ZM106.64 32.0604C106.356 32.0604 106.132 32.0695 105.967 32.0879V33.7656H106.737C107.039 33.7656 107.273 33.6968 107.438 33.5593C107.603 33.4126 107.686 33.1926 107.686 32.8992C107.686 32.34 107.337 32.0604 106.64 32.0604ZM106.819 36.7772C107.553 36.7772 107.919 36.4518 107.919 35.8009C107.919 35.4983 107.832 35.2737 107.658 35.127C107.484 34.9803 107.209 34.907 106.833 34.907H105.967V36.7772H106.819Z" fill="black"/>
<path d="M121.134 38.2074H119.071V35.6083C119.071 35.0949 119.099 34.609 119.154 34.1506C119.209 33.6922 119.278 33.3072 119.36 32.9955L116.926 38.2074H114.712V30.9052H116.789V33.5456C116.789 34.0315 116.756 34.5082 116.692 34.9757C116.637 35.4433 116.573 35.8284 116.5 36.1309L118.906 30.9052H121.134V38.2074Z" fill="black"/>
<path d="M132.247 28.6774L132 30.4514H128.397V38.2074H126.141V28.6774H132.247Z" fill="black"/>
<path d="M138.108 34.4119C138.108 34.7145 138.094 34.9757 138.066 35.1958H133.542C133.615 35.81 133.79 36.2409 134.065 36.4884C134.34 36.736 134.72 36.8597 135.206 36.8597C135.499 36.8597 135.784 36.8093 136.059 36.7085C136.334 36.5985 136.632 36.4334 136.953 36.2134L137.846 37.4236C136.994 38.102 136.045 38.4412 135 38.4412C133.817 38.4412 132.91 38.0928 132.277 37.3961C131.644 36.6993 131.328 35.7642 131.328 34.5907C131.328 33.8481 131.461 33.1834 131.727 32.5967C131.993 32.0008 132.382 31.5332 132.896 31.194C133.409 30.8456 134.023 30.6714 134.739 30.6714C135.793 30.6714 136.618 31.0015 137.214 31.6616C137.81 32.3217 138.108 33.2384 138.108 34.4119ZM135.976 33.7931C135.958 32.6746 135.564 32.1154 134.794 32.1154C134.418 32.1154 134.124 32.2529 133.913 32.5279C133.712 32.803 133.588 33.2568 133.542 33.8894H135.976V33.7931Z" fill="black"/>
<path d="M143.454 30.6714C144.371 30.6714 145.054 31.0106 145.503 31.6891C145.952 32.3675 146.177 33.3164 146.177 34.5357C146.177 35.2875 146.058 35.9613 145.819 36.5572C145.59 37.144 145.255 37.6069 144.815 37.9461C144.375 38.2762 143.862 38.4412 143.275 38.4412C142.542 38.4412 141.95 38.1891 141.501 37.6849V41.0265L139.328 41.2603V30.9052H141.24L141.35 31.7166C141.634 31.359 141.959 31.0977 142.326 30.9327C142.693 30.7585 143.069 30.6714 143.454 30.6714ZM142.615 36.846C143.486 36.846 143.921 36.0851 143.921 34.5632C143.921 33.7014 143.825 33.1055 143.633 32.7755C143.44 32.4363 143.151 32.2666 142.766 32.2666C142.519 32.2666 142.285 32.34 142.065 32.4867C141.854 32.6334 141.666 32.8442 141.501 33.1193V36.1997C141.794 36.6306 142.166 36.846 142.615 36.846Z" fill="black"/>
<path d="M153.956 38.2074H151.893V35.6083C151.893 35.0949 151.921 34.609 151.976 34.1506C152.031 33.6922 152.099 33.3072 152.182 32.9955L149.748 38.2074H147.534V30.9052H149.61V33.5456C149.61 34.0315 149.578 34.5082 149.514 34.9757C149.459 35.4433 149.395 35.8284 149.321 36.1309L151.728 30.9052H153.956V38.2074Z" fill="black"/>
<path d="M161.462 36.0896C161.462 36.3647 161.498 36.5664 161.572 36.6947C161.654 36.8231 161.783 36.9193 161.957 36.9835L161.503 38.4C161.054 38.3633 160.687 38.267 160.403 38.1112C160.119 37.9461 159.899 37.6894 159.743 37.3411C159.266 38.0745 158.533 38.4412 157.543 38.4412C156.818 38.4412 156.241 38.2303 155.81 37.8086C155.379 37.3869 155.163 36.8368 155.163 36.1584C155.163 35.3608 155.457 34.7511 156.044 34.3294C156.63 33.9077 157.478 33.6968 158.588 33.6968H159.33V33.3805C159.33 32.9496 159.239 32.6563 159.055 32.5004C158.872 32.3354 158.551 32.2529 158.093 32.2529C157.854 32.2529 157.565 32.2896 157.226 32.3629C156.887 32.4271 156.539 32.5188 156.181 32.6379L155.686 31.2078C156.144 31.0336 156.612 30.9006 157.089 30.809C157.575 30.7173 158.024 30.6714 158.436 30.6714C159.482 30.6714 160.247 30.8869 160.733 31.3178C161.219 31.7487 161.462 32.395 161.462 33.2568V36.0896ZM158.175 36.8873C158.67 36.8873 159.055 36.6535 159.33 36.1859V34.8932H158.794C158.299 34.8932 157.928 34.9803 157.68 35.1545C157.442 35.3287 157.323 35.5992 157.323 35.9659C157.323 36.2593 157.396 36.4884 157.543 36.6535C157.698 36.8093 157.909 36.8873 158.175 36.8873Z" fill="black"/>
<path d="M168.645 30.9052L168.383 32.5142H166.403V38.2074H164.23V32.5142H162.099V30.9052H168.645Z" fill="black"/>
<path d="M173.536 30.6714C174.453 30.6714 175.136 31.0106 175.585 31.6891C176.034 32.3675 176.259 33.3164 176.259 34.5357C176.259 35.2875 176.14 35.9613 175.901 36.5572C175.672 37.144 175.337 37.6069 174.897 37.9461C174.457 38.2762 173.944 38.4412 173.357 38.4412C172.624 38.4412 172.032 38.1891 171.583 37.6849V41.0265L169.41 41.2603V30.9052H171.322L171.432 31.7166C171.716 31.359 172.042 31.0977 172.408 30.9327C172.775 30.7585 173.151 30.6714 173.536 30.6714ZM172.697 36.846C173.568 36.846 174.003 36.0851 174.003 34.5632C174.003 33.7014 173.907 33.1055 173.715 32.7755C173.522 32.4363 173.233 32.2666 172.848 32.2666C172.601 32.2666 172.367 32.34 172.147 32.4867C171.936 32.6334 171.748 32.8442 171.583 33.1193V36.1997C171.877 36.6306 172.248 36.846 172.697 36.846Z" fill="black"/>
<path d="M180.779 30.6714C181.897 30.6714 182.773 31.0152 183.405 31.7028C184.038 32.3812 184.354 33.3347 184.354 34.5632C184.354 35.3425 184.208 36.0255 183.914 36.6122C183.63 37.1898 183.217 37.639 182.676 37.9599C182.145 38.2808 181.512 38.4412 180.779 38.4412C179.669 38.4412 178.794 38.102 178.152 37.4236C177.52 36.736 177.203 35.7779 177.203 34.5494C177.203 33.7702 177.345 33.0918 177.63 32.5142C177.923 31.9274 178.335 31.4736 178.867 31.1528C179.408 30.8319 180.045 30.6714 180.779 30.6714ZM180.779 32.2666C180.339 32.2666 180.009 32.4546 179.789 32.8305C179.569 33.1972 179.459 33.7702 179.459 34.5494C179.459 35.347 179.564 35.9292 179.775 36.2959C179.995 36.6626 180.329 36.846 180.779 36.846C181.219 36.846 181.549 36.6626 181.769 36.2959C181.989 35.92 182.099 35.3425 182.099 34.5632C182.099 33.7656 181.989 33.1834 181.769 32.8167C181.558 32.45 181.228 32.2666 180.779 32.2666Z" fill="black"/>
<path d="M190.143 34.1919C191.381 34.3386 192 34.9391 192 35.9934C192 36.736 191.707 37.2906 191.12 37.6574C190.542 38.0241 189.749 38.2074 188.741 38.2074H185.647V30.974C186.738 30.7723 187.7 30.6714 188.535 30.6714C189.525 30.6714 190.295 30.841 190.845 31.1803C191.404 31.5103 191.684 32.0008 191.684 32.6517C191.684 33.0642 191.551 33.4035 191.285 33.6693C191.028 33.926 190.648 34.1002 190.143 34.1919ZM188.493 32.0604C188.209 32.0604 187.984 32.0695 187.819 32.0879V33.7656H188.59C188.892 33.7656 189.126 33.6968 189.291 33.5593C189.456 33.4126 189.538 33.1926 189.538 32.8992C189.538 32.34 189.19 32.0604 188.493 32.0604ZM188.672 36.7772C189.405 36.7772 189.772 36.4518 189.772 35.8009C189.772 35.4983 189.685 35.2737 189.511 35.127C189.337 34.9803 189.062 34.907 188.686 34.907H187.819V36.7772H188.672Z" fill="black"/>
<path d="M0.0961914 12.0527H17.2645L17.1326 15.1495C16.9397 19.6777 13.2126 23.2495 8.68034 23.2495C4.14808 23.2495 0.420959 19.6777 0.228093 15.1495L0.0961914 12.0527Z" fill="#668A27"/>
<path d="M17.2644 38.1777L0.0960979 38.1777L0.249527 34.3354C0.430224 29.8101 4.15135 26.2346 8.68025 26.2346C13.2092 26.2346 16.9303 29.8101 17.111 34.3354L17.2644 38.1777Z" fill="#668A27"/>
<path d="M4.11424 0V5.96782H3.29139V0.701586H0.822848V5.96782H0V0H4.11424Z" fill="black"/>
<path d="M7.89765 1.29923C8.48087 1.29923 8.90817 1.50711 9.17956 1.92287C9.45096 2.33862 9.58666 2.92472 9.58666 3.68116C9.58666 4.39719 9.43075 4.97462 9.11893 5.41348C8.80712 5.85233 8.36538 6.07175 7.79371 6.07175C7.28557 6.07175 6.88714 5.89852 6.59842 5.55206V7.71745L5.80155 7.81273V1.40317H6.48582L6.54645 2.01814C6.71391 1.78717 6.91601 1.61105 7.15276 1.48979C7.38951 1.36275 7.63781 1.29923 7.89765 1.29923ZM7.60316 5.42214C8.35383 5.42214 8.72916 4.84181 8.72916 3.68116C8.72916 2.51474 8.38559 1.93153 7.69844 1.93153C7.47324 1.93153 7.26825 1.99793 7.08347 2.13074C6.89869 2.26356 6.737 2.4339 6.59842 2.64178V4.8678C6.71391 5.0468 6.85827 5.18539 7.0315 5.28355C7.20473 5.37594 7.39528 5.42214 7.60316 5.42214Z" fill="black"/>
<path d="M14.4956 5.96782H13.7074V3.90636C13.7074 3.5599 13.7189 3.23076 13.742 2.91895C13.7651 2.60713 13.7853 2.40214 13.8027 2.30398L11.8885 5.96782H10.9444V1.40317H11.7326V3.46463C11.7326 3.77067 11.721 4.08826 11.6979 4.4174C11.6748 4.74076 11.6575 4.94864 11.6459 5.04103L13.5342 1.40317H14.4956V5.96782Z" fill="black"/>
<path d="M21.0979 5.96782V2.05279H19.227V5.96782H18.4302V1.40317H21.8948V5.96782H21.0979Z" fill="black"/>
<path d="M25.2541 1.29923C25.8951 1.29923 26.3917 1.51289 26.7439 1.94019C27.1019 2.36749 27.2809 2.94782 27.2809 3.68116C27.2809 4.15466 27.2001 4.5733 27.0384 4.93709C26.8767 5.2951 26.6429 5.57516 26.3368 5.77726C26.0308 5.97359 25.667 6.07175 25.2455 6.07175C24.6045 6.07175 24.105 5.8581 23.747 5.4308C23.389 5.0035 23.21 4.42317 23.21 3.68983C23.21 3.21633 23.2908 2.80057 23.4525 2.44256C23.6142 2.07877 23.8481 1.79872 24.1541 1.60239C24.4602 1.40029 24.8268 1.29923 25.2541 1.29923ZM25.2541 1.94019C24.463 1.94019 24.0675 2.5234 24.0675 3.68983C24.0675 4.85047 24.4602 5.4308 25.2455 5.4308C26.0308 5.4308 26.4235 4.84759 26.4235 3.68116C26.4235 2.52051 26.0337 1.94019 25.2541 1.94019Z" fill="black"/>
<path d="M32.1766 5.32686V7.26705H31.527L31.3971 5.96782H28.4695L28.3395 7.26705H27.6899V5.32686H28.0104C28.149 5.23447 28.2587 5.13053 28.3395 5.01504C28.4204 4.89378 28.4926 4.68591 28.5561 4.39141C28.6254 4.09692 28.6802 3.66673 28.7207 3.10084L28.8419 1.40317H31.7002V5.32686H32.1766ZM30.9034 2.03547H29.5608L29.4915 2.9969C29.4511 3.53392 29.4049 3.94679 29.353 4.2355C29.301 4.52422 29.2259 4.74654 29.1278 4.90244C29.0354 5.05835 28.8997 5.19982 28.7207 5.32686H30.9034V2.03547Z" fill="black"/>
<path d="M37.0826 5.32686V7.26705H36.433L36.303 5.96782H33.3754L33.2455 7.26705H32.5959V5.32686H32.9164C33.055 5.23447 33.1647 5.13053 33.2455 5.01504C33.3264 4.89378 33.3985 4.68591 33.4621 4.39141C33.5313 4.09692 33.5862 3.66673 33.6266 3.10084L33.7479 1.40317H36.6062V5.32686H37.0826ZM35.8093 2.03547H34.4668L34.3975 2.9969C34.3571 3.53392 34.3109 3.94679 34.2589 4.2355C34.2069 4.52422 34.1319 4.74654 34.0337 4.90244C33.9413 5.05835 33.8056 5.19982 33.6266 5.32686H35.8093V2.03547Z" fill="black"/>
<path d="M41.679 3.55124C41.679 3.68405 41.6732 3.81975 41.6616 3.95833H38.7514C38.786 4.4607 38.913 4.83026 39.1325 5.06701C39.3519 5.30376 39.6348 5.42214 39.9813 5.42214C40.2007 5.42214 40.4028 5.39038 40.5876 5.32686C40.7724 5.26334 40.9658 5.16229 41.1679 5.02371L41.5144 5.50009C41.0293 5.8812 40.4981 6.07175 39.9207 6.07175C39.2855 6.07175 38.7889 5.86388 38.4309 5.44812C38.0786 5.03237 37.9025 4.4607 37.9025 3.73313C37.9025 3.25963 37.9776 2.84099 38.1277 2.47721C38.2836 2.10765 38.5031 1.81893 38.786 1.61105C39.0747 1.40317 39.4125 1.29923 39.7994 1.29923C40.4057 1.29923 40.8705 1.49845 41.1939 1.89688C41.5173 2.29531 41.679 2.84677 41.679 3.55124ZM40.8908 3.31738C40.8908 2.86698 40.8013 2.5234 40.6223 2.28665C40.4432 2.0499 40.1747 1.93153 39.8167 1.93153C39.1642 1.93153 38.8091 2.4108 38.7514 3.36935H40.8908V3.31738Z" fill="black"/>
<path d="M45.0476 1.29923C45.6308 1.29923 46.0582 1.50711 46.3295 1.92287C46.6009 2.33862 46.7366 2.92472 46.7366 3.68116C46.7366 4.39719 46.5807 4.97462 46.2689 5.41348C45.9571 5.85233 45.5154 6.07175 44.9437 6.07175C44.4355 6.07175 44.0371 5.89852 43.7484 5.55206V7.71745L42.9515 7.81273V1.40317H43.6358L43.6964 2.01814C43.8639 1.78717 44.066 1.61105 44.3027 1.48979C44.5395 1.36275 44.7878 1.29923 45.0476 1.29923ZM44.7531 5.42214C45.5038 5.42214 45.8791 4.84181 45.8791 3.68116C45.8791 2.51474 45.5356 1.93153 44.8484 1.93153C44.6232 1.93153 44.4182 1.99793 44.2334 2.13074C44.0487 2.26356 43.887 2.4339 43.7484 2.64178V4.8678C43.8639 5.0468 44.0082 5.18539 44.1815 5.28355C44.3547 5.37594 44.5453 5.42214 44.7531 5.42214Z" fill="black"/>
<path d="M53.0852 1.40317L51.9419 3.54258L53.2498 5.96782H52.375L51.2923 3.8977H50.686V5.96782H49.9238V3.8977H49.3261L48.2348 5.96782H47.3686L48.6765 3.54258L47.5332 1.40317H48.3647L49.3174 3.27407H49.9238V1.40317H50.686V3.27407H51.3009L52.2624 1.40317H53.0852Z" fill="black"/>
<path d="M57.665 1.40317L56.2792 3.51659L57.8296 5.96782H56.8855L55.6209 3.86306H55.0406V5.96782H54.2437V1.40317H55.0406V3.23942H55.6382L56.7902 1.40317H57.665Z" fill="black"/>
<path d="M62.1064 3.55124C62.1064 3.68405 62.1006 3.81975 62.0891 3.95833H59.1788C59.2134 4.4607 59.3405 4.83026 59.5599 5.06701C59.7793 5.30376 60.0622 5.42214 60.4087 5.42214C60.6281 5.42214 60.8302 5.39038 61.015 5.32686C61.1998 5.26334 61.3932 5.16229 61.5953 5.02371L61.9418 5.50009C61.4568 5.8812 60.9255 6.07175 60.3481 6.07175C59.7129 6.07175 59.2163 5.86388 58.8583 5.44812C58.5061 5.03237 58.3299 4.4607 58.3299 3.73313C58.3299 3.25963 58.405 2.84099 58.5551 2.47721C58.711 2.10765 58.9305 1.81893 59.2134 1.61105C59.5021 1.40317 59.8399 1.29923 60.2268 1.29923C60.8331 1.29923 61.298 1.49845 61.6213 1.89688C61.9447 2.29531 62.1064 2.84677 62.1064 3.55124ZM61.3182 3.31738C61.3182 2.86698 61.2287 2.5234 61.0497 2.28665C60.8707 2.0499 60.6021 1.93153 60.2441 1.93153C59.5916 1.93153 59.2365 2.4108 59.1788 3.36935H61.3182V3.31738Z" fill="black"/>
</svg>
