<svg width="192" height="42" viewBox="0 0 192 42" fill="none" xmlns="http://www.w3.org/2000/svg">
<g opacity="0.4">
<path d="M21.4598 12.0784L21.69 13.7276H23.7743L23.7743 12.0784L21.4598 12.0784Z" fill="#3C3C51"/>
<path d="M21.4598 28.6785L21.7082 30.4582H23.9575L23.9575 28.6785L21.4598 28.6785Z" fill="#3C3C51"/>
<path d="M124.86 28.6785L125.108 30.4582H127.358L127.358 28.6785L124.86 28.6785Z" fill="#3C3C51"/>
<path d="M25.8551 12.0768C27.1111 12.0768 28.0875 12.3381 28.7843 12.8607C29.481 13.3832 29.8294 14.1579 29.8294 15.1847C29.8294 16.2574 29.4856 17.0687 28.798 17.6188C28.1196 18.1597 27.2074 18.4302 26.0614 18.4302H25.03V21.6068H22.7747V12.0768H25.8551ZM25.8689 16.8074C26.4006 16.8074 26.804 16.6837 27.079 16.4362C27.3632 16.1794 27.5053 15.7623 27.5053 15.1847C27.5053 14.1854 26.9461 13.6858 25.8276 13.6858H25.03V16.8074H25.8689Z" fill="#3C3C51"/>
<path d="M33.7258 14.0708C34.8443 14.0708 35.7198 14.4146 36.3524 15.1022C36.985 15.7806 37.3012 16.7341 37.3012 17.9626C37.3012 18.7419 37.1546 19.4249 36.8612 20.0116C36.577 20.5892 36.1644 21.0384 35.6235 21.3593C35.0918 21.6802 34.4592 21.8406 33.7258 21.8406C32.6165 21.8406 31.7409 21.5014 31.0992 20.823C30.4666 20.1354 30.1503 19.1773 30.1503 17.9488C30.1503 17.1696 30.2924 16.4912 30.5766 15.9136C30.87 15.3268 31.2825 14.873 31.8143 14.5522C32.3552 14.2313 32.9923 14.0708 33.7258 14.0708ZM33.7258 15.666C33.2857 15.666 32.9557 15.854 32.7356 16.2299C32.5156 16.5966 32.4056 17.1696 32.4056 17.9488C32.4056 18.7465 32.511 19.3286 32.7219 19.6953C32.9419 20.062 33.2766 20.2454 33.7258 20.2454C34.1658 20.2454 34.4959 20.062 34.7159 19.6953C34.9359 19.3194 35.0459 18.7419 35.0459 17.9626C35.0459 17.165 34.9359 16.5828 34.7159 16.2161C34.505 15.8494 34.175 15.666 33.7258 15.666Z" fill="#3C3C51"/>
<path d="M41.7566 14.0708C42.2608 14.0708 42.7147 14.1442 43.118 14.2909C43.5214 14.4376 43.9019 14.6622 44.2594 14.9647L43.3243 16.2574C42.8659 15.909 42.4029 15.7348 41.9354 15.7348C41.4495 15.7348 41.0828 15.9136 40.8352 16.2711C40.5877 16.6287 40.4639 17.2063 40.4639 18.0039C40.4639 18.774 40.5877 19.3194 40.8352 19.6403C41.0828 19.9612 41.4403 20.1216 41.9079 20.1216C42.1554 20.1216 42.38 20.085 42.5817 20.0116C42.7834 19.9291 43.0264 19.8008 43.3106 19.6266L44.2594 20.9742C43.5352 21.5518 42.7147 21.8406 41.7979 21.8406C41.0553 21.8406 40.4135 21.6848 39.8726 21.373C39.3317 21.0522 38.9146 20.6075 38.6212 20.0391C38.3278 19.4615 38.1811 18.7877 38.1811 18.0176C38.1811 17.2475 38.3278 16.5645 38.6212 15.9686C38.9146 15.3727 39.3317 14.9097 39.8726 14.5797C40.4135 14.2404 41.0415 14.0708 41.7566 14.0708Z" fill="#3C3C51"/>
<path d="M48.0685 14.0708C48.5727 14.0708 49.0265 14.1442 49.4299 14.2909C49.8333 14.4376 50.2138 14.6622 50.5713 14.9647L49.6362 16.2574C49.1778 15.909 48.7148 15.7348 48.2473 15.7348C47.7614 15.7348 47.3946 15.9136 47.1471 16.2711C46.8996 16.6287 46.7758 17.2063 46.7758 18.0039C46.7758 18.774 46.8996 19.3194 47.1471 19.6403C47.3946 19.9612 47.7522 20.1216 48.2197 20.1216C48.4673 20.1216 48.6919 20.085 48.8936 20.0116C49.0953 19.9291 49.3382 19.8008 49.6224 19.6266L50.5713 20.9742C49.847 21.5518 49.0265 21.8406 48.1097 21.8406C47.3671 21.8406 46.7254 21.6848 46.1845 21.373C45.6436 21.0522 45.2264 20.6075 44.9331 20.0391C44.6397 19.4615 44.493 18.7877 44.493 18.0176C44.493 17.2475 44.6397 16.5645 44.9331 15.9686C45.2264 15.3727 45.6436 14.9097 46.1845 14.5797C46.7254 14.2404 47.3534 14.0708 48.0685 14.0708Z" fill="#3C3C51"/>
<path d="M57.9081 21.6068H55.8453V19.0077C55.8453 18.4943 55.8728 18.0084 55.9278 17.55C55.9829 17.0917 56.0516 16.7066 56.1341 16.3949L53.7001 21.6068H51.486V14.3046H53.5625V16.945C53.5625 17.4309 53.5305 17.9076 53.4663 18.3752C53.4113 18.8427 53.3471 19.2278 53.2737 19.5303L55.6803 14.3046H57.9081V21.6068Z" fill="#3C3C51"/>
<path d="M66.033 21.6068H63.9702V19.0077C63.9702 18.4943 63.9977 18.0084 64.0527 17.55C64.1077 17.0917 64.1765 16.7066 64.259 16.3949L61.8249 21.6068H59.6109V14.3046H61.6874V16.945C61.6874 17.4309 61.6553 17.9076 61.5911 18.3752C61.5361 18.8427 61.4719 19.2278 61.3986 19.5303L63.8052 14.3046H66.033V21.6068ZM62.815 12.9157C62.1091 12.9157 61.5499 12.7232 61.1373 12.3381C60.7339 11.9531 60.5047 11.4397 60.4497 10.7979L61.6461 10.5779C61.7286 10.8713 61.8616 11.0821 62.0449 11.2105C62.2375 11.3388 62.4942 11.403 62.815 11.403C63.1359 11.403 63.388 11.3388 63.5714 11.2105C63.7639 11.0821 63.906 10.8713 63.9977 10.5779L65.1941 10.7979C65.1391 11.4397 64.9053 11.9531 64.4928 12.3381C64.0802 12.7232 63.521 12.9157 62.815 12.9157Z" fill="#3C3C51"/>
<path d="M70.8986 14.0708C71.4029 14.0708 71.8567 14.1442 72.26 14.2909C72.6634 14.4376 73.0439 14.6622 73.4015 14.9647L72.4663 16.2574C72.0079 15.909 71.545 15.7348 71.0774 15.7348C70.5915 15.7348 70.2248 15.9136 69.9772 16.2711C69.7297 16.6287 69.606 17.2063 69.606 18.0039C69.606 18.774 69.7297 19.3194 69.9772 19.6403C70.2248 19.9612 70.5823 20.1216 71.0499 20.1216C71.2974 20.1216 71.522 20.085 71.7237 20.0116C71.9254 19.9291 72.1684 19.8008 72.4526 19.6266L73.4015 20.9742C72.6772 21.5518 71.8567 21.8406 70.9399 21.8406C70.1973 21.8406 69.5555 21.6848 69.0146 21.373C68.4737 21.0522 68.0566 20.6075 67.7632 20.0391C67.4698 19.4615 67.3232 18.7877 67.3232 18.0176C67.3232 17.2475 67.4698 16.5645 67.7632 15.9686C68.0566 15.3727 68.4737 14.9097 69.0146 14.5797C69.5555 14.2404 70.1835 14.0708 70.8986 14.0708Z" fill="#3C3C51"/>
<path d="M80.8758 14.3046L78.9368 17.6876L81.0408 21.6068H78.7442L77.149 18.4714H76.4889V21.6068H74.3162V14.3046H76.4889V17.1512H77.204L78.7855 14.3046H80.8758Z" fill="#3C3C51"/>
<path d="M87.4519 19.489C87.4519 19.7641 87.4886 19.9658 87.5619 20.0941C87.6445 20.2225 87.7728 20.3187 87.947 20.3829L87.4932 21.7994C87.044 21.7627 86.6772 21.6664 86.393 21.5106C86.1088 21.3455 85.8888 21.0888 85.7329 20.7405C85.2562 21.4739 84.5228 21.8406 83.5327 21.8406C82.8084 21.8406 82.2308 21.6297 81.7999 21.208C81.369 20.7863 81.1536 20.2362 81.1536 19.5578C81.1536 18.7602 81.447 18.1505 82.0337 17.7288C82.6205 17.3071 83.4685 17.0962 84.5778 17.0962H85.3204V16.7799C85.3204 16.3491 85.2287 16.0557 85.0454 15.8998C84.862 15.7348 84.5411 15.6523 84.0827 15.6523C83.8444 15.6523 83.5556 15.689 83.2164 15.7623C82.8772 15.8265 82.5288 15.9182 82.1712 16.0373L81.6762 14.6072C82.1346 14.433 82.6021 14.3 83.0788 14.2084C83.5647 14.1167 84.014 14.0708 84.4265 14.0708C85.4717 14.0708 86.2372 14.2863 86.7231 14.7172C87.209 15.1481 87.4519 15.7944 87.4519 16.6562V19.489ZM84.1652 20.2867C84.6603 20.2867 85.0454 20.0529 85.3204 19.5853V18.2926H84.7841C84.289 18.2926 83.9177 18.3797 83.6702 18.5539C83.4318 18.7281 83.3126 18.9986 83.3126 19.3653C83.3126 19.6587 83.386 19.8879 83.5327 20.0529C83.6885 20.2087 83.8994 20.2867 84.1652 20.2867Z" fill="#3C3C51"/>
<path d="M95.1371 14.3046V21.6068H92.9643V19.0627H92.0292L90.7091 21.6068H88.385L90.0627 18.5539C89.7052 18.3614 89.4256 18.1093 89.2239 17.7976C89.0313 17.4767 88.9351 17.1054 88.9351 16.6837C88.9351 15.9044 89.2239 15.3131 89.8014 14.9097C90.3882 14.5063 91.2362 14.3046 92.3455 14.3046H95.1371ZM92.9643 17.7701V15.6936H92.3318C91.9376 15.6936 91.6396 15.7806 91.4379 15.9548C91.2454 16.129 91.1491 16.3766 91.1491 16.6974C91.1491 17.0366 91.2408 17.3025 91.4242 17.495C91.6167 17.6784 91.9055 17.7701 92.2905 17.7701H92.9643Z" fill="#3C3C51"/>
<path d="M105.161 21.6068L104.666 19.5578H101.889L101.407 21.6068H99.0694L101.944 12.0768H104.68L107.554 21.6068H105.161ZM102.274 17.9213H104.281L103.277 13.7133L102.274 17.9213Z" fill="#3C3C51"/>
<path d="M111.375 14.0708C111.879 14.0708 112.333 14.1442 112.737 14.2909C113.14 14.4376 113.52 14.6622 113.878 14.9647L112.943 16.2574C112.484 15.909 112.021 15.7348 111.554 15.7348C111.068 15.7348 110.701 15.9136 110.454 16.2711C110.206 16.6287 110.082 17.2063 110.082 18.0039C110.082 18.774 110.206 19.3194 110.454 19.6403C110.701 19.9612 111.059 20.1216 111.526 20.1216C111.774 20.1216 111.999 20.085 112.2 20.0116C112.402 19.9291 112.645 19.8008 112.929 19.6266L113.878 20.9742C113.154 21.5518 112.333 21.8406 111.416 21.8406C110.674 21.8406 110.032 21.6848 109.491 21.373C108.95 21.0522 108.533 20.6075 108.24 20.0391C107.946 19.4615 107.8 18.7877 107.8 18.0176C107.8 17.2475 107.946 16.5645 108.24 15.9686C108.533 15.3727 108.95 14.9097 109.491 14.5797C110.032 14.2404 110.66 14.0708 111.375 14.0708Z" fill="#3C3C51"/>
<path d="M117.687 14.0708C118.191 14.0708 118.645 14.1442 119.048 14.2909C119.452 14.4376 119.832 14.6622 120.19 14.9647L119.255 16.2574C118.796 15.909 118.333 15.7348 117.866 15.7348C117.38 15.7348 117.013 15.9136 116.766 16.2711C116.518 16.6287 116.394 17.2063 116.394 18.0039C116.394 18.774 116.518 19.3194 116.766 19.6403C117.013 19.9612 117.371 20.1216 117.838 20.1216C118.086 20.1216 118.31 20.085 118.512 20.0116C118.714 19.9291 118.957 19.8008 119.241 19.6266L120.19 20.9742C119.466 21.5518 118.645 21.8406 117.728 21.8406C116.986 21.8406 116.344 21.6848 115.803 21.373C115.262 21.0522 114.845 20.6075 114.552 20.0391C114.258 19.4615 114.112 18.7877 114.112 18.0176C114.112 17.2475 114.258 16.5645 114.552 15.9686C114.845 15.3727 115.262 14.9097 115.803 14.5797C116.344 14.2404 116.972 14.0708 117.687 14.0708Z" fill="#3C3C51"/>
<path d="M123.999 14.0708C125.117 14.0708 125.993 14.4146 126.625 15.1022C127.258 15.7806 127.574 16.7341 127.574 17.9626C127.574 18.7419 127.428 19.4249 127.134 20.0116C126.85 20.5892 126.438 21.0384 125.897 21.3593C125.365 21.6802 124.732 21.8406 123.999 21.8406C122.89 21.8406 122.014 21.5014 121.372 20.823C120.74 20.1354 120.423 19.1773 120.423 17.9488C120.423 17.1696 120.565 16.4912 120.85 15.9136C121.143 15.3268 121.556 14.873 122.087 14.5522C122.628 14.2313 123.265 14.0708 123.999 14.0708ZM123.999 15.666C123.559 15.666 123.229 15.854 123.009 16.2299C122.789 16.5966 122.679 17.1696 122.679 17.9488C122.679 18.7465 122.784 19.3286 122.995 19.6953C123.215 20.062 123.55 20.2454 123.999 20.2454C124.439 20.2454 124.769 20.062 124.989 19.6953C125.209 19.3194 125.319 18.7419 125.319 17.9626C125.319 17.165 125.209 16.5828 124.989 16.2161C124.778 15.8494 124.448 15.666 123.999 15.666Z" fill="#3C3C51"/>
<path d="M135.096 20.0116H136.196V23.8896H134.684L134.436 21.6068H128.867V14.3046H131.04V19.9979H132.924V14.3046H135.096V20.0116Z" fill="#3C3C51"/>
<path d="M143.454 21.6068H141.391V19.0077C141.391 18.4943 141.419 18.0084 141.474 17.55C141.529 17.0917 141.598 16.7066 141.68 16.3949L139.246 21.6068H137.032V14.3046H139.108V16.945C139.108 17.4309 139.076 17.9076 139.012 18.3752C138.957 18.8427 138.893 19.2278 138.82 19.5303L141.226 14.3046H143.454V21.6068Z" fill="#3C3C51"/>
<path d="M150.96 19.489C150.96 19.7641 150.997 19.9658 151.07 20.0941C151.153 20.2225 151.281 20.3187 151.455 20.3829L151.001 21.7994C150.552 21.7627 150.185 21.6664 149.901 21.5106C149.617 21.3455 149.397 21.0888 149.241 20.7405C148.764 21.4739 148.031 21.8406 147.041 21.8406C146.316 21.8406 145.739 21.6297 145.308 21.208C144.877 20.7863 144.662 20.2362 144.662 19.5578C144.662 18.7602 144.955 18.1505 145.542 17.7288C146.129 17.3071 146.977 17.0962 148.086 17.0962H148.828V16.7799C148.828 16.3491 148.737 16.0557 148.553 15.8998C148.37 15.7348 148.049 15.6523 147.591 15.6523C147.352 15.6523 147.064 15.689 146.724 15.7623C146.385 15.8265 146.037 15.9182 145.679 16.0373L145.184 14.6072C145.643 14.433 146.11 14.3 146.587 14.2084C147.073 14.1167 147.522 14.0708 147.935 14.0708C148.98 14.0708 149.745 14.2863 150.231 14.7172C150.717 15.1481 150.96 15.7944 150.96 16.6562V19.489ZM147.673 20.2867C148.168 20.2867 148.553 20.0529 148.828 19.5853V18.2926H148.292C147.797 18.2926 147.426 18.3797 147.178 18.5539C146.94 18.7281 146.821 18.9986 146.821 19.3653C146.821 19.6587 146.894 19.8879 147.041 20.0529C147.197 20.2087 147.407 20.2867 147.673 20.2867Z" fill="#3C3C51"/>
<path d="M158.92 20.0116H160.02V23.8896H158.508L158.26 21.6068H152.691V14.3046H154.863V19.9979H156.747V14.3046H158.92V20.0116Z" fill="#3C3C51"/>
<path d="M167.278 21.6068H165.215V19.0077C165.215 18.4943 165.243 18.0084 165.298 17.55C165.353 17.0917 165.421 16.7066 165.504 16.3949L163.07 21.6068H160.856V14.3046H162.932V16.945C162.932 17.4309 162.9 17.9076 162.836 18.3752C162.781 18.8427 162.717 19.2278 162.644 19.5303L165.05 14.3046H167.278V21.6068Z" fill="#3C3C51"/>
<path d="M174.935 14.3046V21.6068H172.762V19.0627H171.827L170.507 21.6068H168.183L169.861 18.5539C169.503 18.3614 169.224 18.1093 169.022 17.7976C168.829 17.4767 168.733 17.1054 168.733 16.6837C168.733 15.9044 169.022 15.3131 169.6 14.9097C170.186 14.5063 171.034 14.3046 172.144 14.3046H174.935ZM172.762 17.7701V15.6936H172.13C171.736 15.6936 171.438 15.7806 171.236 15.9548C171.043 16.129 170.947 16.3766 170.947 16.6974C170.947 17.0366 171.039 17.3025 171.222 17.495C171.415 17.6784 171.704 17.7701 172.089 17.7701H172.762Z" fill="#3C3C51"/>
<path d="M28.8805 28.6782L28.633 30.4521H25.03V38.2082H22.7747V28.6782H28.8805Z" fill="#3C3C51"/>
<path d="M34.7409 34.4127C34.7409 34.7152 34.7272 34.9765 34.6997 35.1965H30.1753C30.2487 35.8108 30.4229 36.2416 30.6979 36.4892C30.9729 36.7367 31.3534 36.8605 31.8393 36.8605C32.1327 36.8605 32.4169 36.8101 32.6919 36.7092C32.967 36.5992 33.2649 36.4342 33.5858 36.2141L34.4797 37.4243C33.627 38.1027 32.6782 38.4419 31.633 38.4419C30.4504 38.4419 29.5428 38.0936 28.9102 37.3968C28.2776 36.7 27.9613 35.7649 27.9613 34.5914C27.9613 33.8488 28.0942 33.1842 28.3601 32.5974C28.626 32.0015 29.0156 31.5339 29.529 31.1947C30.0424 30.8464 30.6567 30.6722 31.3717 30.6722C32.4261 30.6722 33.2512 31.0022 33.8471 31.6623C34.443 32.3224 34.7409 33.2392 34.7409 34.4127ZM32.6094 33.7938C32.5911 32.6753 32.1969 32.1161 31.4268 32.1161C31.0509 32.1161 30.7575 32.2536 30.5466 32.5287C30.3449 32.8037 30.2212 33.2575 30.1753 33.8901H32.6094V33.7938Z" fill="#3C3C51"/>
<path d="M40.0871 30.6722C41.0038 30.6722 41.6869 31.0114 42.1361 31.6898C42.5853 32.3682 42.8099 33.3171 42.8099 34.5364C42.8099 35.2882 42.6907 35.962 42.4524 36.5579C42.2232 37.1447 41.8885 37.6077 41.4485 37.9469C41.0084 38.2769 40.495 38.4419 39.9083 38.4419C39.1749 38.4419 38.5835 38.1898 38.1343 37.6856V41.0273L35.9615 41.2611V30.9059H37.873L37.983 31.7173C38.2672 31.3598 38.5927 31.0985 38.9594 30.9335C39.3261 30.7593 39.702 30.6722 40.0871 30.6722ZM39.2482 36.8467C40.1191 36.8467 40.5546 36.0858 40.5546 34.5639C40.5546 33.7021 40.4584 33.1062 40.2658 32.7762C40.0733 32.437 39.7845 32.2674 39.3995 32.2674C39.1519 32.2674 38.9182 32.3407 38.6981 32.4874C38.4873 32.6341 38.2993 32.845 38.1343 33.12V36.2004C38.4277 36.6313 38.799 36.8467 39.2482 36.8467Z" fill="#3C3C51"/>
<path d="M47.3299 30.6722C48.4483 30.6722 49.3239 31.016 49.9564 31.7036C50.589 32.382 50.9053 33.3354 50.9053 34.5639C50.9053 35.3432 50.7586 36.0262 50.4653 36.6129C50.1811 37.1905 49.7685 37.6397 49.2276 37.9606C48.6959 38.2815 48.0633 38.4419 47.3299 38.4419C46.2205 38.4419 45.345 38.1027 44.7033 37.4243C44.0707 36.7367 43.7544 35.7787 43.7544 34.5502C43.7544 33.7709 43.8965 33.0925 44.1807 32.5149C44.4741 31.9282 44.8866 31.4744 45.4184 31.1535C45.9593 30.8326 46.5964 30.6722 47.3299 30.6722ZM47.3299 32.2674C46.8898 32.2674 46.5598 32.4553 46.3397 32.8312C46.1197 33.1979 46.0097 33.7709 46.0097 34.5502C46.0097 35.3478 46.1151 35.9299 46.326 36.2967C46.546 36.6634 46.8806 36.8467 47.3299 36.8467C47.7699 36.8467 48.1 36.6634 48.32 36.2967C48.54 35.9208 48.65 35.3432 48.65 34.5639C48.65 33.7663 48.54 33.1842 48.32 32.8174C48.1091 32.4507 47.7791 32.2674 47.3299 32.2674Z" fill="#3C3C51"/>
<path d="M56.3783 38.2082V35.3065H54.3706V38.2082H52.1978V30.9059H54.3706V33.6976H56.3783V30.9059H58.5511V38.2082H56.3783Z" fill="#3C3C51"/>
<path d="M65.9762 30.9059L65.7149 32.5149H63.7347V38.2082H61.5619V32.5149H59.4304V30.9059H65.9762Z" fill="#3C3C51"/>
<path d="M69.5557 30.6722C70.6742 30.6722 71.5497 31.016 72.1823 31.7036C72.8148 32.382 73.1311 33.3354 73.1311 34.5639C73.1311 35.3432 72.9845 36.0262 72.6911 36.6129C72.4069 37.1905 71.9943 37.6397 71.4534 37.9606C70.9217 38.2815 70.2891 38.4419 69.5557 38.4419C68.4464 38.4419 67.5708 38.1027 66.9291 37.4243C66.2965 36.7367 65.9802 35.7787 65.9802 34.5502C65.9802 33.7709 66.1223 33.0925 66.4065 32.5149C66.6999 31.9282 67.1124 31.4744 67.6442 31.1535C68.1851 30.8326 68.8222 30.6722 69.5557 30.6722ZM69.5557 32.2674C69.1156 32.2674 68.7856 32.4553 68.5655 32.8312C68.3455 33.1979 68.2355 33.7709 68.2355 34.5502C68.2355 35.3478 68.3409 35.9299 68.5518 36.2967C68.7718 36.6634 69.1064 36.8467 69.5557 36.8467C69.9957 36.8467 70.3258 36.6634 70.5458 36.2967C70.7658 35.9208 70.8758 35.3432 70.8758 34.5639C70.8758 33.7663 70.7658 33.1842 70.5458 32.8174C70.3349 32.4507 70.0049 32.2674 69.5557 32.2674Z" fill="#3C3C51"/>
<path d="M80.4226 30.9059V38.2082H78.2498V32.5012H76.8609L76.7234 34.0551C76.6225 35.1278 76.5033 35.9299 76.3658 36.4617C76.2375 36.9842 76.0083 37.3968 75.6782 37.6993C75.3482 38.0019 74.844 38.2311 74.1655 38.3869L73.6292 36.8055C73.9318 36.668 74.1426 36.5259 74.2618 36.3792C74.3901 36.2233 74.4864 35.9804 74.5506 35.6503C74.6148 35.3111 74.6743 34.7427 74.7294 33.9451L74.9494 30.9059H80.4226Z" fill="#3C3C51"/>
<path d="M85.295 30.6722C86.4135 30.6722 87.2891 31.016 87.9216 31.7036C88.5542 32.382 88.8705 33.3354 88.8705 34.5639C88.8705 35.3432 88.7238 36.0262 88.4305 36.6129C88.1462 37.1905 87.7337 37.6397 87.1928 37.9606C86.6611 38.2815 86.0285 38.4419 85.295 38.4419C84.1857 38.4419 83.3102 38.1027 82.6684 37.4243C82.0359 36.7367 81.7196 35.7787 81.7196 34.5502C81.7196 33.7709 81.8617 33.0925 82.1459 32.5149C82.4392 31.9282 82.8518 31.4744 83.3835 31.1535C83.9244 30.8326 84.5616 30.6722 85.295 30.6722ZM85.295 32.2674C84.855 32.2674 84.5249 32.4553 84.3049 32.8312C84.0849 33.1979 83.9749 33.7709 83.9749 34.5502C83.9749 35.3478 84.0803 35.9299 84.2912 36.2967C84.5112 36.6634 84.8458 36.8467 85.295 36.8467C85.7351 36.8467 86.0651 36.6634 86.2852 36.2967C86.5052 35.9208 86.6152 35.3432 86.6152 34.5639C86.6152 33.7663 86.5052 33.1842 86.2852 32.8174C86.0743 32.4507 85.7443 32.2674 85.295 32.2674Z" fill="#3C3C51"/>
<path d="M92.3357 38.2082H90.163V30.9059H95.3336L95.0724 32.5562H92.3357V38.2082Z" fill="#3C3C51"/>
<path d="M98.926 30.6722C100.044 30.6722 100.92 31.016 101.553 31.7036C102.185 32.382 102.501 33.3354 102.501 34.5639C102.501 35.3432 102.355 36.0262 102.061 36.6129C101.777 37.1905 101.365 37.6397 100.824 37.9606C100.292 38.2815 99.6594 38.4419 98.926 38.4419C97.8167 38.4419 96.9411 38.1027 96.2994 37.4243C95.6668 36.7367 95.3505 35.7787 95.3505 34.5502C95.3505 33.7709 95.4926 33.0925 95.7768 32.5149C96.0702 31.9282 96.4827 31.4744 97.0145 31.1535C97.5554 30.8326 98.1925 30.6722 98.926 30.6722ZM98.926 32.2674C98.4859 32.2674 98.1559 32.4553 97.9358 32.8312C97.7158 33.1979 97.6058 33.7709 97.6058 34.5502C97.6058 35.3478 97.7112 35.9299 97.9221 36.2967C98.1421 36.6634 98.4767 36.8467 98.926 36.8467C99.366 36.8467 99.6961 36.6634 99.9161 36.2967C100.136 35.9208 100.246 35.3432 100.246 34.5639C100.246 33.7663 100.136 33.1842 99.9161 32.8174C99.7052 32.4507 99.3752 32.2674 98.926 32.2674Z" fill="#3C3C51"/>
<path d="M108.291 34.1926C109.528 34.3393 110.147 34.9398 110.147 35.9941C110.147 36.7367 109.854 37.2914 109.267 37.6581C108.69 38.0248 107.897 38.2082 106.888 38.2082H103.794V30.9747C104.885 30.773 105.848 30.6722 106.682 30.6722C107.672 30.6722 108.442 30.8418 108.992 31.181C109.551 31.511 109.831 32.0015 109.831 32.6524C109.831 33.065 109.698 33.4042 109.432 33.6701C109.175 33.9268 108.795 34.101 108.291 34.1926ZM106.641 32.0611C106.356 32.0611 106.132 32.0703 105.967 32.0886V33.7663H106.737C107.039 33.7663 107.273 33.6976 107.438 33.56C107.603 33.4134 107.686 33.1933 107.686 32.9C107.686 32.3407 107.337 32.0611 106.641 32.0611ZM106.819 36.778C107.553 36.778 107.919 36.4525 107.919 35.8016C107.919 35.4991 107.832 35.2744 107.658 35.1278C107.484 34.9811 107.209 34.9077 106.833 34.9077H105.967V36.778H106.819Z" fill="#3C3C51"/>
<path d="M121.134 38.2082H119.071V35.6091C119.071 35.0957 119.099 34.6098 119.154 34.1514C119.209 33.693 119.278 33.3079 119.36 32.9962L116.926 38.2082H114.712V30.9059H116.789V33.5463C116.789 34.0322 116.757 34.5089 116.692 34.9765C116.637 35.444 116.573 35.8291 116.5 36.1316L118.906 30.9059H121.134V38.2082Z" fill="#3C3C51"/>
<path d="M132.247 28.6782L132 30.4521H128.397V38.2082H126.142V28.6782H132.247Z" fill="#3C3C51"/>
<path d="M138.108 34.4127C138.108 34.7152 138.094 34.9765 138.067 35.1965H133.542C133.616 35.8108 133.79 36.2416 134.065 36.4892C134.34 36.7367 134.72 36.8605 135.206 36.8605C135.5 36.8605 135.784 36.8101 136.059 36.7092C136.334 36.5992 136.632 36.4342 136.953 36.2141L137.846 37.4243C136.994 38.1027 136.045 38.4419 135 38.4419C133.817 38.4419 132.91 38.0936 132.277 37.3968C131.644 36.7 131.328 35.7649 131.328 34.5914C131.328 33.8488 131.461 33.1842 131.727 32.5974C131.993 32.0015 132.382 31.5339 132.896 31.1947C133.409 30.8464 134.023 30.6722 134.739 30.6722C135.793 30.6722 136.618 31.0022 137.214 31.6623C137.81 32.3224 138.108 33.2392 138.108 34.4127ZM135.976 33.7938C135.958 32.6753 135.564 32.1161 134.794 32.1161C134.418 32.1161 134.124 32.2536 133.913 32.5287C133.712 32.8037 133.588 33.2575 133.542 33.8901H135.976V33.7938Z" fill="#3C3C51"/>
<path d="M143.454 30.6722C144.371 30.6722 145.054 31.0114 145.503 31.6898C145.952 32.3682 146.177 33.3171 146.177 34.5364C146.177 35.2882 146.058 35.962 145.819 36.5579C145.59 37.1447 145.255 37.6077 144.815 37.9469C144.375 38.2769 143.862 38.4419 143.275 38.4419C142.542 38.4419 141.95 38.1898 141.501 37.6856V41.0273L139.328 41.2611V30.9059H141.24L141.35 31.7173C141.634 31.3598 141.96 31.0985 142.326 30.9335C142.693 30.7593 143.069 30.6722 143.454 30.6722ZM142.615 36.8467C143.486 36.8467 143.921 36.0858 143.921 34.5639C143.921 33.7021 143.825 33.1062 143.633 32.7762C143.44 32.437 143.151 32.2674 142.766 32.2674C142.519 32.2674 142.285 32.3407 142.065 32.4874C141.854 32.6341 141.666 32.845 141.501 33.12V36.2004C141.795 36.6313 142.166 36.8467 142.615 36.8467Z" fill="#3C3C51"/>
<path d="M153.956 38.2082H151.893V35.6091C151.893 35.0957 151.921 34.6098 151.976 34.1514C152.031 33.693 152.099 33.3079 152.182 32.9962L149.748 38.2082H147.534V30.9059H149.61V33.5463C149.61 34.0322 149.578 34.5089 149.514 34.9765C149.459 35.444 149.395 35.8291 149.322 36.1316L151.728 30.9059H153.956V38.2082Z" fill="#3C3C51"/>
<path d="M161.462 36.0904C161.462 36.3654 161.499 36.5671 161.572 36.6955C161.654 36.8238 161.783 36.9201 161.957 36.9842L161.503 38.4007C161.054 38.364 160.687 38.2677 160.403 38.1119C160.119 37.9469 159.899 37.6902 159.743 37.3418C159.266 38.0752 158.533 38.4419 157.543 38.4419C156.818 38.4419 156.241 38.2311 155.81 37.8094C155.379 37.3876 155.164 36.8376 155.164 36.1591C155.164 35.3615 155.457 34.7519 156.044 34.3301C156.63 33.9084 157.478 33.6976 158.588 33.6976H159.33V33.3813C159.33 32.9504 159.239 32.657 159.055 32.5012C158.872 32.3361 158.551 32.2536 158.093 32.2536C157.854 32.2536 157.566 32.2903 157.226 32.3636C156.887 32.4278 156.539 32.5195 156.181 32.6387L155.686 31.2085C156.145 31.0343 156.612 30.9014 157.089 30.8097C157.575 30.718 158.024 30.6722 158.436 30.6722C159.482 30.6722 160.247 30.8876 160.733 31.3185C161.219 31.7494 161.462 32.3957 161.462 33.2575V36.0904ZM158.175 36.888C158.67 36.888 159.055 36.6542 159.33 36.1866V34.894H158.794C158.299 34.894 157.928 34.9811 157.68 35.1553C157.442 35.3294 157.323 35.5999 157.323 35.9666C157.323 36.26 157.396 36.4892 157.543 36.6542C157.698 36.8101 157.909 36.888 158.175 36.888Z" fill="#3C3C51"/>
<path d="M168.645 30.9059L168.383 32.5149H166.403V38.2082H164.23V32.5149H162.099V30.9059H168.645Z" fill="#3C3C51"/>
<path d="M173.536 30.6722C174.453 30.6722 175.136 31.0114 175.585 31.6898C176.034 32.3682 176.259 33.3171 176.259 34.5364C176.259 35.2882 176.14 35.962 175.901 36.5579C175.672 37.1447 175.337 37.6077 174.897 37.9469C174.457 38.2769 173.944 38.4419 173.357 38.4419C172.624 38.4419 172.032 38.1898 171.583 37.6856V41.0273L169.41 41.2611V30.9059H171.322L171.432 31.7173C171.716 31.3598 172.042 31.0985 172.408 30.9335C172.775 30.7593 173.151 30.6722 173.536 30.6722ZM172.697 36.8467C173.568 36.8467 174.004 36.0858 174.004 34.5639C174.004 33.7021 173.907 33.1062 173.715 32.7762C173.522 32.437 173.233 32.2674 172.848 32.2674C172.601 32.2674 172.367 32.3407 172.147 32.4874C171.936 32.6341 171.748 32.845 171.583 33.12V36.2004C171.877 36.6313 172.248 36.8467 172.697 36.8467Z" fill="#3C3C51"/>
<path d="M180.779 30.6722C181.897 30.6722 182.773 31.016 183.405 31.7036C184.038 32.382 184.354 33.3354 184.354 34.5639C184.354 35.3432 184.208 36.0262 183.914 36.6129C183.63 37.1905 183.217 37.6397 182.677 37.9606C182.145 38.2815 181.512 38.4419 180.779 38.4419C179.669 38.4419 178.794 38.1027 178.152 37.4243C177.52 36.7367 177.203 35.7787 177.203 34.5502C177.203 33.7709 177.345 33.0925 177.63 32.5149C177.923 31.9282 178.336 31.4744 178.867 31.1535C179.408 30.8326 180.045 30.6722 180.779 30.6722ZM180.779 32.2674C180.339 32.2674 180.009 32.4553 179.789 32.8312C179.569 33.1979 179.459 33.7709 179.459 34.5502C179.459 35.3478 179.564 35.9299 179.775 36.2967C179.995 36.6634 180.33 36.8467 180.779 36.8467C181.219 36.8467 181.549 36.6634 181.769 36.2967C181.989 35.9208 182.099 35.3432 182.099 34.5639C182.099 33.7663 181.989 33.1842 181.769 32.8174C181.558 32.4507 181.228 32.2674 180.779 32.2674Z" fill="#3C3C51"/>
<path d="M190.144 34.1926C191.381 34.3393 192 34.9398 192 35.9941C192 36.7367 191.707 37.2914 191.12 37.6581C190.542 38.0248 189.749 38.2082 188.741 38.2082H185.647V30.9747C186.738 30.773 187.7 30.6722 188.535 30.6722C189.525 30.6722 190.295 30.8418 190.845 31.181C191.404 31.511 191.684 32.0015 191.684 32.6524C191.684 33.065 191.551 33.4042 191.285 33.6701C191.028 33.9268 190.648 34.101 190.144 34.1926ZM188.493 32.0611C188.209 32.0611 187.984 32.0703 187.819 32.0886V33.7663H188.59C188.892 33.7663 189.126 33.6976 189.291 33.56C189.456 33.4134 189.538 33.1933 189.538 32.9C189.538 32.3407 189.19 32.0611 188.493 32.0611ZM188.672 36.778C189.406 36.778 189.772 36.4525 189.772 35.8016C189.772 35.4991 189.685 35.2744 189.511 35.1278C189.337 34.9811 189.062 34.9077 188.686 34.9077H187.819V36.778H188.672Z" fill="#3C3C51"/>
<path d="M0.0962524 12.0525H17.2646L17.1327 15.1493C16.9398 19.6775 13.2127 23.2492 8.6804 23.2492C4.14814 23.2492 0.42102 19.6775 0.228154 15.1493L0.0962524 12.0525Z" fill="#3C3C51"/>
<path d="M17.2646 38.178L0.0962811 38.178L0.249709 34.3356C0.430405 29.8103 4.15153 26.2348 8.68044 26.2348C13.2093 26.2348 16.9305 29.8103 17.1112 34.3356L17.2646 38.178Z" fill="#3C3C51"/>
<path d="M4.11424 0V5.96782H3.29139V0.701586H0.822848V5.96782H0V0H4.11424Z" fill="#3C3C51"/>
<path d="M7.89765 1.29923C8.48087 1.29923 8.90817 1.50711 9.17956 1.92287C9.45096 2.33862 9.58666 2.92472 9.58666 3.68116C9.58666 4.39719 9.43075 4.97462 9.11893 5.41348C8.80712 5.85233 8.36538 6.07176 7.79372 6.07176C7.28557 6.07176 6.88714 5.89852 6.59842 5.55206V7.71745L5.80156 7.81273V1.40317H6.48582L6.54645 2.01814C6.71391 1.78717 6.91601 1.61105 7.15276 1.48979C7.38951 1.36275 7.63781 1.29923 7.89765 1.29923ZM7.60316 5.42214C8.35383 5.42214 8.72916 4.84181 8.72916 3.68116C8.72916 2.51474 8.38559 1.93153 7.69844 1.93153C7.47324 1.93153 7.26825 1.99793 7.08347 2.13074C6.89869 2.26356 6.737 2.4339 6.59842 2.64178V4.8678C6.71391 5.0468 6.85827 5.18539 7.0315 5.28355C7.20473 5.37594 7.39528 5.42214 7.60316 5.42214Z" fill="#3C3C51"/>
<path d="M14.4956 5.96782H13.7074V3.90636C13.7074 3.5599 13.7189 3.23076 13.742 2.91895C13.7651 2.60713 13.7854 2.40214 13.8027 2.30398L11.8885 5.96782H10.9444V1.40317H11.7326V3.46463C11.7326 3.77067 11.721 4.08826 11.6979 4.4174C11.6748 4.74076 11.6575 4.94864 11.6459 5.04103L13.5342 1.40317H14.4956V5.96782Z" fill="#3C3C51"/>
<path d="M21.0979 5.96782V2.05279H19.227V5.96782H18.4302V1.40317H21.8948V5.96782H21.0979Z" fill="#3C3C51"/>
<path d="M25.2541 1.29923C25.8951 1.29923 26.3917 1.51289 26.7439 1.94019C27.1019 2.36749 27.2809 2.94782 27.2809 3.68116C27.2809 4.15466 27.2001 4.57331 27.0384 4.93709C26.8767 5.2951 26.6429 5.57516 26.3368 5.77726C26.0308 5.97359 25.667 6.07176 25.2455 6.07176C24.6045 6.07176 24.105 5.8581 23.747 5.4308C23.389 5.0035 23.21 4.42317 23.21 3.68983C23.21 3.21633 23.2909 2.80057 23.4525 2.44256C23.6142 2.07877 23.8481 1.79872 24.1541 1.60239C24.4602 1.40029 24.8268 1.29923 25.2541 1.29923ZM25.2541 1.94019C24.4631 1.94019 24.0675 2.5234 24.0675 3.68983C24.0675 4.85048 24.4602 5.4308 25.2455 5.4308C26.0308 5.4308 26.4235 4.84759 26.4235 3.68116C26.4235 2.52051 26.0337 1.94019 25.2541 1.94019Z" fill="#3C3C51"/>
<path d="M32.1766 5.32686V7.26705H31.527L31.3971 5.96782H28.4695L28.3396 7.26705H27.6899V5.32686H28.0104C28.149 5.23447 28.2587 5.13053 28.3396 5.01504C28.4204 4.89378 28.4926 4.68591 28.5561 4.39141C28.6254 4.09692 28.6802 3.66673 28.7207 3.10084L28.8419 1.40317H31.7002V5.32686H32.1766ZM30.9034 2.03547H29.5608L29.4915 2.9969C29.4511 3.53392 29.4049 3.94679 29.353 4.2355C29.301 4.52422 29.2259 4.74654 29.1278 4.90244C29.0354 5.05835 28.8997 5.19983 28.7207 5.32686H30.9034V2.03547Z" fill="#3C3C51"/>
<path d="M37.0826 5.32686V7.26705H36.433L36.303 5.96782H33.3754L33.2455 7.26705H32.5959V5.32686H32.9164C33.055 5.23447 33.1647 5.13053 33.2455 5.01504C33.3264 4.89378 33.3985 4.68591 33.4621 4.39141C33.5313 4.09692 33.5862 3.66673 33.6266 3.10084L33.7479 1.40317H36.6062V5.32686H37.0826ZM35.8093 2.03547H34.4668L34.3975 2.9969C34.3571 3.53392 34.3109 3.94679 34.2589 4.2355C34.2069 4.52422 34.1319 4.74654 34.0337 4.90244C33.9413 5.05835 33.8056 5.19983 33.6266 5.32686H35.8093V2.03547Z" fill="#3C3C51"/>
<path d="M41.679 3.55124C41.679 3.68405 41.6732 3.81975 41.6616 3.95833H38.7514C38.786 4.4607 38.913 4.83027 39.1325 5.06701C39.3519 5.30376 39.6348 5.42214 39.9813 5.42214C40.2007 5.42214 40.4028 5.39038 40.5876 5.32686C40.7724 5.26334 40.9658 5.16229 41.1679 5.02371L41.5144 5.50009C41.0293 5.8812 40.4981 6.07176 39.9207 6.07176C39.2855 6.07176 38.7889 5.86388 38.4309 5.44812C38.0786 5.03237 37.9025 4.4607 37.9025 3.73313C37.9025 3.25963 37.9776 2.84099 38.1277 2.47721C38.2836 2.10765 38.5031 1.81893 38.786 1.61105C39.0747 1.40317 39.4125 1.29923 39.7994 1.29923C40.4057 1.29923 40.8706 1.49845 41.1939 1.89688C41.5173 2.29531 41.679 2.84677 41.679 3.55124ZM40.8908 3.31738C40.8908 2.86698 40.8013 2.5234 40.6223 2.28665C40.4432 2.0499 40.1747 1.93153 39.8167 1.93153C39.1642 1.93153 38.8091 2.4108 38.7514 3.36935H40.8908V3.31738Z" fill="#3C3C51"/>
<path d="M45.0476 1.29923C45.6308 1.29923 46.0582 1.50711 46.3295 1.92287C46.6009 2.33862 46.7366 2.92472 46.7366 3.68116C46.7366 4.39719 46.5807 4.97462 46.2689 5.41348C45.9571 5.85233 45.5154 6.07176 44.9437 6.07176C44.4356 6.07176 44.0371 5.89852 43.7484 5.55206V7.71745L42.9515 7.81273V1.40317H43.6358L43.6964 2.01814C43.8639 1.78717 44.066 1.61105 44.3027 1.48979C44.5395 1.36275 44.7878 1.29923 45.0476 1.29923ZM44.7531 5.42214C45.5038 5.42214 45.8791 4.84181 45.8791 3.68116C45.8791 2.51474 45.5356 1.93153 44.8484 1.93153C44.6232 1.93153 44.4182 1.99793 44.2334 2.13074C44.0487 2.26356 43.887 2.4339 43.7484 2.64178V4.8678C43.8639 5.0468 44.0082 5.18539 44.1815 5.28355C44.3547 5.37594 44.5453 5.42214 44.7531 5.42214Z" fill="#3C3C51"/>
<path d="M53.0852 1.40317L51.9419 3.54258L53.2498 5.96782H52.375L51.2923 3.8977H50.686V5.96782H49.9238V3.8977H49.3261L48.2348 5.96782H47.3686L48.6765 3.54258L47.5332 1.40317H48.3647L49.3174 3.27407H49.9238V1.40317H50.686V3.27407H51.3009L52.2624 1.40317H53.0852Z" fill="#3C3C51"/>
<path d="M57.665 1.40317L56.2792 3.51659L57.8296 5.96782H56.8855L55.6209 3.86306H55.0406V5.96782H54.2437V1.40317H55.0406V3.23942H55.6382L56.7902 1.40317H57.665Z" fill="#3C3C51"/>
<path d="M62.1064 3.55124C62.1064 3.68405 62.1006 3.81975 62.0891 3.95833H59.1788C59.2134 4.4607 59.3405 4.83027 59.5599 5.06701C59.7793 5.30376 60.0623 5.42214 60.4087 5.42214C60.6281 5.42214 60.8302 5.39038 61.015 5.32686C61.1998 5.26334 61.3932 5.16229 61.5953 5.02371L61.9418 5.50009C61.4568 5.8812 60.9255 6.07176 60.3481 6.07176C59.7129 6.07176 59.2163 5.86388 58.8583 5.44812C58.5061 5.03237 58.3299 4.4607 58.3299 3.73313C58.3299 3.25963 58.405 2.84099 58.5551 2.47721C58.711 2.10765 58.9305 1.81893 59.2134 1.61105C59.5021 1.40317 59.8399 1.29923 60.2268 1.29923C60.8331 1.29923 61.298 1.49845 61.6213 1.89688C61.9447 2.29531 62.1064 2.84677 62.1064 3.55124ZM61.3182 3.31738C61.3182 2.86698 61.2287 2.5234 61.0497 2.28665C60.8707 2.0499 60.6022 1.93153 60.2441 1.93153C59.5916 1.93153 59.2365 2.4108 59.1788 3.36935H61.3182V3.31738Z" fill="#3C3C51"/>
</g>
</svg>
