<svg width="234" height="52" viewBox="0 0 234 52" fill="none" xmlns="http://www.w3.org/2000/svg">
<path fill-rule="evenodd" clip-rule="evenodd" d="M27.6892 18.3381H23.5936V24.0479H17.8057L17.8057 28.0882H23.5936V33.7976H27.6892V28.0882H33.4769V24.0479H27.6892V18.3381Z" fill="url(#paint0_linear_290)"/>
<path fill-rule="evenodd" clip-rule="evenodd" d="M49.7802 26C49.7802 39.1334 39.1334 49.7802 26 49.7802C12.8666 49.7802 2.2198 39.1334 2.2198 26C2.2198 12.8666 12.8666 2.2198 26 2.2198C39.1334 2.2198 49.7802 12.8666 49.7802 26ZM52 26C52 40.3594 40.3594 52 26 52C11.6406 52 0 40.3594 0 26C0 11.6406 11.6406 0 26 0C40.3594 0 52 11.6406 52 26ZM10.9217 42.7026C10.4665 42.291 10.4676 41.5848 10.9015 41.1509C11.3345 40.718 12.0346 40.7201 12.4908 41.1284C20.4514 48.2506 32.6855 47.9887 40.3316 40.3425C48.249 32.4251 48.249 19.5884 40.3316 11.671C32.6776 4.01699 20.4261 3.7624 12.4662 10.9073C12.01 11.3167 11.309 11.3195 10.8755 10.8861C10.4421 10.4526 10.4405 9.74739 10.8945 9.33549C19.7234 1.325 33.3802 1.58031 41.9013 10.1014C50.6855 18.8857 50.6855 33.1278 41.9013 41.9121C33.3889 50.4245 19.7513 50.688 10.9217 42.7026ZM8.6501 30.6445C8.05801 30.8031 7.70367 31.4136 7.89602 31.9957C11.0412 41.5127 21.1097 47.0323 30.9146 44.4051C41.0794 41.6815 47.1117 31.2333 44.388 21.0685C41.6644 10.9037 31.2162 4.87147 21.0514 7.59512C20.7647 7.67193 20.5996 7.96844 20.6764 8.2551L20.9752 9.37026C21.0507 9.65205 21.3442 9.81478 21.6259 9.73927C30.6066 7.33292 39.8375 12.6624 42.2439 21.643C44.6502 30.6236 39.3207 39.8546 30.3401 42.261C21.7198 44.5708 12.8688 39.753 10.0443 31.4202C9.84752 30.8396 9.2422 30.4858 8.6501 30.6445ZM24.7425 10.6055C25.3583 10.555 25.8642 11.0582 25.8642 11.6761C25.8642 12.2845 25.3729 12.7748 24.7672 12.8318C18.0527 13.4637 12.7986 19.1163 12.7986 25.996C12.7986 33.2989 18.7187 39.219 26.0216 39.219C32.9474 39.219 38.6295 33.8944 39.1978 27.1154C39.249 26.5049 39.7409 26.0068 40.3536 26.0068C40.9669 26.0068 41.4681 26.5059 41.4242 27.1176C40.8496 35.1228 34.1732 41.4388 26.0216 41.4388C17.4928 41.4388 10.5788 34.5248 10.5788 25.996C10.5788 17.8979 16.8121 11.2557 24.7425 10.6055Z" fill="url(#paint1_linear_290)"/>
<path d="M69.5847 15.3449H61.0254V33.5099H63.6059V17.8361H69.5847V15.3449Z" fill="#F88F6D"/>
<path d="M75.6624 31.0446V25.4913H81.3601V23.078H75.6624V17.8102H81.8455V15.3449H73.0818V33.5099H82.101V31.0446H75.6624Z" fill="#F88F6D"/>
<path d="M90.8631 15.3449H86.1363V33.5099H88.7169V27.1262H90.8631C94.3635 27.1262 96.3564 25.0242 96.3564 21.2096C96.3564 17.4988 94.3635 15.3449 90.8631 15.3449ZM90.8375 24.635H88.7169V17.8361H90.8375C92.7793 17.8361 93.7247 18.9779 93.7247 21.2096C93.7247 23.5451 92.7793 24.635 90.8375 24.635Z" fill="#F88F6D"/>
<path d="M105.171 33.8472C108.594 33.8472 110.638 31.5377 110.638 27.749V21.1058C110.638 17.3171 108.594 15.0076 105.171 15.0076C101.747 15.0076 99.7028 17.3171 99.7028 21.1058V27.749C99.7028 31.5377 101.747 33.8472 105.171 33.8472ZM105.171 31.2782C103.305 31.2782 102.36 30.0326 102.36 27.749V21.1058C102.36 18.8222 103.305 17.5766 105.171 17.5766C107.01 17.5766 107.981 18.8222 107.981 21.1058V27.749C107.981 30.0326 107.01 31.2782 105.171 31.2782Z" fill="#F88F6D"/>
<path d="M126.36 15.3449L123.345 22.7147C122.936 23.7527 122.323 25.4913 122.042 26.3217H121.94C121.659 25.4913 121.045 23.7527 120.637 22.7147L117.622 15.3449H114.99V33.5099H117.519V26.4255C117.468 24.3495 117.392 22.4552 117.315 20.5609L117.417 20.509C117.928 21.9621 118.541 23.6229 119.155 25.2837L120.713 29.4098H123.268L124.827 25.2837C125.44 23.6229 126.053 21.9621 126.564 20.509L126.666 20.5609C126.564 22.4552 126.513 24.3495 126.462 26.4255V33.5099H128.991V15.3449H126.36Z" fill="#F88F6D"/>
<path d="M136.439 31.0446V25.4913H142.136V23.078H136.439V17.8102H142.622V15.3449H133.858V33.5099H142.877V31.0446H136.439Z" fill="#F88F6D"/>
<path d="M157.26 31.0446V15.3449H148.65L148.343 24.116C148.241 26.9705 147.628 29.6952 146.325 31.0446H145.277V36.546H147.807V33.5099H156.315V36.546H158.844V31.0446H157.26ZM154.705 31.0446H149.416C150.26 29.5136 150.72 27.4116 150.822 24.8426L151.077 17.8102H154.705V31.0446Z" fill="#F88F6D"/>
<path d="M162.387 33.5099H164.993L169.311 23.571C169.746 22.559 170.257 21.1577 170.589 20.2235L170.666 20.2754C170.538 21.7805 170.436 24.2198 170.436 25.5951V33.5099H172.965V15.3449H170.333L165.99 25.3616C165.504 26.4255 165.045 27.6971 164.712 28.5794L164.636 28.5275C164.815 26.9445 164.917 24.5831 164.917 23.2856V15.3449H162.387V33.5099Z" fill="#F88F6D"/>
<path d="M187.036 36.546H189.565V31.0187H187.93V15.3449H185.349V31.0187H180.393V15.3449H177.812V33.5099H187.036V36.546Z" fill="#F88F6D"/>
<path d="M193.112 33.5099H195.718L200.036 23.571C200.471 22.559 200.982 21.1577 201.314 20.2235L201.391 20.2754C201.263 21.7805 201.161 24.2198 201.161 25.5951V33.5099H203.69V15.3449H201.058L196.715 25.3616C196.229 26.4255 195.77 27.6971 195.437 28.5794L195.361 28.5275C195.54 26.9445 195.642 24.5831 195.642 23.2856V15.3449H193.112V33.5099Z" fill="#F88F6D"/>
<path d="M216.177 15.3449V23.078H211.118V15.3449H208.537V33.5099H211.118V25.5432H216.177V33.5099H218.757V15.3449H216.177Z" fill="#F88F6D"/>
<path d="M231.099 33.5099H233.782L229.285 15.3449H226.5L222.003 33.5099H224.711L225.529 29.8509H230.256L231.099 33.5099ZM226.091 27.4116L227.19 22.533C227.471 21.3394 227.726 19.6007 227.854 18.6406H227.931C228.058 19.6007 228.339 21.3394 228.595 22.533L229.719 27.4116H226.091Z" fill="#F88F6D"/>
<path d="M63.6409 42.8281H64.802L62.9944 40.454L64.722 38.3999H63.5565L62.0863 40.1686H61.8981V38.3999H60.9619V42.8281H61.8981V40.9405H62.2181L63.6409 42.8281Z" fill="#3C3C51"/>
<path d="M65.3653 42.8281H65.6421C66.347 42.8281 66.721 42.361 66.7772 41.2453L66.8291 40.2313H67.6486V42.8281H68.5264V39.5069H66.001L65.9469 40.9772C65.9145 41.8183 65.7848 42.0972 65.4713 42.0972H65.361L65.3653 42.8281Z" fill="#3C3C51"/>
<path d="M70.4249 41.6129V39.5069H69.5449V42.8281H70.4595L71.6509 40.7156V42.8281H72.5288V39.5069H71.6206L70.4249 41.6129Z" fill="#3C3C51"/>
<path d="M74.4516 39.5069H73.5716V42.8281H74.4516V41.5243H75.5867V42.8281H76.4603V39.5069H75.5867V40.7999H74.4516V39.5069Z" fill="#3C3C51"/>
<path d="M78.3593 41.6129V39.5069H77.4793V42.8281H78.3939L79.5853 40.7156V42.8281H80.4631V39.5069H79.555L78.3593 41.6129Z" fill="#3C3C51"/>
<path d="M81.5059 42.8281H82.427V41.6497H82.7708L83.5903 42.8281H84.6844L83.4973 41.1545L84.6714 39.5069H83.5903L82.6865 40.7956H82.427V39.5069H81.5059V42.8281Z" fill="#3C3C51"/>
<path d="M86.325 42.8908C86.8158 42.8908 87.1337 42.6767 87.2959 42.3675H87.3218V42.8281H88.1953V40.588C88.1953 39.7967 87.525 39.4637 86.7856 39.4637C85.9899 39.4637 85.4666 39.8442 85.3391 40.4497L86.191 40.5188C86.2537 40.2983 86.4504 40.1361 86.7813 40.1361C87.0948 40.1361 87.2742 40.294 87.2742 40.5664V40.5794C87.2742 40.7934 87.0472 40.8215 86.4699 40.8778C85.8126 40.9383 85.2223 41.1588 85.2223 41.9005C85.2223 42.5578 85.6915 42.8908 86.325 42.8908ZM86.5888 42.2551C86.3056 42.2551 86.1023 42.1232 86.1023 41.8702C86.1023 41.6107 86.3164 41.4832 86.6407 41.4378C86.8418 41.4097 87.1704 41.3621 87.2807 41.2886V41.641C87.2807 41.9891 86.9931 42.2551 86.5888 42.2551Z" fill="#3C3C51"/>
<path d="M90.6685 43.801H91.568V42.8281H93.5983V43.801H94.4761V42.0972H93.9616V39.5069H91.4145L91.328 40.5924C91.2761 41.2453 91.2134 41.9135 90.9237 42.0972H90.6685V43.801ZM91.8404 42.0972C92.0372 41.788 92.1129 41.3016 92.1626 40.5924L92.1972 40.2161H93.0923V42.0972H91.8404Z" fill="#3C3C51"/>
<path d="M95.1228 42.8281H95.3995C96.1044 42.8281 96.4784 42.361 96.5347 41.2453L96.5866 40.2313H97.406V42.8281H98.2839V39.5069H95.7584L95.7044 40.9772C95.6719 41.8183 95.5422 42.0972 95.2287 42.0972H95.1184L95.1228 42.8281Z" fill="#3C3C51"/>
<path d="M101.248 42.8281H102.107V39.5069H100.626C99.7651 39.5069 99.2289 39.948 99.2332 40.5967C99.231 41.001 99.458 41.3167 99.8537 41.4897L99.138 42.8281H100.02L100.658 41.6302H101.248V42.8281ZM101.248 41.0075H100.617C100.282 41.0075 100.107 40.8388 100.111 40.6226C100.107 40.4107 100.286 40.2291 100.626 40.2291H101.248V41.0075Z" fill="#3C3C51"/>
<path d="M104.581 43.801H105.481V42.8281H107.511V43.801H108.389V42.0972H107.874V39.5069H105.327L105.24 40.5924C105.189 41.2453 105.126 41.9135 104.836 42.0972H104.581V43.801ZM105.753 42.0972C105.95 41.788 106.025 41.3016 106.075 40.5924L106.11 40.2161H107.005V42.0972H105.753Z" fill="#3C3C51"/>
<path d="M110.743 42.8929C111.565 42.8929 112.119 42.4929 112.248 41.8767L111.396 41.8205C111.303 42.0735 111.066 42.2053 110.759 42.2053C110.298 42.2053 110.006 41.9005 110.006 41.4053V41.4032H112.268V41.1502C112.268 40.0215 111.584 39.4637 110.707 39.4637C109.729 39.4637 109.096 40.1578 109.096 41.1826C109.096 42.2356 109.721 42.8929 110.743 42.8929ZM110.006 40.8324C110.026 40.454 110.313 40.1513 110.722 40.1513C111.122 40.1513 111.399 40.4367 111.401 40.8324H110.006Z" fill="#3C3C51"/>
<path d="M112.917 40.2313H113.979V42.8281H114.857V40.2313H115.927V39.5069H112.917V40.2313Z" fill="#3C3C51"/>
<path d="M118.184 42.8929C119.006 42.8929 119.559 42.4929 119.689 41.8767L118.837 41.8205C118.744 42.0735 118.506 42.2053 118.199 42.2053C117.739 42.2053 117.447 41.9005 117.447 41.4053V41.4032H119.709V41.1502C119.709 40.0215 119.025 39.4637 118.147 39.4637C117.17 39.4637 116.537 40.1578 116.537 41.1826C116.537 42.2356 117.162 42.8929 118.184 42.8929ZM117.447 40.8324C117.466 40.454 117.754 40.1513 118.163 40.1513C118.563 40.1513 118.839 40.4367 118.842 40.8324H117.447Z" fill="#3C3C51"/>
<path d="M121.494 41.6129V39.5069H120.614V42.8281H121.529L122.72 40.7156V42.8281H123.598V39.5069H122.69L121.494 41.6129ZM122.532 38.348C122.532 38.5512 122.411 38.735 122.104 38.735C121.788 38.735 121.671 38.5469 121.674 38.348H121.036C121.036 38.8713 121.449 39.2215 122.104 39.2215C122.759 39.2215 123.172 38.8713 123.174 38.348H122.532Z" fill="#3C3C51"/>
<path d="M127.234 41.6129V39.5069H126.354V42.8281H127.269L128.46 40.7156V42.8281H129.338V39.5069H128.43L127.234 41.6129Z" fill="#3C3C51"/>
<path d="M132.095 42.8281H133.729C134.56 42.8281 135.022 42.4886 135.022 41.9221C135.022 41.4853 134.676 41.1394 134.08 41.0961C134.555 41.014 134.838 40.7632 134.838 40.4042C134.838 39.8291 134.33 39.5069 133.511 39.5069H132.095V42.8281ZM132.953 42.1383V41.414H133.729C133.984 41.414 134.14 41.5589 134.14 41.7945C134.14 42.0086 133.984 42.1383 133.729 42.1383H132.953ZM132.953 40.8734V40.2118H133.511C133.796 40.2118 133.971 40.3351 133.971 40.5383C133.971 40.748 133.805 40.8734 133.53 40.8734H132.953Z" fill="#3C3C51"/>
<path d="M135.736 41.8875C135.76 42.5362 136.346 42.8929 137.144 42.8929C137.961 42.8929 138.547 42.5254 138.547 41.907C138.547 41.4443 138.216 41.1545 137.81 41.1286V41.094C138.223 40.9945 138.467 40.7524 138.467 40.3999C138.467 39.8205 137.966 39.4637 137.153 39.4637C136.409 39.4637 135.832 39.8399 135.825 40.4367H136.714C136.72 40.2421 136.919 40.1059 137.194 40.1059C137.466 40.1059 137.637 40.2572 137.637 40.4799C137.637 40.681 137.477 40.828 137.192 40.828H136.714V41.4313H137.192C137.479 41.4313 137.672 41.5956 137.672 41.8356C137.672 42.0994 137.44 42.2421 137.14 42.2421C136.843 42.2421 136.638 42.108 136.629 41.8875H135.736Z" fill="#3C3C51"/>
<path d="M139.417 44.0735H140.338V42.2962H140.366C140.493 42.5729 140.772 42.8821 141.308 42.8821C142.065 42.8821 142.656 42.2832 142.656 41.1718C142.656 40.0302 142.039 39.4637 141.311 39.4637C140.755 39.4637 140.489 39.7945 140.366 40.0648H140.325V39.5069H139.417V44.0735ZM140.318 41.1675C140.318 40.5751 140.569 40.1967 141.017 40.1967C141.473 40.1967 141.715 40.5924 141.715 41.1675C141.715 41.747 141.468 42.1491 141.017 42.1491C140.573 42.1491 140.318 41.7599 140.318 41.1675Z" fill="#3C3C51"/>
<path d="M145.075 42.8929C146.082 42.8929 146.709 42.2032 146.709 41.1805C146.709 40.1513 146.082 39.4637 145.075 39.4637C144.067 39.4637 143.44 40.1513 143.44 41.1805C143.44 42.2032 144.067 42.8929 145.075 42.8929ZM145.079 42.1794C144.614 42.1794 144.376 41.7535 144.376 41.174C144.376 40.5945 144.614 40.1664 145.079 40.1664C145.535 40.1664 145.773 40.5945 145.773 41.174C145.773 41.7535 145.535 42.1794 145.079 42.1794Z" fill="#3C3C51"/>
<path d="M149.113 42.8929C149.997 42.8929 150.553 42.374 150.596 41.6107H149.727C149.673 41.9653 149.44 42.1643 149.124 42.1643C148.694 42.1643 148.415 41.8032 148.415 41.1675C148.415 40.5405 148.696 40.1815 149.124 40.1815C149.461 40.1815 149.677 40.4042 149.727 40.7351H150.596C150.557 39.9675 149.976 39.4637 149.109 39.4637C148.101 39.4637 147.479 40.1621 147.479 41.1805C147.479 42.1902 148.09 42.8929 149.113 42.8929Z" fill="#3C3C51"/>
<path d="M151.296 42.8281H151.573C152.278 42.8281 152.652 42.361 152.708 41.2453L152.76 40.2313H153.579V42.8281H154.457V39.5069H151.932L151.878 40.9772C151.845 41.8183 151.715 42.0972 151.402 42.0972H151.292L151.296 42.8281Z" fill="#3C3C51"/>
<path d="M156.356 40.5275V39.5069H155.476V42.8281H157.045C157.925 42.8281 158.442 42.3675 158.444 41.6821C158.442 40.9837 157.925 40.5275 157.045 40.5275H156.356ZM158.801 42.8281H159.722V39.5069H158.801V42.8281ZM156.356 41.2518H157.045C157.355 41.2518 157.573 41.4334 157.577 41.6886C157.573 41.9307 157.355 42.1037 157.045 42.1037H156.356V41.2518Z" fill="#3C3C51"/>
<path d="M161.533 39.5069H160.581L161.533 41.1675L160.547 42.8281H161.498L162.142 41.6799L162.797 42.8281H163.738L162.75 41.1675L163.712 39.5069H162.767L162.142 40.668L161.533 39.5069Z" fill="#3C3C51"/>
<path d="M167.157 39.5069H166.277V42.8281H167.157V41.5243H168.292V42.8281H169.166V39.5069H168.292V40.7999H167.157V39.5069Z" fill="#3C3C51"/>
<path d="M171.132 42.8908C171.623 42.8908 171.941 42.6767 172.103 42.3675H172.129V42.8281H173.002V40.588C173.002 39.7967 172.332 39.4637 171.592 39.4637C170.797 39.4637 170.273 39.8442 170.146 40.4497L170.998 40.5188C171.061 40.2983 171.257 40.1361 171.588 40.1361C171.902 40.1361 172.081 40.294 172.081 40.5664V40.5794C172.081 40.7934 171.854 40.8215 171.277 40.8778C170.619 40.9383 170.029 41.1588 170.029 41.9005C170.029 42.5578 170.498 42.8908 171.132 42.8908ZM171.396 42.2551C171.112 42.2551 170.909 42.1232 170.909 41.8702C170.909 41.6107 171.123 41.4832 171.448 41.4378C171.649 41.4097 171.977 41.3621 172.088 41.2886V41.641C172.088 41.9891 171.8 42.2551 171.396 42.2551Z" fill="#3C3C51"/>
<path d="M179.821 40.614C179.821 39.1653 178.922 38.3394 177.748 38.3394C176.567 38.3394 175.674 39.1653 175.674 40.614C175.674 42.0562 176.567 42.8886 177.748 42.8886C178.922 42.8886 179.821 42.0626 179.821 40.614ZM178.872 40.614C178.872 41.5524 178.427 42.0605 177.748 42.0605C177.067 42.0605 176.624 41.5524 176.624 40.614C176.624 39.6756 177.067 39.1675 177.748 39.1675C178.427 39.1675 178.872 39.6756 178.872 40.614Z" fill="#3C3C51"/>
<path d="M180.629 40.2313H181.691V42.8281H182.569V40.2313H183.639V39.5069H180.629V40.2313Z" fill="#3C3C51"/>
<path d="M184.502 42.8281H185.423V41.6497H185.767L186.586 42.8281H187.68L186.493 41.1545L187.667 39.5069H186.586L185.682 40.7956H185.423V39.5069H184.502V42.8281Z" fill="#3C3C51"/>
<path d="M188.374 44.0735H189.295V42.2962H189.323C189.45 42.5729 189.729 42.8821 190.266 42.8821C191.022 42.8821 191.613 42.2832 191.613 41.1718C191.613 40.0302 190.996 39.4637 190.268 39.4637C189.712 39.4637 189.446 39.7945 189.323 40.0648H189.282V39.5069H188.374V44.0735ZM189.275 41.1675C189.275 40.5751 189.526 40.1967 189.974 40.1967C190.43 40.1967 190.672 40.5924 190.672 41.1675C190.672 41.747 190.426 42.1491 189.974 42.1491C189.53 42.1491 189.275 41.7599 189.275 41.1675Z" fill="#3C3C51"/>
<path d="M193.411 40.5275V39.5069H192.531V42.8281H194.101C194.981 42.8281 195.498 42.3675 195.5 41.6821C195.498 40.9837 194.981 40.5275 194.101 40.5275H193.411ZM195.857 42.8281H196.778V39.5069H195.857V42.8281ZM193.411 41.2518H194.101C194.41 41.2518 194.628 41.4334 194.633 41.6886C194.628 41.9307 194.41 42.1037 194.101 42.1037H193.411V41.2518Z" fill="#3C3C51"/>
<path d="M197.645 40.2313H198.707V42.8281H199.585V40.2313H200.655V39.5069H197.645V40.2313Z" fill="#3C3C51"/>
<path d="M202.9 42.8929C203.907 42.8929 204.534 42.2032 204.534 41.1805C204.534 40.1513 203.907 39.4637 202.9 39.4637C201.892 39.4637 201.265 40.1513 201.265 41.1805C201.265 42.2032 201.892 42.8929 202.9 42.8929ZM202.904 42.1794C202.439 42.1794 202.201 41.7535 202.201 41.174C202.201 40.5945 202.439 40.1664 202.904 40.1664C203.36 40.1664 203.598 40.5945 203.598 41.174C203.598 41.7535 203.36 42.1794 202.904 42.1794Z" fill="#3C3C51"/>
<path d="M207.401 41.8097L206.527 39.5069H205.438V42.8281H206.318V40.7891L207.094 42.8281H207.706L208.53 40.7156V42.8281H209.399V39.5069H208.3L207.401 41.8097Z" fill="#3C3C51"/>
<path d="M212.324 38.3999V42.8281H217.587V38.3999H216.676V42.0756H215.42V38.3999H214.51V42.0756H213.238V38.3999H212.324Z" fill="#3C3C51"/>
<path d="M220.32 42.8929C221.328 42.8929 221.955 42.2032 221.955 41.1805C221.955 40.1513 221.328 39.4637 220.32 39.4637C219.313 39.4637 218.686 40.1513 218.686 41.1805C218.686 42.2032 219.313 42.8929 220.32 42.8929ZM220.325 42.1794C219.86 42.1794 219.622 41.7535 219.622 41.174C219.622 40.5945 219.86 40.1664 220.325 40.1664C220.781 40.1664 221.019 40.5945 221.019 41.174C221.019 41.7535 220.781 42.1794 220.325 42.1794Z" fill="#3C3C51"/>
<path d="M224.359 42.8929C225.243 42.8929 225.799 42.374 225.842 41.6107H224.973C224.919 41.9653 224.685 42.1643 224.37 42.1643C223.939 42.1643 223.66 41.8032 223.66 41.1675C223.66 40.5405 223.941 40.1815 224.37 40.1815C224.707 40.1815 224.923 40.4042 224.973 40.7351H225.842C225.803 39.9675 225.222 39.4637 224.354 39.4637C223.347 39.4637 222.724 40.1621 222.724 41.1805C222.724 42.1902 223.336 42.8929 224.359 42.8929Z" fill="#3C3C51"/>
<path d="M228.237 42.8929C229.121 42.8929 229.677 42.374 229.72 41.6107H228.851C228.797 41.9653 228.563 42.1643 228.248 42.1643C227.817 42.1643 227.538 41.8032 227.538 41.1675C227.538 40.5405 227.819 40.1815 228.248 40.1815C228.585 40.1815 228.801 40.4042 228.851 40.7351H229.72C229.681 39.9675 229.099 39.4637 228.232 39.4637C227.225 39.4637 226.602 40.1621 226.602 41.1805C226.602 42.1902 227.214 42.8929 228.237 42.8929Z" fill="#3C3C51"/>
<path d="M232.128 42.8929C232.949 42.8929 233.503 42.4929 233.633 41.8767L232.781 41.8205C232.688 42.0735 232.45 42.2053 232.143 42.2053C231.682 42.2053 231.39 41.9005 231.39 41.4053V41.4032H233.652V41.1502C233.652 40.0215 232.969 39.4637 232.091 39.4637C231.114 39.4637 230.48 40.1578 230.48 41.1826C230.48 42.2356 231.105 42.8929 232.128 42.8929ZM231.39 40.8324C231.41 40.454 231.697 40.1513 232.106 40.1513C232.506 40.1513 232.783 40.4367 232.785 40.8324H231.39Z" fill="#3C3C51"/>
<defs>
<linearGradient id="paint0_linear_290" x1="28.8518" y1="37.1989" x2="18.0295" y2="18.2106" gradientUnits="userSpaceOnUse">
<stop stop-color="#EA6641"/>
<stop offset="1" stop-color="#FF6A29"/>
</linearGradient>
<linearGradient id="paint1_linear_290" x1="19.2106" y1="-3.43229" x2="24.712" y2="57.0828" gradientUnits="userSpaceOnUse">
<stop stop-color="#A5BE09"/>
<stop offset="1" stop-color="#6CAE00"/>
</linearGradient>
</defs>
</svg>
