<svg width="153" height="39" viewBox="0 0 153 39" fill="none" xmlns="http://www.w3.org/2000/svg">
<path d="M23.0229 0.0673828H10.3189C5.17181 0.0673828 0.984863 4.2909 0.984863 9.48298V22.3025C0.984863 27.4946 5.17181 31.7181 10.3189 31.7181H23.0275C28.1746 31.7181 32.3616 27.4946 32.3616 22.3025V9.48298C32.3569 4.2909 28.17 0.0673828 23.0229 0.0673828Z" fill="#DB2031"/>
<path d="M26.5728 19.7832L26.5636 19.9229C26.5175 20.4724 26.1758 21.0265 25.6127 21.0265C25.1787 21.0265 24.8325 20.8635 24.5463 20.5329C24.2047 20.1371 23.9 19.6621 23.5861 18.796C24.4678 15.7832 27.1822 6.13475 27.1822 6.13475H22.0304C22.0304 6.13475 21.555 8.39785 21.1257 10.4561C21.1026 10.4048 21.0841 10.3536 21.061 10.307C20.6317 9.38039 19.9485 8.35128 19.1822 7.62951C17.8527 6.37224 16.2971 5.75757 14.409 5.75757C11.8101 5.75757 9.6081 6.72614 7.86777 8.63999C6.13668 10.5445 5.22266 12.9846 5.22266 15.6994C5.22266 18.7215 6.09051 21.2081 7.80314 23.08C9.58964 25.0358 11.7223 25.9438 14.5198 25.9438C16.1493 25.9438 17.705 25.4549 19.1453 24.4956C20.0778 23.8763 20.9272 23.0148 21.7304 21.9019C22.0674 23.0009 22.409 23.7552 22.8152 24.3187C23.4753 25.2267 24.4586 25.7529 25.5203 25.7529C26.6236 25.7529 27.63 25.1848 28.1424 24.2675C28.5994 23.4526 28.784 22.4467 28.784 20.789V19.7832H26.5728ZM17.9404 21.711C17.1603 22.8658 16.1401 23.4712 14.9907 23.4712C13.6519 23.4712 12.641 22.8658 11.8978 21.6179C11.1176 20.3094 10.7206 18.349 10.7206 15.7878C10.7206 13.4409 11.1407 11.5736 11.967 10.2419C12.7425 8.98923 13.7166 8.40716 15.0322 8.40716C16.2001 8.40716 17.1141 8.8961 17.9081 9.95314C18.7575 11.0847 19.4777 12.9566 19.9901 15.3594C19.3392 18.6144 18.7067 20.5795 17.9404 21.711Z" fill="white"/>
<path d="M48.066 6.59577C47.7105 4.97994 46.6996 3.84839 44.4792 3.84839C42.3926 3.84839 41.2478 4.97528 40.8923 6.59577L39.2812 13.9159H41.0031C41.3955 13.9159 41.7879 13.5993 41.871 13.2128L42.1987 11.7227H46.7642L47.092 13.2128C47.1751 13.5993 47.5674 13.9159 47.9598 13.9159H49.6817L48.066 6.59577ZM42.6465 9.6598L43.2143 7.06608C43.3066 6.64699 43.6298 6.00438 44.4792 6.00438C45.3285 6.00438 45.6517 6.64699 45.744 7.06608L46.3118 9.6598H42.6465Z" fill="#DB2031"/>
<path d="M53.9242 6.2934H57.7649V13.9162H60.1423V4.08618H52.9686C52.1838 4.08618 51.5422 4.73345 51.5422 5.52506V10.4936C51.5422 11.1595 51.2375 11.5786 50.7113 11.6857L50.2219 11.8021L50.6651 13.9116H51.1175C52.7424 13.9116 53.9195 12.6915 53.9195 10.61V6.2934" fill="#DB2031"/>
<path d="M80.8184 4.08593H79.9505V2.94507H78.284C77.8917 2.94507 77.5685 3.26637 77.5685 3.66218V4.08593H76.7007C73.7601 4.08593 71.9229 6.10688 71.9229 8.99862C71.9229 11.895 73.7601 13.916 76.7007 13.916H77.5685V15.108H79.235C79.6274 15.108 79.9505 14.7821 79.9505 14.3909V13.916H80.8184C83.7589 13.916 85.5962 11.895 85.5962 8.99862C85.5962 6.11154 83.7589 4.08593 80.8184 4.08593ZM76.7053 11.746C75.0758 11.746 74.3048 10.7076 74.3048 8.99862C74.3048 7.29431 75.0758 6.2559 76.7053 6.2559H77.5731V11.746H76.7053ZM80.8184 11.746H79.9505V6.26055H80.8184C82.4479 6.26055 83.2142 7.29897 83.2142 9.00328C83.2142 10.7076 82.4433 11.746 80.8184 11.746Z" fill="#DB2031"/>
<path d="M67.5236 6.58185H64.1076V4.09058H61.7302V13.1988C61.7302 13.5947 62.0534 13.916 62.4457 13.916H67.5236C69.5963 13.916 71.1612 12.342 71.1612 10.2466C71.1612 8.15577 69.8502 6.58185 67.5236 6.58185ZM67.5236 11.7134H64.1076V8.78906H67.5236C68.1053 8.78906 68.7793 9.31526 68.7793 10.2512C68.7839 11.1872 68.1053 11.7134 67.5236 11.7134Z" fill="#DB2031"/>
<path d="M94.4686 6.59577C94.1131 4.97994 93.1021 3.84839 90.8817 3.84839C88.7952 3.84839 87.6504 4.97528 87.2949 6.59577L85.6838 13.9159H87.4057C87.7981 13.9159 88.1905 13.5993 88.2736 13.2128L88.6013 11.7227H93.1668L93.4899 13.2128C93.573 13.5993 93.9654 13.9159 94.3578 13.9159H96.0796L94.4686 6.59577ZM89.0491 9.6598L89.6123 7.06608C89.7046 6.64699 90.0277 6.00438 90.8771 6.00438C91.7265 6.00438 92.0496 6.64699 92.142 7.06608L92.7098 9.6598H89.0491Z" fill="#DB2031"/>
<path d="M108.258 22.6146C108.678 22.2002 108.945 21.6321 108.945 20.8451C108.945 19.1036 107.607 17.8835 105.88 17.8835H100.064C99.6713 17.8835 99.3481 18.2048 99.3481 18.6007V26.9918C99.3481 27.3876 99.6713 27.7089 100.064 27.7089H106.245C108.068 27.7089 109.278 26.3958 109.278 24.6496C109.282 23.7788 108.867 23.0896 108.258 22.6146ZM105.88 19.9231C106.194 19.9231 106.628 20.2817 106.628 20.8917C106.628 21.5064 106.194 21.823 105.88 21.8603H101.684V19.9231H105.88ZM106.069 25.674H101.684V23.7369H106.069C106.388 23.7741 106.817 24.0908 106.817 24.7054C106.817 25.3154 106.388 25.674 106.069 25.674Z" fill="#DB2031"/>
<path d="M92.5436 17.6553C89.6031 17.6553 87.5488 19.7694 87.5488 22.7961C87.5488 25.8229 89.6031 27.937 92.5436 27.937H93.3561C96.2966 27.937 98.3509 25.8229 98.3509 22.7961C98.3509 19.7694 96.2966 17.6553 93.3561 17.6553H92.5436ZM90.1155 22.7961C90.1155 21.0359 91.048 19.6855 92.6867 19.6855H93.2176C94.8564 19.6855 95.7888 21.0359 95.7888 22.7961C95.7888 24.561 94.8564 25.9067 93.2176 25.9067H92.6867C91.048 25.9067 90.1155 24.561 90.1155 22.7961Z" fill="#DB2031"/>
<path d="M48.1445 17.8787L48.4584 19.3641C48.5415 19.7599 48.9339 20.0859 49.3263 20.0859H51.5421V27.7087H53.9195V20.0859H56.066C56.4584 20.0859 56.8462 19.7646 56.9293 19.3641L57.2432 17.8787H48.1445Z" fill="#DB2031"/>
<path d="M128.283 17.8787V21.7855H123.653V17.8787H121.275V27.7134H123.653V23.8903H128.283V27.7134H130.66V17.8787H128.283Z" fill="#DB2031"/>
<path d="M75.8328 20.3934C75.4774 18.7775 74.4664 17.646 72.246 17.646C70.1595 17.646 69.0146 18.7729 68.6592 20.3934L67.0481 27.7135H68.77C69.1623 27.7135 69.5547 27.3969 69.6378 27.0104L69.961 25.5203H74.5264L74.8542 27.0104C74.9373 27.3969 75.3297 27.7135 75.722 27.7135H77.4439L75.8328 20.3934ZM70.418 23.4574L70.9858 20.8637C71.0781 20.4446 71.4012 19.802 72.2506 19.802C73.1 19.802 73.4231 20.4446 73.5155 20.8637L74.0833 23.4527H70.418V23.4574Z" fill="#DB2031"/>
<path d="M118.612 20.3934C118.256 18.7775 117.245 17.646 115.025 17.646C112.938 17.646 111.793 18.7729 111.438 20.3934L109.827 27.7135H111.549C111.941 27.7135 112.334 27.3969 112.417 27.0104L112.744 25.5203H117.31L117.638 27.0104C117.721 27.3969 118.113 27.7135 118.505 27.7135H120.232L118.612 20.3934ZM113.192 23.4574L113.76 20.8637C113.852 20.4446 114.175 19.802 115.025 19.802C115.874 19.802 116.197 20.4446 116.29 20.8637L116.857 23.4527H113.192V23.4574Z" fill="#DB2031"/>
<path d="M48.8878 27.6854V27.7134H44.2392C41.4233 27.7134 39.4614 25.6924 39.4614 22.796C39.4614 19.9043 41.4279 17.8787 44.2392 17.8787H47.7661L47.4198 19.3874C47.3321 19.7739 46.9398 20.0859 46.5474 20.0859H44.2392C42.7343 20.0859 41.8388 21.2174 41.8388 22.796C41.8388 24.3746 42.7343 25.5061 44.2392 25.5061H47.6737C48.0661 25.5061 48.4585 25.8228 48.5462 26.2093L48.8878 27.6854Z" fill="#DB2031"/>
<path d="M63.6227 17.8787H58.5449C58.1525 17.8787 57.8293 18.2046 57.8293 18.6004V27.7134H60.2067V25.2174H63.6181C65.9447 25.2174 67.2557 23.6389 67.2557 21.548C67.2603 19.4572 65.7001 17.8787 63.6227 17.8787ZM63.6227 23.0102H60.2113V20.0905H63.6227C64.2044 20.0905 64.883 20.6121 64.883 21.5527C64.883 22.4887 64.2044 23.0102 63.6227 23.0102Z" fill="#DB2031"/>
<path d="M150.829 25.6365H145.704V23.7506H151.276V21.8507H145.704V19.9555H150.829C151.249 19.9555 151.586 19.7692 151.701 19.2524L152.02 17.8787H144.038C143.646 17.8787 143.323 18.2 143.323 18.5958V26.9869C143.323 27.3827 143.646 27.7087 144.038 27.7087H152.02L151.701 26.335C151.586 25.8228 151.253 25.6365 150.829 25.6365Z" fill="#DB2031"/>
<path d="M132.294 27.7136V17.8835H134.672V24.3655L138.794 18.461C139.025 18.1443 139.537 17.8835 139.929 17.8835H141.693V27.7136H139.316V21.227L135.193 27.1315C134.962 27.4482 134.45 27.7136 134.058 27.7136H132.294Z" fill="#DB2031"/>
<path d="M84.6221 22.745L87.9412 17.8835H85.7577C85.2869 17.8835 84.9545 18.0279 84.6591 18.4889L82.891 21.2922H82.5725L80.7999 18.4889C80.509 18.0279 80.1767 17.8835 79.7012 17.8835H77.4438L80.8368 22.8521L77.5177 27.7136H79.7012C80.1767 27.7136 80.509 27.5692 80.7999 27.1082L82.5725 24.305H82.891L84.6591 27.1082C84.9499 27.5692 85.2823 27.7136 85.7577 27.7136H88.0151L84.6221 22.745Z" fill="#DB2031"/>
<path d="M39.6553 35.2154C39.6553 33.9441 40.5 32.7939 41.9634 32.7939C42.5589 32.7939 42.942 32.929 43.2883 33.1525L42.979 33.6275C42.7112 33.4459 42.3835 33.3248 41.9496 33.3248C40.8693 33.3248 40.32 34.2142 40.32 35.2014C40.32 36.2026 40.8509 37.1292 41.9634 37.1292C42.4666 37.1292 42.8266 36.9616 43.0898 36.7334L43.3714 37.1851C43.1313 37.4133 42.6097 37.6647 41.9496 37.6647C40.4724 37.6647 39.6553 36.4866 39.6553 35.2154Z" fill="#DB2031"/>
<path d="M44.2576 32.8777H46.718V33.4132H44.89V34.8334H46.4918V35.3643H44.89V37.0453H46.7642V37.5808H44.2576V32.8777Z" fill="#DB2031"/>
<path d="M47.8169 32.8777H49.054C50.0142 32.8777 50.7297 33.3387 50.7297 34.2607C50.7297 35.2013 50.0789 35.7229 48.9802 35.7229H48.4539V37.5808H47.8169V32.8777ZM48.9802 35.2013C49.7557 35.2013 50.0789 34.8847 50.0789 34.2747C50.0789 33.7531 49.7834 33.3992 48.9987 33.3992H48.4539V35.2013H48.9802Z" fill="#DB2031"/>
<path d="M51.6807 32.8777H52.9778C53.8457 32.8777 54.5243 33.1943 54.5243 34.0511C54.5243 34.6146 54.2011 34.9638 53.6887 35.0989V35.1128C54.2565 35.2106 54.7274 35.6158 54.7274 36.263C54.7274 37.2223 54.0073 37.5855 52.9548 37.5855H51.6807V32.8777ZM52.9132 34.8847C53.5872 34.8847 53.878 34.6379 53.878 34.107C53.878 33.6134 53.5502 33.3946 52.9271 33.3946H52.3131V34.8847H52.9132ZM52.9409 37.0639C53.7118 37.0639 54.0673 36.8218 54.0673 36.2584C54.0673 35.7135 53.7811 35.3829 52.9825 35.3829H52.3085V37.0639H52.9409Z" fill="#DB2031"/>
<path d="M55.729 32.8777H56.3153V36.0209C56.3153 36.3748 56.2968 36.5936 56.2876 36.6774H56.3014C56.3799 36.5517 56.5184 36.3049 56.7492 35.965L58.8357 32.8777H59.4682V37.5808H58.8865V34.2327C58.8865 33.9906 58.9096 33.7811 58.9096 33.6972H58.8958C58.8173 33.8323 58.6696 34.0931 58.5172 34.3259L56.3199 37.5808H55.7336V32.8777H55.729Z" fill="#DB2031"/>
<path d="M60.4792 35.2154C60.4792 33.9441 61.324 32.7939 62.792 32.7939C63.3875 32.7939 63.7706 32.929 64.1169 33.1525L63.8076 33.6275C63.5398 33.4459 63.2121 33.3248 62.7781 33.3248C61.6979 33.3248 61.1486 34.2142 61.1486 35.2014C61.1486 36.2026 61.6795 37.1292 62.792 37.1292C63.2952 37.1292 63.6552 36.9616 63.9184 36.7334L64.2 37.1851C63.9599 37.4133 63.4383 37.6647 62.7781 37.6647C61.3009 37.6647 60.4792 36.4866 60.4792 35.2154Z" fill="#DB2031"/>
<path d="M66.6189 32.8777H69.2594V33.4132H67.2559V34.7543H67.9992C68.9501 34.7543 69.6656 35.206 69.6656 36.1233C69.6656 37.064 69.0147 37.5762 67.9161 37.5762H66.6189V32.8777ZM67.9161 37.0593C68.7008 37.0593 69.024 36.7333 69.024 36.1466C69.024 35.6297 68.7239 35.2805 67.9438 35.2805H67.2559V37.0593H67.9161Z" fill="#DB2031"/>
<path d="M70.4827 37.5527L70.5657 37.0637C70.6211 37.0777 70.6996 37.087 70.7919 37.087C71.1751 37.087 71.4013 36.8542 71.6183 36.3513L71.7383 36.0812L70.3303 32.8728H70.9397L72.0476 35.3967L73.1462 32.8728H73.7556L72.1399 36.5794C71.8168 37.3152 71.4336 37.5899 70.7966 37.5899C70.6581 37.5946 70.5473 37.5806 70.4827 37.5527Z" fill="#DB2031"/>
<path d="M73.7002 37.0453H74.0695C74.4342 36.7333 74.5727 36.3049 74.665 35.2991L74.8958 32.8777H77.6056V37.0453H78.081L77.9333 38.6006H77.4994L77.4486 37.5855H74.3142L74.2172 38.6006H73.7833L73.7002 37.0453ZM76.9685 37.0453V33.4132H75.4775L75.2882 35.4062C75.2051 36.3096 75.0204 36.7752 74.7712 37.0453H76.9685Z" fill="#DB2031"/>
<path d="M78.8564 37.5527L78.9395 37.0637C78.9949 37.0777 79.0734 37.087 79.1657 37.087C79.5489 37.087 79.7751 36.8542 79.992 36.3513L80.1121 36.0812L78.7041 32.8728H79.3134L80.4214 35.3967L81.52 32.8728H82.1294L80.5137 36.5794C80.1905 37.3152 79.8074 37.5899 79.1703 37.5899C79.0319 37.5946 78.9211 37.5806 78.8564 37.5527Z" fill="#DB2031"/>
<path d="M88.4582 37.5808H82.9233V32.8777H83.5604V37.0453H85.453V32.8777H86.0809V37.0453H87.9735V32.8777H88.6106V37.0453H89.0953L88.9383 38.596H88.5044L88.4582 37.5808Z" fill="#DB2031"/>
<path d="M90.0647 32.8777H92.5251V33.4132H90.6971V34.8334H92.299V35.3643H90.6971V37.0453H92.5713V37.5808H90.0647V32.8777Z" fill="#DB2031"/>
<path d="M93.624 32.8777H96.1307V33.4085H94.2611V37.5808H93.624V32.8777Z" fill="#DB2031"/>
<path d="M96.5137 35.2387C96.5137 33.9441 97.3584 32.7939 98.8218 32.7939C100.281 32.7939 101.139 33.9302 101.139 35.2247C101.139 36.5099 100.294 37.6694 98.8357 37.6694C97.3769 37.6647 96.5137 36.5239 96.5137 35.2387ZM100.47 35.2387C100.47 34.2142 99.9159 33.3248 98.8403 33.3248C97.7601 33.3248 97.183 34.2002 97.183 35.2247C97.183 36.2491 97.7508 37.1385 98.8264 37.1385C99.902 37.1385 100.47 36.2584 100.47 35.2387Z" fill="#DB2031"/>
<path d="M103.683 32.8777H104.975C105.843 32.8777 106.522 33.1943 106.522 34.0511C106.522 34.6146 106.199 34.9638 105.686 35.0989V35.1128C106.254 35.2106 106.72 35.6158 106.72 36.263C106.72 37.2223 106 37.5855 104.948 37.5855H103.674V32.8777H103.683ZM104.915 34.8847C105.589 34.8847 105.88 34.6379 105.88 34.107C105.88 33.6134 105.552 33.3946 104.929 33.3946H104.315V34.8847H104.915ZM104.943 37.0639C105.714 37.0639 106.069 36.8218 106.069 36.2584C106.069 35.7135 105.783 35.3829 104.985 35.3829H104.311V37.0639H104.943Z" fill="#DB2031"/>
<path d="M109.264 32.8777H109.901V34.8428H112.426V32.8777H113.063V37.5808H112.426V35.3783H109.901V37.5808H109.264V32.8777Z" fill="#DB2031"/>
<path d="M115.639 32.8777H116.248L118.048 37.5808H117.361L116.954 36.4726H114.882L114.48 37.5808H113.852L115.639 32.8777ZM116.761 35.9417L116.207 34.4237C116.059 34.0279 115.999 33.809 115.925 33.6134H115.911C115.847 33.8276 115.773 34.0651 115.639 34.4237L115.08 35.9417H116.761Z" fill="#DB2031"/>
<path d="M118.362 35.2154C118.362 33.9441 119.207 32.7939 120.675 32.7939C121.271 32.7939 121.654 32.929 122 33.1525L121.691 33.6275C121.423 33.4459 121.095 33.3248 120.661 33.3248C119.586 33.3248 119.027 34.2142 119.027 35.2014C119.027 36.2026 119.558 37.1292 120.675 37.1292C121.178 37.1292 121.534 36.9616 121.801 36.7334L122.083 37.1851C121.843 37.4133 121.321 37.6647 120.661 37.6647C119.179 37.6647 118.362 36.4866 118.362 35.2154Z" fill="#DB2031"/>
<path d="M123.819 33.4132H122.499V32.8777H125.771V33.4132H124.456V37.5808H123.819V33.4132Z" fill="#DB2031"/>
<path d="M126.155 35.2387C126.155 33.9441 127.004 32.7939 128.467 32.7939C129.921 32.7939 130.785 33.9302 130.785 35.2247C130.785 36.5099 129.94 37.6694 128.481 37.6694C127.013 37.6647 126.155 36.5239 126.155 35.2387ZM130.111 35.2387C130.111 34.2142 129.557 33.3248 128.481 33.3248C127.406 33.3248 126.819 34.2002 126.819 35.2247C126.819 36.2491 127.387 37.1385 128.467 37.1385C129.543 37.1385 130.111 36.2584 130.111 35.2387Z" fill="#DB2031"/>
<path d="M131.357 37.05H131.426C131.74 37.05 131.93 36.6821 132.336 36.0907C132.539 35.788 132.756 35.49 132.908 35.3922V35.3783C132.193 35.327 131.639 34.9312 131.639 34.1629C131.639 33.3527 132.225 32.8777 133.222 32.8777H134.547V37.5808H133.919V35.4528H133.73C133.43 35.4621 133.241 35.8486 132.834 36.4493C132.28 37.2735 132.059 37.5808 131.616 37.5808H131.371L131.357 37.05ZM133.919 34.9545V33.3992H133.291C132.613 33.3992 132.29 33.6553 132.29 34.1536C132.29 34.6565 132.59 34.9499 133.25 34.9499H133.919V34.9545Z" fill="#DB2031"/>
<path d="M141.388 37.5808H135.858V32.8777H136.495V37.0453H138.383V32.8777H139.016V37.0453H140.904V32.8777H141.545V37.0453H142.025L141.873 38.596H141.439L141.388 37.5808Z" fill="#DB2031"/>
<path d="M142.999 32.8777H145.455V33.4132H143.627V34.8334H145.234V35.3643H143.627V37.0453H145.506V37.5808H142.999V32.8777Z" fill="#DB2031"/>
<path d="M146.905 32.8777H147.5L148.613 36.0209C148.747 36.4027 148.82 36.6355 148.899 36.873H148.913C148.977 36.6449 149.06 36.3934 149.194 36.0209L150.316 32.8777H150.916L151.549 37.5808H150.912L150.528 34.6286C150.487 34.2886 150.464 34.0977 150.45 33.9627H150.436C150.395 34.1163 150.339 34.3166 150.233 34.6192L149.19 37.5808H148.576L147.514 34.6192C147.408 34.3166 147.348 34.1163 147.297 33.9627H147.283C147.269 34.1256 147.246 34.3212 147.214 34.6425L146.858 37.5808H146.272L146.905 32.8777Z" fill="#DB2031"/>
</svg>
