<svg width="60" height="61" viewBox="0 0 60 61" fill="none" xmlns="http://www.w3.org/2000/svg">
<path d="M49.4466 45.8491C49.1826 45.8491 48.9232 45.9566 48.7364 46.1434C48.5497 46.3302 48.4422 46.5895 48.4422 46.8536C48.4422 47.1176 48.5497 47.377 48.7364 47.5638C48.9232 47.7505 49.1826 47.858 49.4466 47.858C49.7107 47.858 49.9701 47.7505 50.1568 47.5638C50.3436 47.377 50.4511 47.1176 50.4511 46.8536C50.4511 46.5895 50.3436 46.3302 50.1568 46.1434C49.9701 45.9566 49.7107 45.8491 49.4466 45.8491Z" fill="#3C3C51"/>
<path d="M49.4466 49.8667C47.5637 49.8667 46.0315 51.3989 46.0315 53.2819C46.0315 55.1649 47.5637 56.6971 49.4466 56.6971C51.33 56.6971 52.8618 55.1649 52.8618 53.2819C52.8618 51.3989 51.3296 49.8667 49.4466 49.8667ZM49.4466 54.6881C48.6713 54.6881 48.0404 54.0572 48.0404 53.2819C48.0404 52.5066 48.6713 51.8756 49.4466 51.8756C50.222 51.8756 50.8529 52.5066 50.8529 53.2819C50.8529 54.0572 50.222 54.6881 49.4466 54.6881Z" fill="#3C3C51"/>
<path d="M48.4422 35.2004V42.8354C48.4422 43.3903 48.8918 43.8399 49.4466 43.8399C50.0014 43.8399 50.4511 43.3903 50.4511 42.8354V29.2254C50.4511 27.2961 48.8816 25.7266 46.9524 25.7266H37.0596C37.2267 25.3135 37.3068 24.8658 37.2907 24.4047C37.2291 22.6677 35.7946 21.307 34.0254 21.307H31.6374C31.3024 21.307 30.9641 21.2905 30.633 21.2579C28.1167 21.0123 26.023 19.1207 25.4231 16.5515C25.3105 16.0704 25.1284 15.62 24.8899 15.2092C27.097 14.6724 28.741 12.6804 28.741 10.3105C28.741 7.53056 26.479 5.26855 23.699 5.26855C20.9187 5.26855 18.6571 7.53056 18.6571 10.3105C18.6571 11.2859 18.9361 12.197 19.4179 12.9692C18.1015 13.3329 16.9601 14.2432 16.3394 15.507C14.7013 18.8417 13.8357 22.5681 13.8357 26.2834V29.9783C13.8357 31.7875 14.2167 33.5654 14.9296 35.1988L13.7682 41.552L9.00055 47.689C8.99976 47.6898 8.99898 47.691 8.99859 47.6922C8.97897 47.7169 8.96131 47.7432 8.94444 47.7699C8.94287 47.7722 8.94091 47.7746 8.93934 47.7769C8.93934 47.7769 8.93895 47.7773 8.93895 47.7777L7.07834 50.7923C6.87078 51.1285 6.80643 51.5256 6.89746 51.9105C6.98849 52.2951 7.22391 52.6211 7.56017 52.8287L13.5854 56.5475C13.7455 56.646 13.9283 56.697 14.1131 56.697C14.1904 56.697 14.2681 56.688 14.3442 56.67C14.6036 56.6087 14.8276 56.4471 14.9677 56.2203C15.6724 55.0785 15.8901 53.7311 15.5813 52.4257C15.4915 52.0471 15.3597 51.6857 15.1913 51.3455L17.36 48.9034L17.0229 51.5476C17.0225 51.5515 17.0225 51.555 17.0221 51.5586C17.0198 51.5786 17.019 51.5986 17.0178 51.619C17.017 51.6343 17.0158 51.6496 17.0155 51.6649C17.0155 51.668 17.0151 51.6716 17.0151 51.6747V55.6926C17.0151 56.2474 17.4647 56.697 18.0195 56.697H25.575C26.1298 56.697 26.5794 56.2474 26.5794 55.6926C26.5794 54.0584 25.7943 52.6042 24.5819 51.6865L26.1961 41.8824C26.5163 39.9386 26.3703 37.9183 25.7747 36.04L23.8022 29.823V25.7718C26.1949 27.0607 28.8705 27.7356 31.6378 27.7356H33.338C33.1241 28.1876 33.0041 28.6925 33.0041 29.2254V55.6596C33.0041 56.214 33.4537 56.6641 34.0085 56.6641C34.5633 56.6641 35.013 56.214 35.013 55.6596V35.2004H48.4422ZM48.4422 29.2254V33.1914H35.0126V29.2254C35.0126 28.4038 35.6812 27.7356 36.5024 27.7356H46.9524C47.774 27.7356 48.4422 28.4038 48.4422 29.2254ZM23.699 7.27748C25.3713 7.27748 26.7321 8.63821 26.7321 10.3105C26.7321 11.9828 25.3713 13.3435 23.699 13.3435C22.0264 13.3435 20.666 11.9828 20.666 10.3105C20.666 8.63821 22.0264 7.27748 23.699 7.27748ZM13.6403 54.2208L9.06568 51.3969L10.1208 49.6878L12.2764 51.0183C12.9611 51.4409 13.4406 52.1051 13.6262 52.8883C13.7313 53.3333 13.7345 53.7864 13.6403 54.2208ZM13.973 49.6921L11.2747 48.0359L15.5052 42.5902C15.6045 42.4627 15.6712 42.3136 15.7002 42.1547L16.4854 37.8594C16.9283 38.446 17.4219 38.9981 17.9642 39.5062L18.4943 40.0033L17.81 45.3709L13.973 49.6921ZM19.0236 54.6881V52.6792H21.5567C22.8664 52.6792 23.9835 53.5188 24.3982 54.6881H19.0236ZM24.2134 41.5559L22.713 50.6703H19.1597L19.7628 45.9399C19.7632 45.9395 19.7632 45.9387 19.7632 45.9379L20.5523 39.7483C20.5931 39.4285 20.4777 39.1087 20.2427 38.8882L19.3379 38.0403C17.3631 36.1899 16.1385 33.6603 15.8917 30.9828H22.0621L23.8591 36.6478C24.3598 38.2255 24.4822 39.9229 24.2134 41.5559ZM23.384 23.1629C23.3801 23.1601 23.3757 23.1582 23.3722 23.1558C22.6542 22.6579 21.9734 22.0894 21.3492 21.4647C20.9572 21.0728 20.3212 21.0728 19.9288 21.4647C19.5364 21.8571 19.5364 22.4931 19.9288 22.8855C20.5107 23.4674 21.1365 24.0061 21.7933 24.4938C21.7933 24.5056 21.7929 24.5173 21.7929 24.5287V28.9739H15.8446V26.2834C15.8446 22.8733 16.6392 19.4534 18.1423 16.3926C18.6587 15.3414 19.7895 14.7074 20.9548 14.8145C22.1767 14.9267 23.1862 15.8083 23.4668 17.0086C24.2629 20.4167 27.064 22.9279 30.4376 23.2575C30.8335 23.2963 31.2372 23.3159 31.6374 23.3159H34.0254C34.6963 23.3159 35.2602 23.8366 35.2829 24.4762C35.2947 24.8073 35.175 25.1208 34.9459 25.3582C34.7167 25.5956 34.4087 25.7266 34.0784 25.7266H31.6374C28.6617 25.7266 25.8076 24.8399 23.384 23.1629Z" fill="#3C3C51"/>
</svg>
