<svg width="60" height="61" viewBox="0 0 60 61" fill="none" xmlns="http://www.w3.org/2000/svg">
<path d="M44.1629 13.0029C41.5152 13.0029 38.9276 13.9219 36.8774 15.5902C35.2275 16.9329 33.9782 18.7127 33.2727 20.6989C31.3662 19.6034 29.2188 19.0297 26.9866 19.0297C24.1812 19.0297 21.5233 19.929 19.3009 21.6299C17.4458 23.0499 16.0062 24.9812 15.17 27.1478C14.7345 27.027 14.2825 26.965 13.8281 26.965C11.0588 26.965 8.8058 29.218 8.8058 31.9873C8.8058 32.2176 8.8215 32.4468 8.85289 32.674C6.08786 33.9962 4.28571 36.8056 4.28571 39.9226C4.28571 44.3536 7.89041 47.9583 12.3214 47.9583C13.1921 47.9583 14.0388 47.8221 14.8491 47.553C15.602 49.0083 16.6987 50.2568 18.0618 51.2004C19.7443 52.365 21.7191 52.9806 23.7723 52.9806C24.8505 52.9806 25.9005 52.8131 26.9066 52.4819C27.849 54.9829 30.2539 56.6971 33.0134 56.6971C36.6134 56.6971 39.5424 53.7681 39.5424 50.1681C39.5424 49.689 39.4906 49.2162 39.3878 48.7536C40.4288 48.2027 41.1401 47.1524 41.2382 45.9372C44.6848 44.259 46.875 40.7877 46.875 36.9092C46.875 36.5384 46.8546 36.1672 46.8138 35.7988C49.1468 35.2495 51.266 33.9786 52.8614 32.1545C54.7012 30.051 55.7143 27.3519 55.7143 24.5543C55.7143 18.1849 50.5323 13.0029 44.1629 13.0029ZM45.5245 33.9998C45.5209 34.0002 45.5178 34.0013 45.5143 34.0017C45.0697 34.0645 44.6153 34.0967 44.1629 34.0967C43.6081 34.0967 43.1585 34.5463 43.1585 35.1011C43.1585 35.656 43.6081 36.1056 44.1629 36.1056C44.3831 36.1056 44.6036 36.0978 44.8237 36.0852C44.8516 36.3587 44.8661 36.6341 44.8661 36.9092C44.8661 40.2008 42.8944 43.1255 39.843 44.3607C39.4153 44.5337 39.1606 44.9759 39.2254 45.433C39.336 46.2126 38.7926 47.0001 37.9827 47.1339C37.3632 47.2363 36.981 47.9147 37.2129 48.4966C37.4256 49.0306 37.5335 49.5929 37.5335 50.1681C37.5335 52.6604 35.5057 54.6882 33.0134 54.6882C30.8185 54.6882 28.9477 53.1219 28.5647 50.9634C28.4513 50.3243 27.7392 49.9554 27.1526 50.2277C26.0896 50.7213 24.9526 50.9717 23.7723 50.9717C20.4537 50.9717 17.5199 48.9781 16.2981 45.8932C16.2922 45.8783 16.2851 45.8646 16.2785 45.8505C16.2738 45.836 16.2698 45.8214 16.2643 45.8073C15.9143 44.8919 15.7366 43.9259 15.7366 42.936C15.7366 42.3812 15.287 41.9315 14.7321 41.9315C14.1773 41.9315 13.7277 42.3812 13.7277 42.936C13.7277 43.8718 13.8556 44.7907 14.1075 45.6786C13.5331 45.8572 12.9359 45.9494 12.3214 45.9494C8.99806 45.9494 6.29464 43.2459 6.29464 39.9226C6.29464 37.6574 7.56395 35.61 9.52855 34.5828C9.73689 34.9273 9.98566 35.2479 10.2768 35.5386C10.6444 35.9063 11.3099 35.9263 11.6972 35.5386C12.0895 35.1463 12.0895 34.5102 11.6972 34.1183C11.1463 33.567 10.8147 32.7658 10.8147 31.9873C10.8147 30.3256 12.1664 28.9739 13.8281 28.9739C14.3621 28.9739 14.893 29.1207 15.3533 29.3906C15.9677 29.7504 16.6351 30.6007 17.3795 29.8563C17.7718 29.4644 17.7718 28.8283 17.3795 28.436C17.2496 28.3061 17.113 28.1845 16.971 28.0703C18.4793 23.8967 22.4979 21.0386 26.9866 21.0386C29.0548 21.0386 31.0355 21.6256 32.7548 22.738C32.6603 23.3367 32.6116 23.9445 32.6116 24.5543C32.6116 25.1091 33.0613 25.5587 33.6161 25.5587C34.1709 25.5587 34.6205 25.1091 34.6205 24.5543C34.6205 23.8598 34.6959 23.1688 34.8438 22.4951C35.7972 18.159 39.7162 15.0119 44.1629 15.0119C49.4246 15.0119 53.7054 19.2926 53.7054 24.5543C53.7054 29.2733 50.1886 33.3339 45.5245 33.9998Z" fill="#3C3C51"/>
<path d="M14.8326 21.2398C17.0479 21.2398 18.8504 19.4373 18.8504 17.222C18.8504 15.0066 17.0479 13.2041 14.8326 13.2041C12.6173 13.2041 10.8147 15.0066 10.8147 17.222C10.8147 19.4373 12.6173 21.2398 14.8326 21.2398ZM14.8326 15.213C15.9402 15.213 16.8415 16.1143 16.8415 17.222C16.8415 18.3296 15.9402 19.2309 14.8326 19.2309C13.7249 19.2309 12.8237 18.3296 12.8237 17.222C12.8237 16.1143 13.7249 15.213 14.8326 15.213Z" fill="#3C3C51"/>
<path d="M26.8862 15.3132C29.6555 15.3132 31.9085 13.0602 31.9085 10.2909C31.9085 7.52154 29.6555 5.26855 26.8862 5.26855C24.1168 5.26855 21.8638 7.52154 21.8638 10.2909C21.8638 13.0602 24.1168 15.3132 26.8862 15.3132ZM26.8862 7.27748C28.5478 7.27748 29.8996 8.62919 29.8996 10.2909C29.8996 11.9526 28.5478 13.3043 26.8862 13.3043C25.2245 13.3043 23.8728 11.9526 23.8728 10.2909C23.8728 8.62919 25.2245 7.27748 26.8862 7.27748Z" fill="#3C3C51"/>
<path d="M29.8823 29.4689C29.2058 28.8878 28.3018 28.5967 27.171 28.5967C26.0394 28.5967 25.1385 28.8874 24.4672 29.4689C23.7959 30.0504 23.4604 30.9701 23.4604 32.2281V36.652C23.4604 37.9103 23.7959 38.8301 24.4672 39.4112C25.1385 39.9926 26.0394 40.2834 27.171 40.2834C28.3018 40.2834 29.2058 39.9926 29.8823 39.4112C30.5587 38.8301 30.8973 37.9103 30.8973 36.652V32.2281C30.8973 30.9701 30.5587 30.0504 29.8823 29.4689ZM28.8358 36.652C28.8358 37.868 28.2806 38.4754 27.171 38.4754C26.0712 38.4754 25.5215 37.8676 25.5215 36.652V32.2281C25.5215 31.0125 26.0712 30.4043 27.171 30.4043C28.2806 30.4043 28.8358 31.0125 28.8358 32.2281V36.652Z" fill="#3C3C51"/>
<path d="M35.7984 39.8986C36.024 39.7962 36.1994 39.6114 36.3246 39.3434C36.4498 39.0754 36.5121 38.7607 36.5121 38.3997C36.5121 37.314 35.8714 36.771 34.5903 36.771C34.2278 36.771 33.9103 36.8228 33.6384 36.9256C33.3665 37.0288 33.1594 37.1622 33.0173 37.3262C32.8757 37.4898 32.7713 37.6585 32.705 37.8312C32.6383 38.0042 32.6049 38.1784 32.6049 38.3546C32.6049 38.5527 32.6426 38.6865 32.7183 38.7556C32.7941 38.8247 32.9585 38.8592 33.2123 38.8592C33.587 38.8592 33.7746 38.7089 33.7746 38.4084C33.7746 38.0058 34.0434 37.8045 34.5813 37.8045C35.113 37.8045 35.379 38.069 35.379 38.5979C35.379 38.9526 35.3068 39.1884 35.1632 39.3057C35.0192 39.423 34.8152 39.4815 34.5515 39.4815C34.3172 39.4815 34.2007 39.6353 34.2007 39.9437C34.2007 40.2521 34.3153 40.4063 34.5452 40.4063C35.2099 40.4063 35.5422 40.6931 35.5422 41.2672V41.4394C35.5422 41.7839 35.4653 42.0334 35.3111 42.1873C35.1569 42.3415 34.9109 42.4188 34.5723 42.4188C34.2823 42.4188 34.0524 42.3595 33.8833 42.2418C33.7142 42.1237 33.6298 41.9624 33.6298 41.7568C33.6298 41.6058 33.5874 41.4986 33.5027 41.4351C33.4179 41.3715 33.2578 41.3397 33.0224 41.3397C32.8168 41.3397 32.6716 41.3731 32.5873 41.4394C32.5025 41.5061 32.4602 41.627 32.4602 41.802C32.4602 42.2253 32.6371 42.6059 32.9906 42.9445C33.3442 43.2828 33.8621 43.4519 34.5452 43.4519C35.1918 43.4519 35.716 43.2886 36.1178 42.9626C36.5196 42.6361 36.7209 42.1284 36.7209 41.4394V41.2672C36.7205 40.5966 36.4133 40.1403 35.7984 39.8986Z" fill="#3C3C51"/>
</svg>
