<svg width="60" height="61" viewBox="0 0 60 61" fill="none" xmlns="http://www.w3.org/2000/svg">
<path d="M2.39108 52.1563H27.9492C28.4347 52.1563 28.8281 51.7628 28.8281 51.2774C28.8281 50.792 28.4347 50.3985 27.9492 50.3985H2.39108C2.04198 50.3985 1.75781 50.1144 1.75781 49.7652V46.7103C1.75781 46.361 2.04198 46.077 2.39108 46.077H57.6089C57.958 46.077 58.2421 46.361 58.2421 46.7103V49.7652C58.2421 50.1143 57.958 50.3985 57.6089 50.3985H32.0508C31.5653 50.3985 31.1719 50.792 31.1719 51.2774C31.1719 51.7628 31.5653 52.1563 32.0508 52.1563H57.609C58.9274 52.1563 60 51.0837 60 49.7652V46.7103C60 45.3918 58.9274 44.3192 57.609 44.3192H56.2436C56.2436 43.5161 56.2436 28.9447 56.2436 28.1414C56.2436 27.656 55.8502 27.2625 55.3647 27.2625C54.8792 27.2625 54.4858 27.656 54.4858 28.1414V40.6134H52.5378V11.5679H54.4858V24.0398C54.4858 24.5252 54.8792 24.9187 55.3647 24.9187C55.8502 24.9187 56.2436 24.5252 56.2436 24.0398V11.3689C56.2436 10.5093 55.5443 9.81006 54.6847 9.81006H52.3387C51.4791 9.81006 50.7798 10.5093 50.7798 11.3689V20.3985H46.1126V14.793C46.7371 14.5559 47.183 13.9529 47.183 13.2462V11.4657C47.183 10.5528 46.4403 9.81018 45.5274 9.81018H38.4383C37.5254 9.81018 36.7827 10.5528 36.7827 11.4657V13.2463C36.7827 13.953 37.2286 14.5559 37.8531 14.7931V20.3986H34.1299V14.7931C34.7544 14.556 35.2003 13.953 35.2003 13.2463V11.4657C35.2003 10.5528 34.4577 9.81018 33.5448 9.81018H26.4557C25.5428 9.81018 24.8001 10.5528 24.8001 11.4657V13.2463C24.8001 13.953 25.246 14.5559 25.8704 14.7931V20.3986H22.1473V14.7931C22.7718 14.556 23.2177 13.953 23.2177 13.2463V11.4657C23.2177 10.5528 22.4749 9.81018 21.5621 9.81018H14.473C13.5601 9.81018 12.8174 10.5528 12.8174 11.4657V13.2463C12.8174 13.953 13.2632 14.5559 13.8877 14.7931V20.3986H9.22028V11.3689C9.22028 10.5094 8.52102 9.81006 7.66145 9.81006H5.31537C4.4558 9.81006 3.75655 10.5093 3.75655 11.3689V44.3191H2.39108C1.07261 44.3192 0 45.3918 0 46.7103V49.7652C0 51.0836 1.07261 52.1563 2.39108 52.1563ZM46.1126 22.1564H50.7798V40.6134H46.1126C46.1126 40.0866 46.1126 23.2877 46.1126 22.1564ZM38.5405 11.5679H45.4252V13.144H45.2337H38.732H38.5405V11.5679ZM42.3898 29.1396C41.5582 28.455 40.5937 28.2354 39.6109 28.4941V22.1564H44.3548V29.5112C43.3233 30.1336 42.7162 29.4088 42.3898 29.1396ZM44.3548 31.4065V40.6133H39.6109V30.3889C40.2615 29.9967 40.8459 30.0901 41.3823 30.592C42.2681 31.4211 43.3189 31.6765 44.3548 31.4065ZM39.6109 20.3986V14.9018H44.3548V20.3986H39.6109ZM34.1298 22.1564H37.8529V40.6134H34.1298C34.1298 40.0866 34.1298 23.2877 34.1298 22.1564ZM26.5577 11.5679H33.4424V13.144H33.2509H26.7492H26.5577V11.5679ZM30.8183 29.4886C30.54 29.287 29.451 28.0201 27.628 28.4941V22.1564H32.3719V29.5112C31.7816 29.8674 31.2756 29.8194 30.8183 29.4886ZM32.372 31.4065V40.6133H27.6281V30.3889C28.7145 29.734 29.2888 30.553 29.7884 30.912C30.5313 31.4466 31.4245 31.6531 32.372 31.4065ZM27.6281 20.3986V14.9018H32.372V20.3986H27.6281ZM22.1471 22.1564H25.8702V40.6134H22.1471C22.1471 40.0866 22.1471 23.2877 22.1471 22.1564ZM14.575 11.5679H21.4596V13.144H21.2682H14.7664H14.575V11.5679ZM18.6179 29.3086C17.7893 28.5329 16.7529 28.2069 15.6453 28.4941V22.1564H20.3893V29.5112C19.7594 29.8915 19.1722 29.8272 18.6179 29.3086ZM20.3893 31.4065V40.6133H15.6453V30.3889C15.8847 30.2448 16.1581 30.1427 16.4398 30.1428C17.5658 30.1727 18.0646 32.0108 20.3893 31.4065ZM15.6453 20.3986V14.9018H20.3893V20.3986H15.6453ZM9.22028 22.1564H13.8875V40.6134H9.22028V22.1564ZM5.51447 11.568H7.46247V40.6134H5.51447V11.568ZM5.51447 42.3712H54.4858V44.3192H5.51447V42.3712Z" fill="#3C3C51"/>
</svg>
