<svg width="60" height="61" viewBox="0 0 60 61" fill="none" xmlns="http://www.w3.org/2000/svg">
<path d="M32.9464 51.4741H36.9643V55.6929H32.9464V51.4741Z" fill="#FAF7F5"/>
<path d="M46.5995 8.34252C45.8219 6.55859 44.0259 5.26855 41.9866 5.26855H34.3486C33.7952 5.26855 33.3452 5.71956 33.3452 6.27302C33.3452 6.82648 33.7952 7.27748 34.3486 7.27748H41.9866C43.6449 7.2805 44.997 8.63251 45 10.2909V15.8948C45 15.8948 43.091 16.8147 43.0905 16.8149C42.1788 17.2541 41.0548 17.2615 40.1252 16.8149C38.7306 16.1428 37.3647 15.3132 35.7698 15.3132C34.2033 15.3132 32.8005 16.1439 31.4155 16.8149C30.5033 17.2546 29.3805 17.2618 28.4503 16.8149C27.0547 16.1422 25.693 15.3132 24.0961 15.3132C22.5328 15.3132 21.1249 16.1475 19.7408 16.8149C18.8372 17.2506 17.6956 17.2568 16.7755 16.8149L14.866 15.8948V10.2909C14.8691 8.63251 16.2211 7.2805 17.8794 7.27748H25.3095C25.8629 7.27748 26.3129 6.82648 26.3129 6.27302C26.3129 5.71956 25.8629 5.26855 25.3095 5.26855C25.3095 5.26855 17.8819 5.26855 17.8794 5.26855C15.1579 5.26855 12.8571 7.5735 12.8571 10.2909V32.3891C12.8571 33.9615 13.6082 35.4635 14.866 36.4069L20.8928 40.927V49.465C20.8928 50.0197 21.3426 50.4694 21.8973 50.4694H25.9152C26.4698 50.4694 26.9196 50.0197 26.9196 49.465V45.4471H30.9375V51.4739C30.9375 52.0287 31.3873 52.4784 31.9419 52.4784V55.6927C31.9419 56.2474 32.3917 56.6971 32.9464 56.6971H36.9643C37.5189 56.6971 37.9687 56.2474 37.9687 55.6927V52.4784C38.5234 52.4784 38.9732 52.0287 38.9732 51.4739V49.465H40.9821V50.9717C40.9821 51.5264 41.4319 51.9761 41.9866 51.9761C42.5412 51.9761 42.991 51.5264 42.991 50.9717V45.9494C42.991 45.3946 42.5412 44.9449 41.9866 44.9449C41.4319 44.9449 40.9821 45.3946 40.9821 45.9494V47.4561H38.9732V40.927L45 36.4069C46.2579 35.4635 47.0089 33.9615 47.0089 32.3891C47.0089 32.3891 47.0089 10.2952 47.0089 10.2909C47.0089 9.60543 46.8624 8.9457 46.5995 8.34252ZM36.9643 43.4382H22.9018V41.4293H36.9643V43.4382ZM24.9107 48.4605H22.9018V45.4471H24.9107V48.4605ZM36.9643 45.4471V50.4694H32.9464V45.4471H36.9643ZM35.9598 54.6882H33.9509V52.4784H35.9598V54.6882ZM43.7946 34.7998L37.6339 39.4203H22.2321L16.0714 34.7998C15.3166 34.2338 14.866 33.3326 14.866 32.3891V18.1249C15.9672 18.6556 17.0056 19.1623 18.258 19.1623C19.8301 19.1623 21.222 18.3311 22.6125 17.6606C23.5427 17.2138 24.6473 17.2128 25.5777 17.6606C26.9722 18.3327 28.3379 19.1623 29.933 19.1623C31.4891 19.1623 32.9095 18.3251 34.2883 17.6606C35.192 17.2251 36.3319 17.2176 37.2525 17.6606C38.6478 18.3331 40.0116 19.1623 41.6078 19.1623C42.8296 19.1623 43.9106 18.6498 45 18.1249V32.3891C45 33.3326 44.5494 34.2338 43.7946 34.7998Z" fill="#3C3C51"/>
<path d="M29.8286 7.27748C30.3833 7.27748 30.833 6.82777 30.833 6.27302C30.833 5.71827 30.3833 5.26855 29.8286 5.26855C29.2738 5.26855 28.8241 5.71827 28.8241 6.27302C28.8241 6.82777 29.2738 7.27748 29.8286 7.27748Z" fill="#3C3C51"/>
<path fill-rule="evenodd" clip-rule="evenodd" d="M32.8263 24.1778C32.1408 24.0252 31.3231 24.1871 30.5812 24.9289C30.2465 25.2637 29.7038 25.2637 29.3691 24.929C28.5943 24.1542 27.8311 24.0346 27.2455 24.1928C26.6282 24.3595 26.0661 24.8723 25.8017 25.6248C25.3265 26.9773 25.8003 29.4983 29.9745 31.5187C32.226 30.4305 33.4859 29.2605 34.1122 28.2293C34.7595 27.1634 34.747 26.2288 34.4576 25.5471C34.1585 24.8428 33.5365 24.3359 32.8263 24.1778ZM35.5774 29.1191C34.6824 30.5927 32.9989 32.0227 30.3323 33.2449C30.1064 33.3484 29.8467 33.3489 29.6205 33.246C24.6945 31.0069 23.2798 27.6309 24.1843 25.0566C24.6163 23.827 25.581 22.8666 26.7985 22.5378C27.8363 22.2575 28.9641 22.4602 29.9776 23.1984C30.9917 22.471 32.1419 22.2691 33.1989 22.5045C34.4495 22.783 35.5203 23.6637 36.0355 24.8772C36.5604 26.1134 36.4836 27.627 35.5774 29.1191Z" fill="#3C3C51"/>
</svg>