<svg width="60" height="61" viewBox="0 0 60 61" fill="none" xmlns="http://www.w3.org/2000/svg">
<path fill-rule="evenodd" clip-rule="evenodd" d="M24.3039 9.35732C24.7248 9.24725 25.1685 9.42187 25.4015 9.78924C25.4014 9.78917 25.4014 9.78919 25.4015 9.78931C25.4034 9.79188 25.4368 9.83811 25.5513 9.91087C25.6687 9.98542 25.8381 10.0668 26.067 10.1475C26.5272 10.3097 27.1323 10.4365 27.8185 10.5279C29.186 10.7099 30.7216 10.7315 31.7125 10.6938C32.2644 10.6729 32.7288 11.1033 32.7498 11.6552C32.7707 12.207 32.3403 12.6714 31.7884 12.6924C30.7203 12.7329 29.0658 12.7115 27.5546 12.5104C26.8015 12.4102 26.045 12.2604 25.402 12.0337C25.2731 11.9882 25.1397 11.9366 25.0058 11.8775C24.5953 12.4055 24.0169 12.7503 23.4829 12.962C22.5497 13.3319 21.498 13.4189 20.8104 13.3965C20.2584 13.3786 19.8255 12.9165 19.8435 12.3645C19.8614 11.8125 20.3235 11.3796 20.8755 11.3976C21.3868 11.4142 22.1452 11.3408 22.7458 11.1027C23.3492 10.8636 23.5418 10.5805 23.5584 10.2713C23.5817 9.8369 23.8831 9.46739 24.3039 9.35732Z" fill="#3C3C51"/>
<path fill-rule="evenodd" clip-rule="evenodd" d="M46.4054 52.5425H27.3613V50.5425H46.4054C47.9315 50.5425 49.1686 51.7796 49.1686 53.3057C49.1686 54.8317 47.9315 56.0688 46.4054 56.0688H27.3613V54.0688H46.4054C46.8269 54.0688 47.1686 53.7272 47.1686 53.3057C47.1686 52.8842 46.8269 52.5425 46.4054 52.5425Z" fill="#3C3C51"/>
<path fill-rule="evenodd" clip-rule="evenodd" d="M34.748 32.3491C34.748 29.537 37.0277 27.2573 39.8398 27.2573H42.4133C45.2254 27.2573 47.5051 29.537 47.5051 32.3491V51.5425H45.5051V33.3491H36.748V51.5425H34.748V32.3491ZM36.9133 31.3491H45.3398C44.9241 30.1323 43.7709 29.2573 42.4133 29.2573H39.8398C38.4822 29.2573 37.329 30.1323 36.9133 31.3491Z" fill="#3C3C51"/>
<path fill-rule="evenodd" clip-rule="evenodd" d="M9.35251 53.3057C9.35251 51.7796 10.5896 50.5425 12.1157 50.5425H32.6541C34.1802 50.5425 35.4173 51.7796 35.4173 53.3057C35.4173 54.8317 34.1802 56.0688 32.6541 56.0688H23.3059C22.7536 56.0688 22.3059 55.6211 22.3059 55.0688C22.3059 54.5166 22.7536 54.0688 23.3059 54.0688H32.6541C33.0756 54.0688 33.4173 53.7272 33.4173 53.3057C33.4173 52.8842 33.0756 52.5425 32.6541 52.5425H12.1157C11.6942 52.5425 11.3525 52.8842 11.3525 53.3057C11.3525 53.7272 11.6942 54.0688 12.1157 54.0688H18.6536C19.2059 54.0688 19.6536 54.5166 19.6536 55.0688C19.6536 55.6211 19.2059 56.0688 18.6536 56.0688H12.1157C10.5896 56.0688 9.35251 54.8317 9.35251 53.3057Z" fill="#3C3C51"/>
<path fill-rule="evenodd" clip-rule="evenodd" d="M22.7275 23.815C22.0258 24.2892 21.4698 25.0924 21.2575 26.239C21.1569 26.7821 20.6351 27.1408 20.0921 27.0402C19.549 26.9396 19.1903 26.4179 19.2909 25.8748C19.5903 24.2581 20.4161 22.9631 21.6078 22.1579C22.7973 21.3542 24.2771 21.0887 25.7925 21.3918C27.4903 21.7313 28.8108 23.1593 29.6901 24.6202C30.5901 26.1158 31.1851 27.9009 31.3014 29.3549C31.4652 31.4025 31.3779 34.6829 31.3102 36.1933L33.3224 44.3428C33.3734 44.5493 33.3572 44.7667 33.2763 44.9633L30.4104 51.9232C30.2561 52.2979 29.891 52.5424 29.4858 52.5424H27.1317C26.8537 52.5424 26.5883 52.4267 26.3991 52.2231C26.2099 52.0195 26.114 51.7463 26.1344 51.4691L26.6267 44.7734L25.6106 42.6395L24.048 46.0251C23.9528 46.2313 23.7903 46.3989 23.5872 46.5005L17.8941 49.3471L18.1577 51.0504C18.2422 51.5962 17.8682 52.1071 17.3224 52.1916C16.7766 52.2761 16.2657 51.9021 16.1812 51.3563L15.8115 48.9675L15.2687 46.6015C15.1946 46.2786 15.2853 45.9399 15.5108 45.6972L19.1998 41.7269L18.2332 36.4731C18.2167 36.3836 18.2125 36.2923 18.2208 36.2017L18.9031 28.6914C18.9531 28.1413 19.4395 27.736 19.9895 27.786C20.5396 27.8359 20.9449 28.3223 20.8949 28.8723L20.3635 34.7215C21.3678 34.3727 22.5894 34.0725 23.9109 33.9515C25.6103 33.7959 27.5238 33.933 29.362 34.6878C29.4057 33.0754 29.4221 30.9438 29.3077 29.5144C29.2194 28.4096 28.7396 26.9195 27.9765 25.6515C27.1925 24.349 26.2614 23.5251 25.4003 23.3529C24.3569 23.1443 23.4316 23.3393 22.7275 23.815ZM29.4342 36.9387C27.7394 35.9938 25.8463 35.7826 24.0933 35.9432C22.6105 36.0789 21.2775 36.4771 20.3398 36.8704L21.2577 41.8588C21.3149 42.1696 21.2218 42.489 21.0068 42.7205L17.3365 46.6705L17.4845 47.3158L22.3791 44.8685L24.6776 39.8883L25.4868 37.8654C25.6919 37.3526 26.2738 37.1032 26.7866 37.3083C27.2994 37.5135 27.5488 38.0954 27.3437 38.6082L26.6874 40.249L28.5463 44.1526C28.6209 44.3093 28.6535 44.4828 28.6408 44.6559L28.2079 50.5424H28.8161L31.3023 44.5045L29.4342 36.9387Z" fill="#3C3C51"/>
<path fill-rule="evenodd" clip-rule="evenodd" d="M26.2783 7.13037C23.8192 7.13037 21.8257 9.12389 21.8257 11.583V12.3043C21.8257 12.668 21.6283 13.003 21.3101 13.1792C20.9919 13.3553 20.6032 13.3449 20.295 13.1518C20.2035 13.0946 20.0959 13.0613 19.9774 13.0613C19.6458 13.0613 19.377 13.3301 19.377 13.6617V13.9681C19.377 14.2997 19.6458 14.5686 19.9774 14.5686C20.0959 14.5686 20.2035 14.5353 20.295 14.478C20.6032 14.285 20.9919 14.2745 21.3101 14.4507C21.6283 14.6269 21.8257 14.9619 21.8257 15.3255V15.7844C21.8257 18.2436 23.8192 20.2371 26.2783 20.2371C28.7375 20.2371 30.731 18.2436 30.731 15.7844V11.583C30.731 9.12389 28.7375 7.13037 26.2783 7.13037ZM19.8462 11.0645C20.1103 7.74327 22.8892 5.13037 26.2783 5.13037C29.842 5.13037 32.731 8.01932 32.731 11.583V15.7844C32.731 19.3481 29.842 22.2371 26.2783 22.2371C22.9794 22.2371 20.2586 19.7614 19.8726 16.5665C18.485 16.5115 17.377 15.3692 17.377 13.9681V13.6617C17.377 12.2695 18.471 11.1329 19.8462 11.0645Z" fill="#3C3C51"/>
<path fill-rule="evenodd" clip-rule="evenodd" d="M23.4938 24.3716C24.0461 24.3716 24.4938 24.8193 24.4938 25.3716C24.4938 29.1142 28.2141 31.3759 31.4985 29.8831C33.0906 29.1595 34.2925 28.6888 35.1561 28.3936C35.9816 28.1116 36.577 27.9617 36.9153 27.9406C37.4665 27.9061 37.9412 28.3251 37.9757 28.8763C38.0101 29.4275 37.5912 29.9022 37.04 29.9367C37.0402 29.9367 37.0399 29.9367 37.0391 29.9368C37.0289 29.9382 36.9328 29.9507 36.7158 30.0064C36.4991 30.0621 36.1976 30.1513 35.8028 30.2862C35.0136 30.5559 33.8731 31.0007 32.3261 31.7038C27.7627 33.778 22.4938 30.6181 22.4938 25.3716C22.4938 24.8193 22.9415 24.3716 23.4938 24.3716Z" fill="#3C3C51"/>
<path fill-rule="evenodd" clip-rule="evenodd" d="M36.3533 33.1221C36.6828 33.5653 36.5907 34.1918 36.1475 34.5213C35.578 34.9447 34.6234 35.4411 33.5324 35.589C32.4054 35.7418 31.0877 35.5213 29.9923 34.4259C29.6018 34.0354 29.6018 33.4023 29.9923 33.0117C30.3828 32.6212 31.016 32.6212 31.4065 33.0117C31.9663 33.5714 32.6106 33.6957 33.2636 33.6071C33.9526 33.5137 34.5961 33.1825 34.9541 32.9163C35.3973 32.5868 36.0237 32.6789 36.3533 33.1221Z" fill="#3C3C51"/>
</svg>
