<svg width="60" height="61" viewBox="0 0 60 61" fill="none" xmlns="http://www.w3.org/2000/svg">
<path fill-rule="evenodd" clip-rule="evenodd" d="M39.1825 15.2779C37.65 13.9438 35.1307 12.5229 30.232 12.5264C25.3325 12.5299 22.8194 13.9509 21.2931 15.2826C20.6825 15.8154 20.2293 16.3302 19.8013 16.8163L19.8012 16.8164L19.8012 16.8164C19.6676 16.9682 19.5365 17.1171 19.4038 17.2629C19.1416 17.5511 18.8472 17.8546 18.5207 18.0854C18.1803 18.3261 17.7512 18.5264 17.2313 18.5264C16.3917 18.5264 15.7012 18.1064 15.166 17.6921C14.8144 17.4199 14.4303 17.0653 14.0645 16.7277C13.8929 16.5692 13.7252 16.4145 13.5669 16.2738C12.4926 15.3189 11.3537 14.5264 9.73128 14.5264C8.11485 14.5264 7.05909 15.312 6.47452 16.335C5.86355 17.4042 5.78196 18.7105 6.15975 19.655C6.69907 21.0033 7.10628 22.7544 7.10627 24.4014C7.10627 25.0251 7.04694 25.6767 6.8928 26.3011C7.10631 26.181 7.23774 26.0611 7.32229 25.9399C7.40956 25.8148 7.48915 25.6284 7.5054 25.3115C7.53032 24.8256 7.90138 24.4281 8.38445 24.3699C8.62813 24.3405 8.89353 24.3103 9.17686 24.28C9.16011 23.8671 9.21748 23.4509 9.36576 23.0536C7.71231 21.5963 6.84413 20.0709 6.83774 18.6293C6.83037 16.9658 7.96015 15.7961 9.43564 15.3395C9.56787 15.2986 9.70715 15.2855 9.84467 15.3012C10.7706 15.4069 11.7987 15.9531 12.7657 16.6042C13.7683 17.2794 14.8458 18.1663 15.8966 19.116C17.9169 20.9421 19.9076 23.0639 21.1864 24.5311C22.7157 25.2058 23.9572 26.4166 24.7687 27.6194C25.1979 28.2557 25.5295 28.9226 25.72 29.5531C25.9009 30.1517 25.9969 30.8582 25.7689 31.4851C25.5477 32.0932 25.0497 32.5319 24.7068 32.8262C24.6164 32.9038 24.5282 32.9779 24.4419 33.0504L24.4406 33.0516L24.4405 33.0517C24.1406 33.3037 23.8635 33.5367 23.5908 33.8321C22.9678 34.507 22.3879 35.4956 22.5948 37.4348C22.8199 39.5457 23.5868 41.8634 24.3381 44.012C24.4009 44.1917 24.4638 44.3707 24.5262 44.5483C24.8296 45.4119 25.1219 46.244 25.3483 46.9853C25.6148 47.8582 25.8291 48.7235 25.8291 49.4391C25.8291 49.9914 25.3814 50.4391 24.8291 50.4391C24.2768 50.4391 23.8291 49.9914 23.8291 49.4391C23.8291 49.0486 23.6995 48.4341 23.4355 47.5694C23.2224 46.8717 22.9471 46.088 22.644 45.2249C22.5805 45.0441 22.5158 44.8598 22.4502 44.6721C21.7066 42.5456 20.8592 40.0203 20.6061 37.647C20.3346 35.102 21.1298 33.5495 22.1212 32.4755C22.4891 32.077 22.8912 31.7399 23.2005 31.4805C23.2743 31.4187 23.3428 31.3613 23.4043 31.3085C23.7864 30.9805 23.8712 30.8512 23.8893 30.8016C23.8893 30.8016 23.8896 30.8007 23.8902 30.7986C23.8908 30.7968 23.8915 30.7941 23.8923 30.7904C23.8941 30.7827 23.8963 30.7712 23.8981 30.7555C23.9019 30.7237 23.9041 30.6783 23.9008 30.6178C23.894 30.4949 23.866 30.3318 23.8055 30.1316C23.6839 29.7293 23.4513 29.2428 23.1107 28.7379C22.4234 27.7191 21.3884 26.7586 20.2146 26.292C19.6727 26.0766 18.679 25.942 17.3858 25.8918C17.341 26.3765 17.1856 26.8548 16.8923 27.2908C16.2897 28.1866 15.3022 28.6106 14.3078 28.6643C13.3141 28.718 12.2504 28.4136 11.3206 27.7882C10.688 27.3626 10.1696 26.8234 9.8006 26.2259C9.64781 26.2413 9.49953 26.2568 9.3563 26.2722C9.26607 26.5657 9.13521 26.8368 8.96253 27.0843C8.63708 27.5507 8.20658 27.871 7.76379 28.1037C7.09219 28.4567 6.23787 28.6735 5.48081 28.8657L5.48048 28.8658C5.31077 28.9089 5.14596 28.9507 4.98919 28.9925C4.52642 29.1161 4.04105 28.8941 3.83177 28.4633C3.62249 28.0325 3.74809 27.5138 4.13127 27.2264C4.74764 26.7641 5.10627 25.7994 5.10627 24.4014C5.10627 23.0483 4.76349 21.5495 4.3028 20.3978C3.6806 18.8423 3.84901 16.8985 4.73803 15.3427C5.65347 13.7407 7.3477 12.5264 9.73128 12.5264C12.1089 12.5264 13.7199 13.7339 14.8956 14.779C15.1269 14.9846 15.329 15.1716 15.5146 15.3434L15.5146 15.3434C15.834 15.639 16.1044 15.8893 16.3903 16.1107C16.8235 16.446 17.0703 16.5262 17.2308 16.5264L17.2309 16.5264C17.2316 16.5262 17.2361 16.5253 17.2451 16.522C17.2641 16.5149 17.3033 16.4968 17.3662 16.4523C17.5034 16.3553 17.6754 16.1906 17.9246 15.9169C18.0239 15.8077 18.1327 15.6839 18.2514 15.5489C18.6879 15.0524 19.2573 14.4046 19.9782 13.7756C21.8882 12.1091 24.875 10.5302 30.2306 10.5264C35.5868 10.5226 38.5798 12.1016 40.4957 13.7694C41.2194 14.3993 41.7913 15.0482 42.23 15.5459C42.3489 15.6808 42.4581 15.8046 42.5578 15.9139C42.8081 16.1884 42.9813 16.3539 43.1195 16.4515C43.2011 16.5092 43.243 16.5234 43.2564 16.5264C43.4169 16.5261 43.6637 16.4458 44.0966 16.1107C44.3826 15.8893 44.653 15.639 44.9724 15.3434L44.9725 15.3432C45.158 15.1715 45.3601 14.9845 45.5913 14.779C46.767 13.7339 48.3781 12.5264 50.7557 12.5264C53.1393 12.5264 54.8335 13.7407 55.7489 15.3427C56.638 16.8985 56.8064 18.8423 56.1842 20.3978C55.7235 21.5495 55.3807 23.0483 55.3807 24.4014C55.3807 25.7994 55.7393 26.7641 56.3557 27.2264C56.7389 27.5138 56.8645 28.0325 56.6552 28.4633C56.4459 28.8941 55.9605 29.1161 55.4978 28.9925C55.3413 28.9508 55.1767 28.909 55.0073 28.866L55.0065 28.8658L55.0062 28.8657C54.2491 28.6735 53.3948 28.4567 52.7232 28.1037C52.2804 27.871 51.8499 27.5507 51.5244 27.0843C51.3518 26.8368 51.2209 26.5657 51.1307 26.2722C50.8872 26.246 50.6291 26.2197 50.3591 26.1936C49.9889 26.804 49.4633 27.3549 48.8192 27.7882C47.8895 28.4136 46.8258 28.718 45.832 28.6643C44.8377 28.6106 43.8502 28.1866 43.2476 27.2908C42.9575 26.8595 42.8023 26.3868 42.7556 25.9075C41.6274 25.9674 40.7628 26.0971 40.2724 26.292C39.0986 26.7586 38.0636 27.7191 37.3763 28.7379C37.0357 29.2428 36.803 29.7293 36.6815 30.1316C36.621 30.3318 36.593 30.4949 36.5862 30.6178C36.5829 30.6783 36.585 30.7237 36.5888 30.7555C36.5907 30.7712 36.5929 30.7827 36.5946 30.7904C36.5964 30.7981 36.5977 30.8017 36.5977 30.8016C36.6157 30.8512 36.7006 30.9805 37.0827 31.3085C37.1442 31.3613 37.2127 31.4187 37.2864 31.4805C37.5958 31.7399 37.9978 32.077 38.3658 32.4755C39.3571 33.5495 40.1524 35.102 39.8809 37.647C39.6278 40.0203 38.7803 42.5456 38.0368 44.6721C37.9716 44.8586 37.9073 45.0418 37.8441 45.2215L37.8438 45.2226L37.8429 45.225C37.5398 46.088 37.2646 46.8717 37.0515 47.5694C36.7875 48.4341 36.6579 49.0486 36.6579 49.4391C36.6579 49.9914 36.2102 50.4391 35.6579 50.4391C35.1056 50.4391 34.6579 49.9914 34.6579 49.4391C34.6579 48.7235 34.8721 47.8582 35.1387 46.9853C35.3651 46.244 35.6574 45.4119 35.9608 44.5483C36.0232 44.3707 36.086 44.1917 36.1489 44.012C36.9001 41.8634 37.667 39.5457 37.8922 37.4348C38.0991 35.4955 37.5191 34.507 36.8962 33.8321C36.6235 33.5367 36.3463 33.3037 36.0465 33.0517C35.9598 32.9788 35.8711 32.9042 35.7802 32.8262C35.4373 32.5319 34.9392 32.0932 34.7181 31.4851C34.4901 30.8582 34.5861 30.1517 34.767 29.5531C34.9575 28.9226 35.2891 28.2557 35.7183 27.6194C36.5297 26.4166 37.7712 25.2058 39.3006 24.5311C40.5794 23.0639 42.5701 20.9421 44.5903 19.116C45.6411 18.1663 46.7187 17.2794 47.7213 16.6042C48.6883 15.9531 49.7164 15.4069 50.6423 15.3012C50.7798 15.2855 50.9191 15.2986 51.0513 15.3395C52.557 15.8055 53.6978 17.0132 53.6477 18.7184C53.604 20.2086 52.649 21.7844 50.8501 23.286C50.9385 23.5999 50.974 23.9227 50.9643 24.2439C51.3792 24.2862 51.7621 24.3289 52.1025 24.3699C52.5856 24.4281 52.9567 24.8256 52.9816 25.3115C52.9978 25.6284 53.0774 25.8148 53.1647 25.9399C53.2492 26.0611 53.3807 26.181 53.5942 26.301C53.44 25.6767 53.3807 25.0251 53.3807 24.4014C53.3807 22.7544 53.7879 21.0033 54.3272 19.655C54.705 18.7105 54.6234 17.4042 54.0125 16.335C53.4279 15.312 52.3721 14.5264 50.7557 14.5264C49.1333 14.5264 47.9944 15.3189 46.9201 16.2738C46.7617 16.4145 46.5941 16.5692 46.4224 16.7277C46.0567 17.0653 45.6726 17.4199 45.321 17.6921C44.7858 18.1064 44.0952 18.5264 43.2557 18.5264C42.7354 18.5264 42.3059 18.3256 41.9654 18.085C41.6387 17.8541 41.3435 17.5504 41.0802 17.2618C40.9473 17.1161 40.816 16.9673 40.6821 16.8157C40.2519 16.3284 39.7959 15.8119 39.1825 15.2779ZM49.6816 21.6553C51.1761 20.3766 51.6292 19.3182 51.6486 18.6597C51.6651 18.099 51.3667 17.6062 50.6717 17.3252C50.2498 17.43 49.6327 17.7283 48.8384 18.2632C47.9453 18.8646 46.946 19.6827 45.9314 20.5998C44.7543 21.6638 43.5816 22.8379 42.5643 23.9146C42.7589 23.9036 42.956 23.895 43.1545 23.8883C43.5233 23.1387 44.1214 22.4575 44.8868 21.9426C45.8166 21.3171 46.8803 21.0128 47.874 21.0665C48.5128 21.1009 49.1487 21.2883 49.6816 21.6553ZM12.2659 21.0665C11.7057 21.0967 11.1476 21.2445 10.6594 21.528C9.24813 20.2771 8.84052 19.2526 8.83772 18.6204C8.83533 18.0811 9.13283 17.6012 9.81534 17.3252C10.2372 17.43 10.8543 17.7283 11.6486 18.2632C12.5417 18.8646 13.5409 19.6827 14.5555 20.5998C15.7327 21.6638 16.9053 22.8379 17.9227 23.9146C17.6137 23.8972 17.2982 23.8855 16.9805 23.8783C16.6113 23.1327 16.0151 22.4552 15.2531 21.9426C14.3233 21.3171 13.2596 21.0128 12.2659 21.0665ZM43.2613 16.527C43.2614 16.5271 43.2598 16.5271 43.2565 16.5264L43.2591 16.5265C43.2598 16.5266 43.2604 16.5267 43.2608 16.5268C43.2611 16.5268 43.2613 16.5269 43.2613 16.527ZM38.5263 17.4796C39.2145 17.796 39.8763 18.2144 40.2988 18.7833C40.5312 19.0964 40.5605 19.516 40.3738 19.8583C40.2024 20.1725 39.8777 20.369 39.5247 20.3791C39.5017 20.3867 39.4527 20.4044 39.3725 20.4422C39.1989 20.5241 38.9646 20.6592 38.6756 20.8497C38.1011 21.2283 37.3917 21.7717 36.6561 22.3895C35.1644 23.6422 33.697 25.0892 33.0854 25.9444C33.052 25.9911 32.9799 26.1301 32.9064 26.4197C32.8363 26.696 32.7794 27.0503 32.7386 27.477C32.657 28.3301 32.6472 29.3906 32.6866 30.5327C32.7524 32.4376 32.9523 34.4982 33.1481 36.0608H35.024C35.3351 36.0608 35.6284 36.2056 35.8177 36.4525C36.0069 36.6994 36.0704 37.0204 35.9896 37.3208C35.3527 39.6863 34.0976 45.3969 34.0976 49.4391C34.0976 49.9914 33.6499 50.4391 33.0976 50.4391C32.5453 50.4391 32.0976 49.9914 32.0976 49.4391C32.0976 45.7533 33.0559 40.8972 33.7388 38.0608H32.272C31.7736 38.0608 31.3512 37.6938 31.2818 37.2002C31.0491 35.5474 30.7696 32.9713 30.6878 30.6018C30.647 29.419 30.6544 28.2621 30.7476 27.2866C30.7943 26.7989 30.8642 26.3361 30.9679 25.9277C31.0682 25.5325 31.2168 25.1192 31.4586 24.781C32.223 23.7122 33.8515 22.1331 35.3698 20.858C36.1162 20.2312 36.867 19.6515 37.5155 19.2192C36.9952 18.9979 36.3531 18.7974 35.6228 18.6269C33.9941 18.2466 32.0304 18.0392 30.2319 18.0403C28.4374 18.0414 26.4795 18.2489 24.8558 18.6286C24.1286 18.7986 23.4893 18.9984 22.971 19.2189C23.6196 19.6513 24.3706 20.231 25.1171 20.858C26.6355 22.1331 28.264 23.7122 29.0284 24.781C29.2702 25.1192 29.4188 25.5325 29.5191 25.9277C29.6228 26.3361 29.6927 26.7989 29.7393 27.2866C29.8326 28.2621 29.84 29.419 29.7992 30.6018C29.7174 32.9713 29.4379 35.5474 29.2052 37.2002C29.1357 37.6938 28.7134 38.0608 28.215 38.0608H26.7481C27.4311 40.8972 28.3894 45.7533 28.3894 49.4391C28.3894 49.9914 27.9417 50.4391 27.3894 50.4391C26.8371 50.4391 26.3894 49.9914 26.3894 49.4391C26.3894 45.3969 25.1343 39.6863 24.4974 37.3208C24.4165 37.0204 24.4801 36.6994 24.6693 36.4525C24.8585 36.2056 25.1519 36.0608 25.463 36.0608H27.3389C27.5347 34.4982 27.7346 32.4376 27.8004 30.5327C27.8398 29.3906 27.83 28.3301 27.7484 27.477C27.7076 27.0503 27.6507 26.696 27.5806 26.4197C27.5071 26.1301 27.4349 25.9911 27.4016 25.9444C26.79 25.0892 25.3225 23.6422 23.8309 22.3895C23.0953 21.7717 22.3858 21.2283 21.8114 20.8497C21.5224 20.6592 21.288 20.5241 21.1145 20.4422C21.0343 20.4044 20.9853 20.3867 20.9623 20.3791C20.6092 20.369 20.2846 20.1725 20.1132 19.8583C19.9265 19.516 19.9558 19.0964 20.1882 18.7833C20.6103 18.2148 21.2708 17.7966 21.9577 17.4805C22.665 17.1549 23.5056 16.8903 24.4004 16.6811C26.191 16.2624 28.3028 16.0415 30.2306 16.0403C32.1638 16.0391 34.282 16.26 36.0775 16.6793C36.9748 16.8888 37.8175 17.1538 38.5263 17.4796ZM11.2737 24.6987C11.4439 25.1914 11.8337 25.7229 12.437 26.1288C13.0402 26.5346 13.6795 26.6953 14.2 26.6672C14.7199 26.6392 15.0578 26.4347 15.2328 26.1745C15.4079 25.9143 15.4699 25.5243 15.3 25.0321C15.1298 24.5394 14.74 24.0079 14.1367 23.602C13.5335 23.1962 12.8942 23.0355 12.3737 23.0636C11.8538 23.0916 11.5159 23.2961 11.3409 23.5563C11.1658 23.8165 11.1038 24.2065 11.2737 24.6987ZM47.7029 26.1288C48.3062 25.7229 48.696 25.1914 48.8662 24.6987C49.0361 24.2065 48.9741 23.8165 48.799 23.5563C48.624 23.2961 48.2861 23.0916 47.7662 23.0636C47.2457 23.0355 46.6064 23.1962 46.0032 23.602C45.3999 24.0079 45.0101 24.5394 44.8399 25.0321C44.6699 25.5243 44.732 25.9143 44.9071 26.1745C45.0821 26.4347 45.42 26.6392 45.9398 26.6672C46.4604 26.6953 47.0996 26.5346 47.7029 26.1288Z" fill="#3C3C51"/>
</svg>
