<svg width="60" height="61" viewBox="0 0 60 61" fill="none" xmlns="http://www.w3.org/2000/svg">
<path d="M32.26 56.6971H27.74C26.0784 56.6971 24.7266 55.3453 24.7266 53.6837C24.7266 52.2822 25.6883 51.1011 26.9866 50.7657V49.5155C26.9866 49.2297 26.779 48.9821 26.4928 48.9265C24.0868 48.4589 21.8338 47.5258 19.7964 46.153C19.5525 45.9884 19.2287 46.016 19.0264 46.218L18.1347 47.1097C18.7566 48.1923 18.6781 49.5871 17.8603 50.5636C17.3164 51.2127 16.5217 51.6063 15.6796 51.6434C14.8375 51.6796 14.0117 51.3599 13.4155 50.7638L10.2192 47.5675C9.65006 46.9984 9.33667 46.2418 9.33667 45.4368C9.33667 44.6318 9.65006 43.875 10.2192 43.3059C10.7884 42.7368 11.5451 42.4234 12.3501 42.4234C12.8974 42.4234 13.4225 42.5682 13.8814 42.8399L14.7649 41.9564C14.9671 41.7543 14.9944 41.4305 14.83 41.1865C13.4572 39.149 12.524 36.896 12.0565 34.4901C12.0008 34.2039 11.7531 33.9962 11.4674 33.9962H10.2184C10.082 34.5303 9.79973 35.0174 9.39161 35.4113C8.79777 35.9845 8.0167 36.2823 7.19013 36.2545C5.56149 36.1964 4.28572 34.8524 4.28572 33.1948V28.7228C4.28572 27.8988 4.61197 27.1295 5.2044 26.5566C5.79684 25.9838 6.57861 25.6836 7.40157 25.7112C8.73409 25.7556 9.8603 26.7104 10.2044 27.9694H11.4673C11.7531 27.9694 12.0008 27.7618 12.0564 27.4757C12.5239 25.0697 13.4571 22.8166 14.8299 20.7792C14.9943 20.5352 14.9669 20.2114 14.7648 20.0093L13.8813 19.1257C13.4224 19.3974 12.8973 19.5423 12.35 19.5423C11.545 19.5423 10.7883 19.2289 10.2191 18.6598C9.04417 17.4848 9.04417 15.5731 10.2191 14.398L13.4153 11.2019C14.5902 10.0269 16.5019 10.0271 17.6769 11.2019C18.2461 11.7712 18.5595 12.5278 18.5595 13.3328C18.5595 13.88 18.4146 14.4052 18.1429 14.8641L19.0264 15.7476C19.2287 15.9499 19.5524 15.9771 19.7963 15.8127C21.8338 14.4399 24.0868 13.5068 26.4927 13.0392C26.779 12.9835 26.9866 12.7358 26.9866 12.4502V11.2C25.6883 10.8646 24.7266 9.68348 24.7266 8.28195C24.7266 6.62036 26.0784 5.26855 27.74 5.26855H32.26C33.9216 5.26855 35.2734 6.62036 35.2734 8.28195C35.2734 9.68348 34.3117 10.8646 33.0134 11.2V12.4502C33.0134 12.7359 33.221 12.9836 33.5072 13.0392C35.9132 13.5068 38.1662 14.4399 40.2037 15.8127C40.4475 15.9771 40.7714 15.9498 40.9736 15.7476L41.8579 14.8634C41.177 13.708 41.3322 12.1928 42.3231 11.2019C43.4979 10.0271 45.4097 10.0269 46.5847 11.2019L49.7809 14.398C50.9558 15.573 50.9558 17.4847 49.7809 18.6598C49.2117 19.2289 48.455 19.5423 47.6501 19.5423C47.1028 19.5423 46.5777 19.3974 46.1187 19.1257L45.2352 20.0093C45.033 20.2114 45.0057 20.5352 45.1701 20.7792C46.5429 22.8166 47.4761 25.0697 47.9437 27.4756C47.9993 27.7618 48.247 27.9694 48.5327 27.9694H49.7935C50.1192 26.764 51.1612 25.8334 52.43 25.7214H52.4301C53.2738 25.6461 54.1139 25.9307 54.7355 26.4999C55.3575 27.0694 55.7143 27.8796 55.7143 28.7228V33.2429C55.7143 34.086 55.3575 34.8962 54.7355 35.4658C54.1139 36.035 53.2728 36.3187 52.4301 36.2443C51.1612 36.1323 50.1192 35.2017 49.7935 33.9962H48.5327C48.2469 33.9962 47.9993 34.2039 47.9437 34.49C47.4761 36.896 46.5429 39.149 45.1701 41.1865C45.0057 41.4305 45.0331 41.7543 45.2352 41.9564L46.1187 42.8399C46.5777 42.5682 47.1028 42.4234 47.6501 42.4234C48.455 42.4234 49.2117 42.7368 49.7809 43.3059C50.35 43.875 50.6634 44.6318 50.6634 45.4368C50.6634 46.2418 50.35 46.9984 49.7808 47.5675L46.5847 50.7638C45.9885 51.36 45.1637 51.6806 44.3206 51.6434C43.4784 51.6063 42.6837 51.2127 42.1399 50.5637C41.322 49.5871 41.2433 48.1924 41.8654 47.1097L40.9737 46.218C40.7715 46.0159 40.4477 45.9884 40.2039 46.153C38.1663 47.5258 35.9133 48.4589 33.5074 48.9265C33.2211 48.9821 33.0135 49.2298 33.0135 49.5155V50.7657C34.3118 51.1011 35.2735 52.2822 35.2735 53.6837C35.2734 55.3453 33.9216 56.6971 32.26 56.6971ZM19.4491 44.0379C19.9586 44.0379 20.4716 44.1854 20.919 44.487C22.7317 45.7083 24.736 46.5386 26.8761 46.9544C28.1041 47.193 28.9955 48.2701 28.9955 49.5155V51.4237C28.9955 52.1161 28.4323 52.6793 27.74 52.6793C27.1861 52.6793 26.7355 53.1299 26.7355 53.6837C26.7355 54.2376 27.1861 54.6882 27.74 54.6882H32.26C32.8139 54.6882 33.2645 54.2376 33.2645 53.6837C33.2645 53.1299 32.8139 52.6793 32.26 52.6793C31.5677 52.6793 31.0045 52.1161 31.0045 51.4237V49.5155C31.0045 48.2702 31.8959 47.193 33.1241 46.9544C35.2641 46.5385 37.2684 45.7083 39.0812 44.487C40.1205 43.7866 41.5139 43.9171 42.3942 44.7975L43.7758 46.1792C44.2476 46.651 44.2476 47.4188 43.7758 47.8906C43.393 48.2734 43.3509 48.8808 43.6799 49.2737C43.8654 49.495 44.1244 49.6239 44.409 49.6364C44.6956 49.6483 44.9626 49.5449 45.1643 49.3432L48.3604 46.147C48.5503 45.9573 48.6546 45.7052 48.6546 45.4369C48.6546 45.1685 48.5501 44.9163 48.3604 44.7266C47.9688 44.335 47.3314 44.3352 46.9399 44.7266L46.9077 44.7588C46.4361 45.2306 45.6682 45.2307 45.1963 44.7588L43.8147 43.3771C42.9344 42.4968 42.8038 41.1034 43.5041 40.0641C44.7255 38.2513 45.5557 36.247 45.9716 34.1069C46.2102 32.8788 47.2872 31.9873 48.5327 31.9873H50.4862C51.1534 31.9873 51.6964 32.5302 51.6964 33.1976C51.6964 33.7389 52.0962 34.1981 52.6067 34.2432C52.8942 34.2683 53.1687 34.1765 53.3787 33.9841C53.5893 33.7913 53.7053 33.5281 53.7053 33.2429V28.7228C53.7053 28.4376 53.5893 28.1744 53.3787 27.9816C53.1685 27.7889 52.8929 27.6968 52.6067 27.7224C52.0962 27.7675 51.6964 28.2268 51.6964 28.7681C51.6964 29.4354 51.1535 29.9784 50.4862 29.9784H48.5327C47.2873 29.9784 46.2102 29.0869 45.9716 27.8588C45.5556 25.7187 44.7255 23.7144 43.5041 21.9017C42.8037 20.8623 42.9344 19.4689 43.8147 18.5887L45.1642 17.2392C45.6539 16.7496 46.4503 16.7497 46.94 17.2392C47.3315 17.6307 47.9689 17.6309 48.3605 17.2392C48.7521 16.8475 48.7521 16.2103 48.3605 15.8185L45.1643 12.6224C44.773 12.231 44.1356 12.2306 43.7438 12.6224C43.3521 13.014 43.3521 13.6513 43.7438 14.043C44.2334 14.5325 44.2334 15.3292 43.7438 15.8187L42.3943 17.1682C41.5139 18.0486 40.1206 18.1791 39.0812 17.4788C37.2685 16.2575 35.2642 15.4272 33.1241 15.0114C31.8959 14.7727 31.0045 13.6956 31.0045 12.4502V10.542C31.0045 9.84961 31.5677 9.28641 32.26 9.28641C32.8139 9.28641 33.2645 8.83581 33.2645 8.28195C33.2645 7.72809 32.8139 7.27748 32.26 7.27748H27.74C27.1861 7.27748 26.7355 7.72809 26.7355 8.28195C26.7355 8.83581 27.1861 9.28641 27.74 9.28641C28.4323 9.28641 28.9955 9.84961 28.9955 10.542V12.4502C28.9955 13.6955 28.1041 14.7727 26.8759 15.0113C24.7359 15.4272 22.7316 16.2574 20.9188 17.4787C19.8795 18.179 18.4861 18.0486 17.6058 17.1681L16.2563 15.8186C16.0193 15.5815 15.8886 15.2662 15.8886 14.9308C15.8886 14.5952 16.0194 14.2798 16.2567 14.0427C16.6481 13.6513 16.6481 13.014 16.2563 12.6223C15.8647 12.2305 15.2273 12.2307 14.8358 12.6223L11.6396 15.8184C11.248 16.2101 11.248 16.8473 11.6396 17.2391C11.8293 17.4288 12.0816 17.5333 12.3499 17.5333C12.6182 17.5333 12.8704 17.4289 13.06 17.2392C13.5495 16.7495 14.3461 16.7496 14.8358 17.2391L16.1853 18.5886C17.0656 19.4689 17.1962 20.8623 16.4959 21.9016C15.2746 23.7143 14.4443 25.7186 14.0284 27.8588C13.7899 29.0869 12.7128 29.9784 11.4673 29.9784H9.50652C8.84318 29.9784 8.30358 29.4388 8.30358 28.7754C8.30358 28.2107 7.86885 27.7367 7.33457 27.7189C7.05965 27.7088 6.79829 27.8095 6.60101 28.0007C6.40343 28.1916 6.29465 28.4482 6.29465 28.7228V33.1948C6.29465 33.7559 6.72838 34.2278 7.26155 34.2467C7.53828 34.2569 7.79863 34.1568 7.99641 33.9659C8.19449 33.7747 8.30358 33.5179 8.30358 33.2429C8.30358 32.5505 8.86678 31.9873 9.55916 31.9873H11.4673C12.7127 31.9873 13.7899 32.8788 14.0284 34.1069C14.4444 36.2469 15.2746 38.2512 16.4959 40.064C17.1963 41.1034 17.0656 42.4968 16.1853 43.377L14.8037 44.7587C14.3319 45.2306 13.5641 45.2305 13.0923 44.7587L13.0601 44.7265C12.8704 44.5367 12.6183 44.4323 12.35 44.4323C12.0817 44.4323 11.8293 44.5368 11.6397 44.7265C11.45 44.9163 11.3455 45.1684 11.3455 45.4368C11.3455 45.7051 11.4499 45.9573 11.6396 46.1469L14.8359 49.3431C15.0376 49.5447 15.3064 49.649 15.5911 49.6363C15.8757 49.6238 16.1347 49.4949 16.3202 49.2735C16.6492 48.8808 16.6071 48.2733 16.2244 47.8905C15.7525 47.4187 15.7525 46.6509 16.2243 46.1791L17.6059 44.7974C18.1072 44.2961 18.7751 44.0379 19.4491 44.0379Z" fill="#3C3C51"/>
<path d="M26.1202 26.752C23.7939 26.752 21.9014 24.8594 21.9014 22.5332C21.9014 20.207 23.7939 18.3145 26.1202 18.3145C28.4464 18.3145 30.3389 20.207 30.3389 22.5332C30.3389 24.8594 28.4464 26.752 26.1202 26.752ZM26.1202 20.3234C24.9016 20.3234 23.9103 21.3147 23.9103 22.5332C23.9103 23.7517 24.9016 24.743 26.1202 24.743C27.3387 24.743 28.33 23.7517 28.33 22.5332C28.33 21.3147 27.3387 20.3234 26.1202 20.3234Z" fill="#3C3C51"/>
<path d="M23.2701 41.0081C21.2577 41.0081 19.6206 39.3709 19.6206 37.3586C19.6206 35.3463 21.2577 33.709 23.2701 33.709C25.2824 33.709 26.9196 35.3463 26.9196 37.3586C26.9196 39.3709 25.2824 41.0081 23.2701 41.0081ZM23.2701 35.7179C22.3655 35.7179 21.6295 36.4539 21.6295 37.3586C21.6295 38.2632 22.3655 38.9992 23.2701 38.9992C24.1747 38.9992 24.9107 38.2632 24.9107 37.3586C24.9107 36.4539 24.1747 35.7179 23.2701 35.7179Z" fill="#3C3C51"/>
<path d="M37.0145 40.0085C33.8665 40.0085 31.2177 37.6536 30.8532 34.5307C30.7888 33.9797 31.1835 33.4809 31.7344 33.4165C32.2856 33.3527 32.7842 33.7467 32.8486 34.2979C33.0949 36.4082 34.8858 37.9996 37.0145 37.9996C39.3273 37.9996 41.209 36.1179 41.209 33.8051C41.209 31.6629 39.6063 29.8706 37.481 29.636C36.9296 29.5753 36.5318 29.0789 36.5927 28.5275C36.6536 27.9761 37.1505 27.5795 37.7012 27.6393C40.8463 27.9863 43.218 30.6371 43.218 33.8051C43.218 37.2257 40.4351 40.0085 37.0145 40.0085Z" fill="#3C3C51"/>
<path d="M35.7255 23.5377C35.4613 23.5377 35.2021 23.4303 35.0153 23.2434C34.8285 23.0566 34.721 22.7974 34.721 22.5333C34.721 22.2681 34.8284 22.0099 35.0153 21.8231C35.2021 21.6364 35.4613 21.5288 35.7255 21.5288C35.9896 21.5288 36.2488 21.6363 36.4355 21.8231C36.6223 22.0099 36.7299 22.2691 36.7299 22.5333C36.7299 22.7974 36.6224 23.0566 36.4355 23.2434C36.2488 23.4303 35.9896 23.5377 35.7255 23.5377Z" fill="#3C3C51"/>
<path d="M30 43.9406C29.7358 43.9406 29.4767 43.8331 29.2899 43.6462C29.103 43.4594 28.9955 43.2003 28.9955 42.9361C28.9955 42.6719 29.1029 42.4128 29.2899 42.2259C29.4767 42.0391 29.7348 41.9316 30 41.9316C30.2642 41.9316 30.5233 42.039 30.7101 42.2259C30.8969 42.4128 31.0045 42.6719 31.0045 42.9361C31.0045 43.2003 30.897 43.4594 30.7101 43.6462C30.5233 43.8331 30.2642 43.9406 30 43.9406Z" fill="#3C3C51"/>
<path d="M18.7169 32.0001C18.4517 32.0001 18.1935 31.8927 18.0067 31.7058C17.8189 31.519 17.7124 31.2598 17.7124 30.9957C17.7124 30.7305 17.8189 30.4723 18.0067 30.2855C18.1926 30.0977 18.4518 29.9912 18.7169 29.9912C18.981 29.9912 19.2402 30.0977 19.427 30.2855C19.6138 30.4723 19.7213 30.7315 19.7213 30.9957C19.7213 31.2598 19.6139 31.518 19.427 31.7058C19.2402 31.8927 18.981 32.0001 18.7169 32.0001Z" fill="#3C3C51"/>
<path d="M33.3268 31.1456C33.0626 31.1456 32.8035 31.0382 32.6166 30.8512C32.4298 30.6645 32.3223 30.4054 32.3223 30.1412C32.3223 29.8759 32.4297 29.6179 32.6166 29.43C32.8035 29.2432 33.0626 29.1367 33.3268 29.1367C33.591 29.1367 33.8501 29.2432 34.0368 29.43C34.2237 29.6179 34.3313 29.876 34.3313 30.1412C34.3313 30.4054 34.2238 30.6634 34.0368 30.8512C33.8501 31.0382 33.591 31.1456 33.3268 31.1456Z" fill="#3C3C51"/>
</svg>
