<svg width="60" height="61" viewBox="0 0 60 61" fill="none" xmlns="http://www.w3.org/2000/svg">
<path d="M32.9464 51.4741H36.9643V55.6929H32.9464V51.4741Z" fill="#FAF7F5"/>
<path d="M46.5995 8.34252C45.822 6.55859 44.026 5.26855 41.9866 5.26855H34.3487C33.7952 5.26855 33.3452 5.71956 33.3452 6.27302C33.3452 6.82648 33.7952 7.27748 34.3487 7.27748H41.9866C43.645 7.2805 44.997 8.63251 45 10.2909V15.8948C45 15.8948 43.091 16.8147 43.0905 16.8149C42.1789 17.2541 41.0549 17.2615 40.1252 16.8149C38.7306 16.1428 37.3648 15.3132 35.7699 15.3132C34.2033 15.3132 32.8005 16.1439 31.4155 16.8149C30.5034 17.2546 29.3805 17.2618 28.4503 16.8149C27.0547 16.1422 25.693 15.3132 24.0961 15.3132C22.5328 15.3132 21.1249 16.1475 19.7408 16.8149C18.8372 17.2506 17.6957 17.2568 16.7756 16.8149L14.8661 15.8948V10.2909C14.8691 8.63251 16.2211 7.2805 17.8795 7.27748H25.3095C25.8629 7.27748 26.313 6.82648 26.313 6.27302C26.313 5.71956 25.8629 5.26855 25.3095 5.26855C25.3095 5.26855 17.882 5.26855 17.8795 5.26855C15.158 5.26855 12.8571 7.5735 12.8571 10.2909V32.3891C12.8571 33.9615 13.6082 35.4635 14.8661 36.4069L20.8929 40.927V49.465C20.8929 50.0197 21.3427 50.4694 21.8973 50.4694H25.9152C26.4698 50.4694 26.9196 50.0197 26.9196 49.465V45.4471H30.9375V51.4739C30.9375 52.0287 31.3873 52.4784 31.942 52.4784V55.6927C31.942 56.2474 32.3918 56.6971 32.9464 56.6971H36.9643C37.519 56.6971 37.9688 56.2474 37.9688 55.6927V52.4784C38.5234 52.4784 38.9732 52.0287 38.9732 51.4739V49.465H40.9821V50.9717C40.9821 51.5264 41.4319 51.9761 41.9866 51.9761C42.5413 51.9761 42.9911 51.5264 42.9911 50.9717V45.9494C42.9911 45.3946 42.5413 44.9449 41.9866 44.9449C41.4319 44.9449 40.9821 45.3946 40.9821 45.9494V47.4561H38.9732V40.927L45 36.4069C46.2579 35.4635 47.0089 33.9615 47.0089 32.3891C47.0089 32.3891 47.0089 10.2952 47.0089 10.2909C47.0089 9.60543 46.8625 8.9457 46.5995 8.34252V8.34252ZM36.9643 43.4382H22.9018V41.4293H36.9643V43.4382ZM24.9107 48.4605H22.9018V45.4471H24.9107V48.4605ZM36.9643 45.4471V50.4694H32.9464V45.4471H36.9643ZM35.9598 54.6882H33.9509V52.4784H35.9598V54.6882ZM43.7946 34.7998L37.634 39.4203H22.2321L16.0714 34.7998C15.3167 34.2338 14.8661 33.3326 14.8661 32.3891V18.1249C15.9673 18.6556 17.0056 19.1623 18.2581 19.1623C19.8301 19.1623 21.222 18.3311 22.6125 17.6606C23.5427 17.2138 24.6473 17.2128 25.5777 17.6606C26.9723 18.3327 28.3379 19.1623 29.933 19.1623C31.4892 19.1623 32.9096 18.3251 34.2883 17.6606C35.192 17.2251 36.332 17.2176 37.2526 17.6606C38.6479 18.3331 40.0116 19.1623 41.6078 19.1623C42.8297 19.1623 43.9107 18.6498 45 18.1249V32.3891C45 33.3326 44.5494 34.2338 43.7946 34.7998V34.7998Z" fill="#3C3C51"/>
<path d="M29.8286 7.27748C30.3833 7.27748 30.833 6.82777 30.833 6.27302C30.833 5.71827 30.3833 5.26855 29.8286 5.26855C29.2738 5.26855 28.8241 5.71827 28.8241 6.27302C28.8241 6.82777 29.2738 7.27748 29.8286 7.27748Z" fill="#3C3C51"/>
</svg>
