<svg width="60" height="61" viewBox="0 0 60 61" fill="none" xmlns="http://www.w3.org/2000/svg">
<path fill-rule="evenodd" clip-rule="evenodd" d="M21.443 13.603C17.8851 12.8123 13.9779 13.9174 11.6497 17.5049C8.95816 21.6523 9.53026 27.7567 13.6068 33.9322C13.9111 34.3931 13.7841 35.0134 13.3231 35.3176C12.8622 35.6219 12.2419 35.4949 11.9377 35.034C7.62955 28.5077 6.67496 21.4966 9.97204 16.4161C12.821 12.0262 17.6293 10.7067 21.8768 11.6506C25.1183 12.3709 28.1125 14.4276 29.7166 17.5074C31.2219 14.4399 34.2224 12.4402 37.4956 11.7535C41.7869 10.8532 46.7321 12.1595 49.7545 16.3781C54.3777 22.8312 51.4787 31.2605 44.7325 38.519C44.3565 38.9235 43.7238 38.9467 43.3192 38.5707C42.9147 38.1947 42.8915 37.562 43.2675 37.1574C49.8556 30.069 51.8659 22.7594 48.1287 17.5429C45.6377 14.066 41.5459 12.9473 37.9062 13.7109C34.2586 14.4761 31.2501 17.0816 30.7703 20.8954C30.7086 21.386 30.2976 21.7578 29.8034 21.7703C29.3091 21.7827 28.8799 21.4321 28.7935 20.9452C28.1075 17.0782 25.02 14.3979 21.443 13.603ZM17.7575 40.3857C18.1274 39.9756 18.7597 39.943 19.1698 40.313C22.0459 42.9074 25.5821 45.3219 29.7537 47.3608C32.7283 45.7462 35.4575 43.9574 37.8843 42.0612C38.3195 41.7211 38.9479 41.7983 39.288 42.2335C39.628 42.6686 39.5509 43.2971 39.1157 43.6371C36.4724 45.7026 33.4934 47.6373 30.2482 49.3657C29.9682 49.5148 29.634 49.5223 29.3477 49.3857C24.8136 47.2232 20.9616 44.6228 17.8302 41.798C17.4201 41.4281 17.3875 40.7958 17.7575 40.3857Z" fill="#3C3C51"/>
<path fill-rule="evenodd" clip-rule="evenodd" d="M22.9886 25.4832C23.394 25.4927 23.7535 25.7461 23.8987 26.1247L28.4182 37.9027L32.0325 30.0043C32.1941 29.6514 32.5452 29.4238 32.9333 29.4204C33.3215 29.4171 33.6764 29.6387 33.8439 29.9889L35.8743 34.2329H41C41.5523 34.2329 42 34.6806 42 35.2329C42 35.7852 41.5523 36.2329 41 36.2329H35.2442C34.8591 36.2329 34.5083 36.0118 34.3421 35.6645L32.962 32.7797L29.2465 40.899C29.079 41.2651 28.7082 41.4951 28.3058 41.4824C27.9034 41.4698 27.5478 41.2171 27.4036 40.8412L22.9034 29.1135L20.0437 35.6345C19.8843 35.9981 19.5249 36.2329 19.1279 36.2329H8C7.44772 36.2329 7 35.7852 7 35.2329C7 34.6806 7.44772 34.2329 8 34.2329H18.4745L22.0493 26.0813C22.2122 25.7099 22.5832 25.4737 22.9886 25.4832Z" fill="#3C3C51"/>
<path fill-rule="evenodd" clip-rule="evenodd" d="M25.6286 25.5542C26.1414 25.3491 26.7234 25.5985 26.9285 26.1113L28.9285 31.1113C29.1336 31.6241 28.8842 32.2061 28.3714 32.4112C27.8586 32.6163 27.2766 32.3669 27.0715 31.8541L25.0715 26.8541C24.8664 26.3413 25.1158 25.7593 25.6286 25.5542Z" fill="#3C3C51"/>
<path fill-rule="evenodd" clip-rule="evenodd" d="M43.0656 18.5651C41.8513 17.7455 40.3822 17.3801 39.2237 17.646C38.6854 17.7696 38.1489 17.4333 38.0254 16.8951C37.9018 16.3568 38.238 15.8202 38.7763 15.6967C40.6178 15.274 42.6488 15.8708 44.1844 16.9073C45.7068 17.9349 47 19.5775 47 21.4826C47 22.0349 46.5523 22.4826 46 22.4826C45.4477 22.4826 45 22.0349 45 21.4826C45 20.5009 44.2932 19.3936 43.0656 18.5651Z" fill="#3C3C51"/>
</svg>
