<svg width="60" height="61" viewBox="0 0 60 61" fill="none" xmlns="http://www.w3.org/2000/svg">
<path d="M54.2177 43.8995C54.0398 43.7216 53.7927 43.6191 53.5411 43.6191C53.2895 43.6191 53.0424 43.7216 52.8644 43.8995C52.6865 44.0778 52.584 44.3246 52.584 44.5762C52.584 44.8281 52.6865 45.0749 52.8644 45.2528C53.0424 45.4308 53.2895 45.5332 53.5411 45.5332C53.7927 45.5332 54.0398 45.4308 54.2177 45.2528C54.3957 45.0749 54.4981 44.8281 54.4981 44.5762C54.4981 44.3246 54.3957 44.0778 54.2177 43.8995Z" fill="#3C3C51"/>
<path d="M40.9906 30.6726L40.9936 28.4423C40.9992 24.6938 39.5423 21.1699 36.8918 18.5194L34.5878 16.2154C34.214 15.8416 33.608 15.8416 33.2341 16.2154C32.8607 16.5889 32.8607 17.1949 33.2341 17.5687L35.5381 19.8727C37.8264 22.161 39.0844 25.2033 39.0795 28.4396L39.0758 31.067C39.0754 31.3212 39.1763 31.5653 39.3561 31.7451L50.1579 42.5469C50.3448 42.7338 50.5897 42.8273 50.8345 42.8273C51.0794 42.8273 51.3246 42.7338 51.5112 42.5469C51.885 42.173 51.885 41.567 51.5112 41.1936L40.9906 30.6726Z" fill="#3C3C51"/>
<path d="M30.4393 40.6617C30.2598 40.4823 30.0164 40.3814 29.7626 40.3814C29.7622 40.3814 29.7615 40.3814 29.7611 40.3814L25.696 40.3873C25.69 40.3873 25.6844 40.3873 25.6788 40.3873C23.272 40.3873 20.9437 39.6789 18.9448 38.3383L12.9592 34.3248C12.5626 34.0582 12.2953 33.653 12.2078 33.1831C12.12 32.7131 12.2224 32.2387 12.4968 31.8473C13.028 31.0888 14.0647 30.8705 14.8568 31.3505L17.4438 32.9191C18.0367 33.2784 18.7773 33.1434 19.205 32.598C19.633 32.0526 19.5874 31.3011 19.0973 30.811L7.91351 19.6269C7.59164 19.305 7.41406 18.8766 7.41406 18.4209C7.41406 17.9651 7.59164 17.5367 7.91389 17.2145C8.23576 16.8926 8.66418 16.715 9.1199 16.715C9.51579 16.715 9.89113 16.8492 10.1939 17.096L19.0353 25.9238C19.4087 26.2977 20.0147 26.2977 20.3886 25.9238C20.7624 25.55 20.7624 24.944 20.3886 24.5702L9.30308 13.4981C8.63802 12.8331 8.63802 11.7512 9.30308 11.0861C9.96814 10.4207 11.0504 10.421 11.7155 11.0861L22.7946 22.1649C23.1681 22.5387 23.7741 22.5387 24.1479 22.1649C24.5217 21.791 24.5217 21.185 24.1479 20.8112L15.3133 11.977C15.0669 11.6738 14.9324 11.2988 14.9324 10.9025C14.9324 10.4468 15.1099 10.0188 15.4322 9.69654C16.0973 9.03148 17.1791 9.03148 17.8442 9.69654L24.3057 16.1711C24.3359 16.2014 26.5536 18.4055 26.5536 18.4055C26.9274 18.7794 27.5334 18.7794 27.9072 18.4055C28.2807 18.0321 28.2807 17.4261 27.9072 17.0522L21.0402 10.1852C20.7934 9.88234 20.6592 9.507 20.6592 9.11073C20.6592 8.6554 20.8364 8.22697 21.1587 7.90472C21.4809 7.58247 21.9093 7.40527 22.3651 7.40527C22.8204 7.40527 23.2488 7.58247 23.5711 7.90472L27.8209 12.1545C28.1947 12.5284 28.8007 12.5284 29.1742 12.1545C29.548 11.7811 29.548 11.1751 29.1742 10.8012L24.9247 6.55142C24.2402 5.86767 23.3314 5.49121 22.3647 5.49121C21.3976 5.49121 20.4884 5.86767 19.805 6.55142C19.3732 6.98283 19.0644 7.50434 18.8951 8.07333C17.4752 6.93909 15.3929 7.02844 14.0785 8.34324C13.6452 8.77615 13.3454 9.29317 13.1783 9.84196L13.0688 9.73243C11.6575 8.32118 9.36102 8.32118 7.94978 9.73243C7.26602 10.4162 6.88956 11.325 6.88956 12.2921C6.88956 13.2589 7.26602 14.1677 7.94978 14.8514L8.05707 14.9587C7.4978 15.1299 6.98527 15.4357 6.56021 15.8612C5.87646 16.5449 5.5 17.4541 5.5 18.4209C5.5 19.3876 5.87646 20.2968 6.56021 20.9805L14.8838 29.3037C13.4295 28.9209 11.8302 29.4622 10.9289 30.7494C10.3573 31.5658 10.1431 32.5546 10.3263 33.5345C10.5091 34.5143 11.0657 35.3592 11.8934 35.9143L17.879 39.9279C20.1998 41.4846 22.9049 42.301 25.6986 42.301L29.3667 42.2958L41.2818 54.2108C41.4687 54.3978 41.7135 54.4912 41.9584 54.4912C42.2033 54.4912 42.4481 54.3978 42.6351 54.2108C43.0089 53.837 43.0089 53.2314 42.6351 52.8575L30.4393 40.6617Z" fill="#3C3C51"/>
<path d="M31.5746 27.0552C33.1575 27.0552 34.4457 25.7669 34.4457 24.1841C34.4457 22.6009 33.1575 21.313 31.5746 21.313C29.9914 21.313 28.7035 22.6009 28.7035 24.1841C28.7035 25.7669 29.9914 27.0552 31.5746 27.0552ZM31.5746 23.2271C32.1021 23.2271 32.5316 23.6562 32.5316 24.1841C32.5316 24.7116 32.1021 25.1411 31.5746 25.1411C31.0468 25.1411 30.6176 24.7116 30.6176 24.1841C30.6176 23.6562 31.0468 23.2271 31.5746 23.2271Z" fill="#3C3C51"/>
<path d="M26.1217 37.5171C27.705 37.5171 28.9928 36.2288 28.9928 34.646C28.9928 33.0628 27.705 31.7749 26.1217 31.7749C24.5385 31.7749 23.2506 33.0628 23.2506 34.646C23.2506 36.2288 24.5385 37.5171 26.1217 37.5171ZM26.1217 33.689C26.6496 33.689 27.0788 34.1181 27.0788 34.646C27.0788 35.1735 26.6496 35.603 26.1217 35.603C25.5942 35.603 25.1647 35.1735 25.1647 34.646C25.1647 34.1181 25.5942 33.689 26.1217 33.689Z" fill="#3C3C51"/>
<path d="M40.9853 37.2666C39.402 37.2666 38.1142 38.5549 38.1142 40.1377C38.1142 41.7209 39.402 43.0088 40.9853 43.0088C42.5685 43.0088 43.8564 41.7209 43.8564 40.1377C43.8564 38.5549 42.5685 37.2666 40.9853 37.2666ZM40.9853 41.0947C40.4578 41.0947 40.0282 40.6656 40.0282 40.1377C40.0282 39.6102 40.4578 39.1807 40.9853 39.1807C41.5131 39.1807 41.9423 39.6102 41.9423 40.1377C41.9423 40.6656 41.5131 41.0947 40.9853 41.0947Z" fill="#3C3C51"/>
<path d="M48.919 48.7461C47.3357 48.7461 46.0479 50.0343 46.0479 51.6172C46.0479 53.2004 47.3357 54.4883 48.919 54.4883C50.5022 54.4883 51.7901 53.2004 51.7901 51.6172C51.7901 50.0343 50.5022 48.7461 48.919 48.7461ZM48.919 52.5742C48.3915 52.5742 47.9619 52.145 47.9619 51.6172C47.9619 51.0897 48.3915 50.6602 48.919 50.6602C49.4468 50.6602 49.876 51.0897 49.876 51.6172C49.876 52.145 49.4468 52.5742 48.919 52.5742Z" fill="#3C3C51"/>
<path d="M25.2847 27.5194C25.4626 27.3404 25.5651 27.0944 25.5651 26.8428C25.5651 26.5901 25.4626 26.3441 25.2847 26.165C25.1067 25.9871 24.8596 25.8857 24.608 25.8857C24.3553 25.8857 24.1093 25.9871 23.9314 26.165C23.7523 26.3429 23.651 26.5901 23.651 26.8428C23.651 27.0944 23.7523 27.3411 23.9314 27.5194C24.1093 27.6974 24.3553 27.7987 24.608 27.7987C24.8596 27.7987 25.1067 27.6974 25.2847 27.5194Z" fill="#3C3C51"/>
<path d="M35.8121 32.4868C35.9901 32.3089 36.0925 32.0621 36.0925 31.8105C36.0925 31.5578 35.9901 31.3118 35.8121 31.1339C35.6342 30.9556 35.3871 30.8535 35.1355 30.8535C34.8828 30.8535 34.6368 30.9556 34.4588 31.1339C34.2798 31.3118 34.1785 31.5578 34.1785 31.8105C34.1785 32.0621 34.2798 32.3089 34.4588 32.4868C34.6368 32.6651 34.8828 32.7676 35.1355 32.7676C35.3871 32.7676 35.6342 32.6651 35.8121 32.4868Z" fill="#3C3C51"/>
<path d="M33.1507 38.1451C32.9724 38.3231 32.8699 38.5702 32.8699 38.8218C32.8699 39.0745 32.9724 39.3205 33.1507 39.4984C33.3286 39.6764 33.5754 39.7788 33.827 39.7788C34.0789 39.7788 34.3257 39.6764 34.5036 39.4984C34.6819 39.3205 34.784 39.0734 34.784 38.8218C34.784 38.5702 34.6819 38.3231 34.5036 38.1451C34.3257 37.9672 34.0789 37.8647 33.827 37.8647C33.5754 37.8647 33.3286 37.9672 33.1507 38.1451Z" fill="#3C3C51"/>
<path d="M42.5966 46.0693C42.3446 46.0693 42.0979 46.1718 41.9199 46.3497C41.742 46.5277 41.6395 46.7748 41.6395 47.0264C41.6395 47.2779 41.742 47.5251 41.9199 47.703C42.0979 47.8809 42.3446 47.9834 42.5966 47.9834C42.8482 47.9834 43.0949 47.8809 43.2732 47.703C43.4512 47.5251 43.5536 47.2779 43.5536 47.0264C43.5536 46.7748 43.4512 46.5277 43.2732 46.3497C43.0949 46.1718 42.8482 46.0693 42.5966 46.0693Z" fill="#3C3C51"/>
<path d="M31.2037 15.1416C31.4564 15.1416 31.7024 15.0392 31.8804 14.8612C32.0587 14.6833 32.1607 14.4362 32.1607 14.1846C32.1607 13.933 32.0587 13.6859 31.8804 13.5079C31.7024 13.33 31.4557 13.2275 31.2037 13.2275C30.9521 13.2275 30.7054 13.33 30.5274 13.5079C30.3491 13.6859 30.2467 13.933 30.2467 14.1846C30.2467 14.4362 30.3491 14.6833 30.5274 14.8612C30.7054 15.0392 30.9521 15.1416 31.2037 15.1416Z" fill="#3C3C51"/>
</svg>
