<svg width="32" height="32" viewBox="0 0 32 32" fill="none" xmlns="http://www.w3.org/2000/svg">
<path d="M16 32C24.8366 32 32 24.8366 32 16C32 7.16344 24.8366 0 16 0C7.16344 0 0 7.16344 0 16C0 24.8366 7.16344 32 16 32Z" fill="#3F65A6"/>
<path d="M13.5687 10.7374C13.5687 11.1999 13.5687 13.2624 13.5687 13.2624H11.7188V16.3499H13.5687V24.8124H17.3687V16.3437H19.9187C19.9187 16.3437 20.1563 14.8624 20.275 13.2437C19.9438 13.2437 17.3875 13.2437 17.3875 13.2437C17.3875 13.2437 17.3875 11.4499 17.3875 11.1312C17.3875 10.8186 17.8 10.3937 18.2125 10.3937C18.6187 10.3937 19.4813 10.3937 20.2813 10.3937C20.2813 9.97494 20.2813 8.51862 20.2813 7.18115C19.2125 7.18115 18 7.18115 17.4687 7.18115C13.475 7.18741 13.5687 10.2749 13.5687 10.7374Z" fill="white"/>
</svg>
