<svg width="32" height="32" viewBox="0 0 32 32" fill="none" xmlns="http://www.w3.org/2000/svg">
<path d="M16 0C7.16344 0 0 7.16344 0 16C0 24.8366 7.16344 32 16 32C24.8366 32 32 24.8366 32 16C32 7.16344 24.8366 0 16 0Z" fill="#C4C4C4"/>
<path d="M16 0C7.16344 0 0 7.16344 0 16C0 24.8366 7.16344 32 16 32C24.8366 32 32 24.8366 32 16C32 7.16344 24.8366 0 16 0Z" fill="url(#paint0_radial_234)"/>
<path d="M20.8 25.5999H11.2C9.92698 25.5999 8.7061 25.0942 7.80591 24.194C6.90574 23.2938 6.40002 22.0729 6.40002 20.7999V11.1999C6.40002 9.92686 6.90574 8.70598 7.80591 7.80579C8.7061 6.90561 9.92698 6.3999 11.2 6.3999H20.8C22.0731 6.3999 23.2939 6.90561 24.1941 7.80579C25.0943 8.70598 25.6 9.92686 25.6 11.1999V20.7999C25.6 22.0729 25.0943 23.2938 24.1941 24.194C23.2939 25.0942 22.0731 25.5999 20.8 25.5999ZM11.2 8.3199C10.4365 8.32094 9.70458 8.6247 9.16474 9.16462C8.62482 9.70446 8.32106 10.4364 8.32002 11.1999V20.7999C8.32106 21.5634 8.62482 22.2953 9.16474 22.8352C9.70458 23.3751 10.4365 23.6789 11.2 23.6799H20.8C21.5635 23.6789 22.2955 23.3751 22.8353 22.8352C23.3752 22.2953 23.679 21.5634 23.68 20.7999V11.1999C23.679 10.4364 23.3752 9.70446 22.8353 9.16462C22.2955 8.6247 21.5635 8.32094 20.8 8.3199H11.2Z" fill="white"/>
<path d="M16 21.4401C14.924 21.4401 13.8722 21.121 12.9777 20.5232C12.083 19.9256 11.3858 19.0759 10.9741 18.0819C10.5623 17.0879 10.4546 15.994 10.6645 14.9388C10.8744 13.8836 11.3925 12.9142 12.1533 12.1534C12.9141 11.3926 13.8834 10.8745 14.9386 10.6646C15.9939 10.4547 17.0877 10.5624 18.0817 10.9742C19.0757 11.3859 19.9254 12.0832 20.5231 12.9778C21.1209 13.8724 21.44 14.9241 21.44 16.0001C21.4389 17.4425 20.8654 18.8256 19.8454 19.8456C18.8255 20.8656 17.4424 21.439 16 21.4401ZM16 12.4801C15.3038 12.4801 14.6232 12.6865 14.0443 13.0733C13.4655 13.4601 13.0143 14.0099 12.7479 14.653C12.4815 15.2962 12.4117 16.004 12.5476 16.6868C12.6834 17.3696 13.0186 17.9968 13.511 18.4891C14.0032 18.9814 14.6304 19.3166 15.3133 19.4524C15.9961 19.5883 16.7038 19.5186 17.347 19.2521C17.9902 18.9857 18.5399 18.5345 18.9267 17.9557C19.3135 17.3768 19.52 16.6963 19.52 16.0001C19.5189 15.0668 19.1477 14.1721 18.4878 13.5122C17.8279 12.8524 16.9332 12.4812 16 12.4801Z" fill="white"/>
<path d="M21.4401 11.8399C21.9703 11.8399 22.4001 11.4101 22.4001 10.8799C22.4001 10.3498 21.9703 9.91992 21.4401 9.91992C20.9099 9.91992 20.4801 10.3498 20.4801 10.8799C20.4801 11.4101 20.9099 11.8399 21.4401 11.8399Z" fill="white"/>
<defs>
<radialGradient id="paint0_radial_234" cx="0" cy="0" r="1" gradientUnits="userSpaceOnUse" gradientTransform="translate(-0.643762 31.35) rotate(180) scale(73.8975)">
<stop stop-color="#F9ED32"/>
<stop offset="0.36" stop-color="#EE2A7B"/>
<stop offset="0.44" stop-color="#D22A8A"/>
<stop offset="0.6" stop-color="#8B2AB2"/>
<stop offset="0.83" stop-color="#1B2AF0"/>
<stop offset="0.88" stop-color="#002AFF"/>
</radialGradient>
</defs>
</svg>
