<svg width="32" height="32" viewBox="0 0 32 32" fill="none" xmlns="http://www.w3.org/2000/svg">
<path fill-rule="evenodd" clip-rule="evenodd" d="M16 32C7.16346 32 0 24.8366 0 16C0 7.16346 7.16346 0 16 0C24.8366 0 32 7.16346 32 16C32 24.8366 24.8366 32 16 32ZM16.5274 24.9017C21.773 24.8995 26.0394 20.6322 26.0414 15.3877C26.0425 12.8455 25.0538 10.4552 23.2574 8.65696C21.4612 6.8586 19.0724 5.86777 16.5273 5.86666C11.2832 5.86666 7.0152 10.1345 7.01306 15.3802C7.0124 17.057 7.45046 18.6937 8.28304 20.1366L6.93334 25.0666L11.9769 23.7437C13.3666 24.5016 14.9311 24.9011 16.5234 24.9017H16.5274Z" fill="#51C85D"/>
<path fill-rule="evenodd" clip-rule="evenodd" d="M12.2105 22.0213L9.21755 22.8064L10.0164 19.8883L9.82843 19.5891C9.03683 18.3301 8.61875 16.875 8.61939 15.3808C8.62115 11.0208 12.1685 7.47363 16.5304 7.47363C18.6426 7.47437 20.628 8.298 22.1211 9.79272C23.614 11.2874 24.4358 13.2742 24.435 15.3872C24.4331 19.7475 20.8859 23.295 16.5273 23.295H16.5241C15.1051 23.2944 13.7134 22.9132 12.4992 22.1927L12.2105 22.0213ZM21.3204 17.6501C21.2611 17.551 21.1026 17.4915 20.8648 17.3724C20.6271 17.2534 19.4583 16.6784 19.2404 16.599C19.0226 16.5197 18.8639 16.4801 18.7055 16.718C18.5471 16.956 18.0915 17.4915 17.9528 17.6501C17.8142 17.8088 17.6755 17.8286 17.4379 17.7096C17.2001 17.5906 16.4341 17.3396 15.5261 16.5297C14.8194 15.8993 14.3423 15.1209 14.2035 14.8829C14.0649 14.6449 14.1888 14.5162 14.3079 14.3977C14.4147 14.2912 14.5455 14.12 14.6644 13.9812C14.7833 13.8424 14.8229 13.7432 14.9021 13.5847C14.9814 13.426 14.9418 13.2872 14.8823 13.1682C14.8229 13.0492 14.3475 11.879 14.1494 11.403C13.9563 10.9395 13.7604 11.0023 13.6145 10.995C13.4759 10.988 13.3174 10.9866 13.1589 10.9866C13.0004 10.9866 12.7428 11.046 12.525 11.284C12.3071 11.522 11.6929 12.0972 11.6929 13.2672C11.6929 14.4374 12.5447 15.5678 12.6636 15.7264C12.7825 15.8851 14.3399 18.2862 16.7247 19.316C17.2919 19.5609 17.7346 19.7072 18.0799 19.8167C18.6494 19.9977 19.1676 19.9722 19.5771 19.9109C20.0339 19.8427 20.9836 19.3359 21.1819 18.7806C21.3799 18.2252 21.3799 17.7492 21.3204 17.6501Z" fill="#51C85D"/>
</svg>
