<svg width="32" height="32" viewBox="0 0 32 32" fill="none" xmlns="http://www.w3.org/2000/svg">
<path d="M16 0C7.16326 0 0 7.16326 0 16C0 24.8367 7.16326 32 16 32C24.8367 32 32 24.8367 32 16C32 7.16326 24.8367 0 16 0ZM24.599 22.0718C23.9161 22.4988 21.1414 22.626 20.4697 22.1379C20.1012 21.8704 19.7643 21.5355 19.4444 21.2166C19.2205 20.9938 18.9664 20.8856 18.774 20.6437C18.617 20.4458 18.5092 20.2122 18.3438 20.0166C18.0648 19.6887 17.6354 19.4097 17.2957 19.8104C16.7841 20.4132 17.3761 21.5969 16.6939 22.0471C16.4652 22.1982 16.2343 22.2419 15.9483 22.2205L15.315 22.2492C14.9431 22.2565 14.3539 22.26 13.9306 22.1837C13.4586 22.0984 13.0686 21.8406 12.6416 21.6513C11.8312 21.2918 11.0593 20.8021 10.4718 20.1238C8.8728 18.2762 6.72513 15.7355 5.89082 13.4128C5.71924 12.9355 5.26586 11.9903 5.69566 11.581C6.28007 11.1563 9.14832 11.0367 9.59584 11.6932C9.77744 11.9602 9.89224 12.3504 10.0208 12.653C10.181 13.0302 10.2676 13.3854 10.5178 13.7192C10.7394 14.0153 10.9026 14.313 11.0738 14.6374C11.2662 15.0018 11.4478 15.3511 11.6818 15.6863C11.8406 15.9144 12.2603 16.3681 12.5254 16.4018C13.173 16.4846 13.1327 14.9113 13.0846 14.5272C13.0385 14.157 13.0267 13.7643 13.0388 13.3889C13.0492 13.0686 13.078 12.6174 12.8884 12.356C12.5792 11.9296 11.8905 12.2486 11.8367 11.6756C11.9504 11.513 11.9265 11.3688 12.686 11.1186C13.2842 10.922 13.6707 10.9282 14.0652 10.9598C14.8694 11.0242 15.722 10.8066 16.4984 11.0673C17.2402 11.3171 17.1254 12.3712 17.1005 13.0028C17.0669 13.8648 17.103 14.7064 17.1005 15.5816C17.0994 15.9799 17.0835 16.3678 17.5695 16.3352C18.025 16.305 18.0714 15.9217 18.2887 15.6055C18.591 15.1646 18.8686 14.7175 19.1764 14.2783C19.5914 13.6846 19.7168 13.0174 20.1074 12.409C20.2471 12.1917 20.3674 11.7286 20.5826 11.5566C20.7456 11.426 21.0551 11.4942 21.2523 11.4942H21.7213C22.0801 11.4942 22.4461 11.4915 22.8149 11.5043C23.3459 11.5227 23.9407 11.4007 24.4673 11.4752C26.7394 11.7958 21.6114 16.653 21.8783 17.5202C22.0627 18.1192 23.2326 18.7886 23.6548 19.279C24.2153 19.9324 25.9407 21.2312 24.599 22.0718Z" fill="#4C75A3"/>
</svg>
