<svg width="224" height="162" viewBox="0 0 224 162" fill="none" xmlns="http://www.w3.org/2000/svg">
<path opacity="0.5" fill-rule="evenodd" clip-rule="evenodd" d="M161.743 1.01956C160.979 -0.339851 159.021 -0.339852 158.257 1.01955L153.073 10.2368C152.44 11.3615 150.924 11.6016 149.974 10.7275L142.196 3.56336C141.049 2.50676 139.187 3.11157 138.88 4.64071L136.798 15.0088C136.544 16.2739 135.176 16.9709 134.003 16.4328L124.391 12.0231C122.974 11.3727 121.39 12.5232 121.571 14.0724L122.794 24.5764C122.944 25.8581 121.858 26.9437 120.576 26.7944L110.072 25.5707C108.523 25.3902 107.373 26.9737 108.023 28.3913L112.433 38.0031C112.971 39.1759 112.274 40.5438 111.009 40.7979L100.641 42.8801C99.1116 43.1871 98.5068 45.0486 99.5634 46.1958L106.727 53.9745C107.602 54.9237 107.361 56.44 106.237 57.0726L97.0196 62.2567C95.6601 63.0213 95.6601 64.9785 97.0196 65.7431L106.237 70.9273C107.361 71.5599 107.602 73.0762 106.727 74.0254L99.5634 81.8041C98.5068 82.9513 99.1116 84.8127 100.641 85.1198L111.009 87.202C112.274 87.456 112.971 88.8239 112.433 89.9968L108.023 99.6086C107.373 101.026 108.523 102.61 110.072 102.429L120.576 101.205C121.858 101.056 122.944 102.142 122.794 103.423L121.571 113.928C121.39 115.477 122.974 116.627 124.391 115.977L134.003 111.567C135.176 111.029 136.544 111.726 136.798 112.991L138.88 123.359C139.187 124.888 141.049 125.493 142.196 124.437L149.974 117.272C150.924 116.398 152.44 116.638 153.073 117.763L158.257 126.98C159.021 128.34 160.979 128.34 161.743 126.98L166.927 117.763C167.56 116.638 169.076 116.398 170.025 117.272L177.804 124.437C178.951 125.493 180.813 124.888 181.12 123.359L183.202 112.991C183.456 111.726 184.824 111.029 185.997 111.567L195.609 115.977C197.026 116.627 198.61 115.477 198.429 113.928L197.205 103.423C197.056 102.142 198.142 101.056 199.423 101.205L209.928 102.429C211.477 102.61 212.627 101.026 211.977 99.6086L207.567 89.9968C207.029 88.8239 207.726 87.456 208.991 87.202L219.359 85.1198C220.888 84.8127 221.493 82.9513 220.437 81.8041L213.272 74.0254C212.398 73.0762 212.638 71.5599 213.763 70.9273L222.98 65.7431C224.34 64.9785 224.34 63.0213 222.98 62.2567L213.763 57.0726C212.638 56.44 212.398 54.9237 213.272 53.9745L220.437 46.1958C221.493 45.0486 220.888 43.1871 219.359 42.8801L208.991 40.7979C207.726 40.5438 207.029 39.1759 207.567 38.0031L211.977 28.3913C212.627 26.9737 211.477 25.3902 209.928 25.5707L199.423 26.7944C198.142 26.9437 197.056 25.8581 197.205 24.5764L198.429 14.0724C198.61 12.5232 197.026 11.3727 195.609 12.0231L185.997 16.4328C184.824 16.9709 183.456 16.2739 183.202 15.0088L181.12 4.64071C180.813 3.11157 178.951 2.50676 177.804 3.56336L170.025 10.7275C169.076 11.6016 167.56 11.3615 166.927 10.2368L161.743 1.01956ZM160 111.091C186.008 111.091 207.091 90.0077 207.091 63.9999C207.091 37.9921 186.008 16.9086 160 16.9086C133.992 16.9086 112.909 37.9921 112.909 63.9999C112.909 90.0077 133.992 111.091 160 111.091ZM160 100.534C180.177 100.534 196.534 84.1771 196.534 63.9999C196.534 43.8227 180.177 27.4659 160 27.4659C139.823 27.4659 123.466 43.8227 123.466 63.9999C123.466 84.1771 139.823 100.534 160 100.534ZM160 106.534C183.491 106.534 202.534 87.4908 202.534 63.9999C202.534 40.509 183.491 21.4659 160 21.4659C136.509 21.4659 117.466 40.509 117.466 63.9999C117.466 87.4908 136.509 106.534 160 106.534ZM162.548 41.2139C164.205 41.2139 165.548 42.557 165.548 44.2139V53.933C165.548 55.5899 166.891 56.933 168.548 56.933H178.267C179.924 56.933 181.267 58.2762 181.267 59.933V65.0289C181.267 66.6857 179.924 68.0289 178.267 68.0289H168.548C166.891 68.0289 165.548 69.372 165.548 71.0289V80.7479C165.548 82.4048 164.205 83.7479 162.548 83.7479H157.452C155.796 83.7479 154.452 82.4048 154.452 80.7479V71.0289C154.452 69.372 153.109 68.0289 151.452 68.0289H141.733C140.076 68.0289 138.733 66.6857 138.733 65.0289V59.933C138.733 58.2762 140.076 56.933 141.733 56.933H151.452C153.109 56.933 154.452 55.5899 154.452 53.933V44.2139C154.452 42.557 155.796 41.2139 157.452 41.2139H162.548Z" fill="white"/>
<path opacity="0.5" fill-rule="evenodd" clip-rule="evenodd" d="M64.957 117.02C65.7216 115.66 67.6788 115.66 68.4434 117.02L68.5236 117.162C69.1562 118.287 70.6725 118.527 71.6217 117.653L71.742 117.542C72.8893 116.485 74.7507 117.09 75.0578 118.619L75.09 118.78C75.344 120.045 76.7119 120.742 77.8848 120.204L78.0335 120.136C79.4511 119.485 81.0345 120.636 80.854 122.185L80.8351 122.347C80.6858 123.629 81.7714 124.715 83.0531 124.565L83.2156 124.546C84.7648 124.366 85.9152 125.949 85.2648 127.367L85.1966 127.516C84.6585 128.688 85.3555 130.056 86.6207 130.31L86.781 130.343C88.3102 130.65 88.915 132.511 87.8584 133.658L87.7476 133.779C86.8734 134.728 87.1136 136.244 88.2383 136.877L88.3809 136.957C89.7403 137.722 89.7403 139.679 88.3809 140.443L88.2383 140.524C87.1136 141.156 86.8734 142.673 87.7476 143.622L87.8584 143.742C88.915 144.889 88.3102 146.751 86.7811 147.058L86.6207 147.09C85.3555 147.344 84.6585 148.712 85.1966 149.885L85.2648 150.033C85.9152 151.451 84.7648 153.035 83.2156 152.854L83.0531 152.835C81.7714 152.686 80.6858 153.771 80.8351 155.053L80.854 155.216C81.0345 156.765 79.4511 157.915 78.0335 157.265L77.8848 157.197C76.712 156.659 75.344 157.356 75.09 158.621L75.0578 158.781C74.7507 160.31 72.8893 160.915 71.742 159.858L71.6217 159.748C70.6725 158.873 69.1562 159.114 68.5236 160.238L68.4434 160.381C67.6788 161.74 65.7216 161.74 64.957 160.381L64.8768 160.238C64.2442 159.114 62.7279 158.873 61.7787 159.748L61.6584 159.858C60.5111 160.915 58.6497 160.31 58.3426 158.781L58.3104 158.621C58.0564 157.356 56.6885 156.659 55.5156 157.197L55.3669 157.265C53.9493 157.915 52.3659 156.765 52.5464 155.216L52.5653 155.053C52.7146 153.771 51.629 152.686 50.3473 152.835L50.1848 152.854C48.6356 153.035 47.4852 151.451 48.1356 150.033L48.2038 149.885C48.7419 148.712 48.0449 147.344 46.7797 147.09L46.6194 147.058C45.0902 146.751 44.4854 144.889 45.542 143.742L45.6528 143.622C46.527 142.673 46.2868 141.156 45.1621 140.524L45.0196 140.443C43.6601 139.679 43.6601 137.722 45.0196 136.957L45.1621 136.877C46.2868 136.244 46.527 134.728 45.6528 133.779L45.542 133.658C44.4854 132.511 45.0902 130.65 46.6194 130.343L46.7797 130.31C48.0449 130.056 48.7419 128.688 48.2038 127.516L48.1356 127.367C47.4852 125.949 48.6356 124.366 50.1848 124.546L50.3473 124.565C51.629 124.715 52.7146 123.629 52.5653 122.347L52.5464 122.185C52.3659 120.636 53.9493 119.485 55.3669 120.136L55.5156 120.204C56.6885 120.742 58.0564 120.045 58.3104 118.78L58.3426 118.619C58.6497 117.09 60.5111 116.485 61.6584 117.542L61.7787 117.653C62.7279 118.527 64.2442 118.287 64.8768 117.162L64.957 117.02ZM84.3595 138.7C84.3595 148.453 76.4531 156.36 66.7002 156.36C56.9472 156.36 49.0409 148.453 49.0409 138.7C49.0409 128.947 56.9472 121.041 66.7002 121.041C76.4531 121.041 84.3595 128.947 84.3595 138.7ZM67.5696 127.131C68.6742 127.131 69.5696 128.026 69.5696 129.131V133.261C69.5696 134.366 70.465 135.261 71.5696 135.261H75.7002C76.8048 135.261 77.7002 136.157 77.7002 137.261V139C77.7002 140.105 76.8048 141 75.7002 141H71.5696C70.465 141 69.5696 141.896 69.5696 143V147.131C69.5696 148.235 68.6742 149.131 67.5696 149.131H65.8305C64.7259 149.131 63.8305 148.235 63.8305 147.131V143C63.8305 141.896 62.9351 141 61.8305 141H57.7003C56.5958 141 55.7003 140.105 55.7003 139V137.261C55.7003 136.157 56.5958 135.261 57.7003 135.261H61.8305C62.9351 135.261 63.8305 134.366 63.8305 133.261V129.131C63.8305 128.026 64.7259 127.131 65.8305 127.131H67.5696Z" fill="white"/>
<circle opacity="0.2" cx="59" cy="89" r="9" fill="white"/>
<circle opacity="0.2" cx="117" cy="141" r="9" fill="white"/>
<circle opacity="0.2" cx="6" cy="147" r="6" fill="white"/>
</svg>
